<svg id="Layer_1" data-name="Layer 1" xmlns="http://www.w3.org/2000/svg" viewBox="0 0 177.16 55.86"><defs><style>.cls-1{fill:#fff;}.cls-2{fill:#e2231a;}</style></defs><title>logo</title><path class="cls-1" d="M62.6,57.8H63V56.17l1.56,1.62H65.1L63.37,56l1.54-1.4h-0.5L63,55.93V53.15H62.6V57.8Zm-1-4.53H61.23v0.52h0.39V53.27ZM61.23,57.8h0.39V54.63H61.23V57.8Zm-0.7-3.16H59.81v-0.9l-0.39.14v0.76H58.8V55h0.62v1.85c0,0.58,0,1.05.72,1.05a1.44,1.44,0,0,0,.48-0.09l0-.32a0.91,0.91,0,0,1-.36.07A0.43,0.43,0,0,1,59.81,57V55h0.72V54.63Zm-2.68,1.76a1,1,0,0,1-.94,1.14A0.56,0.56,0,0,1,56.25,57c0-.7.81-0.76,1.48-0.76h0.11v0.19Zm0,1.4h0.38a4.49,4.49,0,0,1,0-.66v-1.4a1,1,0,0,0-1.11-1.18,2.49,2.49,0,0,0-.93.22v0.38a1.68,1.68,0,0,1,.93-0.26,0.66,0.66,0,0,1,.72.81v0.16H57.77c-0.82,0-1.95,0-1.95,1.11a0.89,0.89,0,0,0,1,.89,1.11,1.11,0,0,0,1-.58h0V57.8Zm-2.8-4.53H54.69v0.52h0.39V53.27ZM54.69,57.8h0.39V54.63H54.69V57.8Zm-0.55-3.16H53.73l-0.92,2.73h0l-0.87-2.73H51.5l1.07,3.16H53Zm-3.72,1.63H48.54l0.94-2.39ZM47.5,57.8h0.42l0.47-1.16h2.18L51,57.8h0.45l-1.72-4.33H49.27Zm-4.76,0h0.39V56.1a1,1,0,0,1,.94-1.21c0.65,0,.75.47,0.75,1V57.8h0.39V55.9c0-.78-0.23-1.35-1.08-1.35a1.07,1.07,0,0,0-1,.61h0v-2H42.74V57.8Zm-0.66-3.11a2.37,2.37,0,0,0-.76-0.12,1.53,1.53,0,0,0-1.56,1.66,1.5,1.5,0,0,0,1.51,1.65,2.34,2.34,0,0,0,.81-0.11l0-.36a2,2,0,0,1-.71.14,1.2,1.2,0,0,1-1.15-1.32,1.18,1.18,0,0,1,1.19-1.32,1.8,1.8,0,0,1,.68.16ZM39,53.27H38.61v0.52H39V53.27ZM38.61,57.8H39V54.63H38.61V57.8ZM35.7,56a1,1,0,0,1,.93-1.1,0.92,0.92,0,0,1,.81,1.1H35.7Zm1.93,1.31a2,2,0,0,1-.89.23,1.07,1.07,0,0,1-1-1.21h2.16v-0.2a1.33,1.33,0,0,0-1.26-1.57,1.45,1.45,0,0,0-1.33,1.66,1.4,1.4,0,0,0,1.44,1.65,2.58,2.58,0,0,0,.92-0.17V57.3Zm-4.07.49h0.39V56.23A1,1,0,0,1,34.74,55,1,1,0,0,1,35,55V54.6a1.13,1.13,0,0,0-.27,0,0.94,0.94,0,0,0-.81.68h0V54.63H33.53a5.62,5.62,0,0,1,0,.71V57.8ZM30.65,56a1,1,0,0,1,.93-1.1,0.92,0.92,0,0,1,.81,1.1H30.65Zm1.93,1.31a2,2,0,0,1-.89.23,1.07,1.07,0,0,1-1-1.21h2.16v-0.2a1.33,1.33,0,0,0-1.26-1.57,1.45,1.45,0,0,0-1.33,1.66,1.4,1.4,0,0,0,1.44,1.65,2.58,2.58,0,0,0,.92-0.17V57.3Zm-5.12-3.46H28a0.78,0.78,0,0,1,.94.71,0.87,0.87,0,0,1-1.05.81H27.46V53.84Zm0,1.89h0.38c0.63,0,1.3.08,1.3,0.85a1,1,0,0,1-1.23.84H27.44V55.73ZM27,57.8h0.86c0.9,0,1.67-.29,1.67-1.23a1,1,0,0,0-.92-1h0a0.89,0.89,0,0,0,.79-1A1.13,1.13,0,0,0,28,53.47H27V57.8Z" transform="translate(-1.92 -2.01)"/><path class="cls-1" d="M177,46.71h-1.24V46h3.35v0.68h-1.24v3.65H177V46.71Zm-2.79-.07-0.22,0a0.63,0.63,0,0,0-.22.09,0.49,0.49,0,0,0-.17.19,0.59,0.59,0,0,0-.07.3,0.32,0.32,0,0,0,.09.23,0.9,0.9,0,0,0,.22.17l0.31,0.14,0.34,0.14a2.67,2.67,0,0,1,.35.16,1.27,1.27,0,0,1,.3.24,1.17,1.17,0,0,1,.22.33,1.35,1.35,0,0,1,.07.48,1.14,1.14,0,0,1-.48,1,2.06,2.06,0,0,1-1.15.3,2.73,2.73,0,0,1-.56,0l-0.55-.12,0.08-.78a2,2,0,0,0,1,.27,1.05,1.05,0,0,0,.51-0.14,0.46,0.46,0,0,0,.25-0.42,0.47,0.47,0,0,0-.07-0.27,0.71,0.71,0,0,0-.22-0.19,5.8,5.8,0,0,0-.65-0.28,2.43,2.43,0,0,1-.34-0.17,1.61,1.61,0,0,1-.31-0.22,1.17,1.17,0,0,1-.22-0.33,1.09,1.09,0,0,1-.09-0.45,1.17,1.17,0,0,1,.48-1,1.86,1.86,0,0,1,1-.29,3.34,3.34,0,0,1,1,.15l-0.08.71a2.27,2.27,0,0,0-.88-0.19m-6-.61h0.87v2.5a1.56,1.56,0,0,0,.2.88,0.88,0.88,0,0,0,1.4,0,1.67,1.67,0,0,0,.2-0.88V46h0.87v2.77a1.77,1.77,0,0,1-3.53,0V46Zm-2,.61-0.22,0a0.64,0.64,0,0,0-.22.09,0.48,0.48,0,0,0-.17.19,0.58,0.58,0,0,0-.07.3,0.33,0.33,0,0,0,.09.23,0.9,0.9,0,0,0,.22.17l0.31,0.14,0.34,0.14a2.8,2.8,0,0,1,.35.16,1.29,1.29,0,0,1,.3.24,1.19,1.19,0,0,1,.22.33,1.37,1.37,0,0,1,.07.48,1.14,1.14,0,0,1-.48,1,2.06,2.06,0,0,1-1.15.3,2.73,2.73,0,0,1-.57,0l-0.54-.12,0.08-.78a2,2,0,0,0,1,.27,1,1,0,0,0,.51-0.14,0.49,0.49,0,0,0,.18-0.69,0.71,0.71,0,0,0-.22-0.19,5.8,5.8,0,0,0-.65-0.28,2.48,2.48,0,0,1-.34-0.17,1.65,1.65,0,0,1-.31-0.22,1.19,1.19,0,0,1-.22-0.33,1.09,1.09,0,0,1-.09-0.45,1.17,1.17,0,0,1,.48-1,1.85,1.85,0,0,1,1-.29,3.35,3.35,0,0,1,1,.15l-0.08.71a2.26,2.26,0,0,0-.88-0.19m-4.13,3.55a2.21,2.21,0,0,1-1.1.25,1.49,1.49,0,0,1-1.67-1.66,1.91,1.91,0,0,1,.37-1.2,1.35,1.35,0,0,1,1.11-.49,1.33,1.33,0,0,1,1.21.54,2.66,2.66,0,0,1,.31,1.39h-2.21a0.81,0.81,0,0,0,.28.59,0.92,0.92,0,0,0,.63.22,1.63,1.63,0,0,0,.57-0.1,2.53,2.53,0,0,0,.49-0.22v0.68Zm-0.56-1.74a0.94,0.94,0,0,0-.17-0.53,0.61,0.61,0,0,0-.51-0.22,0.69,0.69,0,0,0-.53.21,0.89,0.89,0,0,0-.21.54h1.41Zm-3.71-2.74h0.83v4.65h-0.83V45.71Zm-1.72,0H157v4.65h-0.83V45.71Zm-0.9,4.48a2.2,2.2,0,0,1-1.1.25,1.49,1.49,0,0,1-1.67-1.66,1.91,1.91,0,0,1,.37-1.2,1.35,1.35,0,0,1,1.11-.49,1.33,1.33,0,0,1,1.21.54,2.66,2.66,0,0,1,.31,1.39h-2.21a0.81,0.81,0,0,0,.28.59,0.92,0.92,0,0,0,.63.22,1.62,1.62,0,0,0,.57-0.1,2.5,2.5,0,0,0,.49-0.22v0.68Zm-0.56-1.74a0.93,0.93,0,0,0-.17-0.53A0.61,0.61,0,0,0,154,47.7a0.7,0.7,0,0,0-.53.21,0.89,0.89,0,0,0-.21.54h1.41Zm-4.14-.68h-0.61V47.16h0.61V46.52l0.83-.27v0.9h0.74v0.61h-0.74v1.49a0.66,0.66,0,0,0,.08.36,0.32,0.32,0,0,0,.31.17,0.72,0.72,0,0,0,.38-0.09l0,0.66a2.15,2.15,0,0,1-.61.07,0.92,0.92,0,0,1-1-1V47.77Zm-1.13.06-0.35-.11a2.27,2.27,0,0,0-.4,0,0.77,0.77,0,0,0-.32.07,0.3,0.3,0,0,0-.17.29,0.28,0.28,0,0,0,.23.25l0.24,0.08,0.26,0.09a1.55,1.55,0,0,1,.27.11,1.15,1.15,0,0,1,.22.17,0.78,0.78,0,0,1,.17.26,1.1,1.1,0,0,1,.06.38,0.9,0.9,0,0,1-.41.8,1.76,1.76,0,0,1-.93.24,3.64,3.64,0,0,1-.94-0.14l0-.68a1.7,1.7,0,0,0,.82.21,0.81,0.81,0,0,0,.35-0.09,0.31,0.31,0,0,0,.19-0.3,0.34,0.34,0,0,0-.06-0.2,0.42,0.42,0,0,0-.17-0.12,4.26,4.26,0,0,0-.5-0.16l-0.26-.11a0.91,0.91,0,0,1-.24-0.16,0.65,0.65,0,0,1-.16-0.25,0.81,0.81,0,0,1-.07-0.35,0.83,0.83,0,0,1,.39-0.76,1.54,1.54,0,0,1,.86-0.24,3.58,3.58,0,0,1,.51,0l0.4,0.09Zm-2.75,0-0.35-.11a2.26,2.26,0,0,0-.4,0,0.77,0.77,0,0,0-.32.07,0.3,0.3,0,0,0-.17.29,0.28,0.28,0,0,0,.23.25l0.24,0.08,0.26,0.09a1.55,1.55,0,0,1,.27.11,1.12,1.12,0,0,1,.22.17,0.8,0.8,0,0,1,.17.26,1.13,1.13,0,0,1,.06.38,0.9,0.9,0,0,1-.41.8,1.75,1.75,0,0,1-.93.24,3.64,3.64,0,0,1-.94-0.14l0-.68a1.7,1.7,0,0,0,.82.21,0.81,0.81,0,0,0,.35-0.09,0.31,0.31,0,0,0,.19-0.3,0.35,0.35,0,0,0-.06-0.2,0.43,0.43,0,0,0-.17-0.12,4.26,4.26,0,0,0-.5-0.16L145,48.84a0.91,0.91,0,0,1-.24-0.16,0.65,0.65,0,0,1-.16-0.25,0.81,0.81,0,0,1-.07-0.35,0.83,0.83,0,0,1,.39-0.76,1.54,1.54,0,0,1,.86-0.24,3.61,3.61,0,0,1,.51,0l0.4,0.09Zm-2.75-.67V50c0,0.1,0,.21,0,0.32a2.47,2.47,0,0,1-.06.31,1.43,1.43,0,0,1-.27.54,1.2,1.2,0,0,1-.51.37,2.16,2.16,0,0,1-.83.15,3.08,3.08,0,0,1-1.1-.22l0.07-.71a2.89,2.89,0,0,0,.46.19,1.72,1.72,0,0,0,.46.09,1.21,1.21,0,0,0,.55-0.12,0.76,0.76,0,0,0,.29-0.3,1.21,1.21,0,0,0,.12-0.4c0-.14,0-0.28,0-0.42h0a0.94,0.94,0,0,1-.37.35,1.2,1.2,0,0,1-.62.16,1.11,1.11,0,0,1-1-.49,1.93,1.93,0,0,1-.3-1.12,2,2,0,0,1,.32-1.12,1.16,1.16,0,0,1,1-.53,1.1,1.1,0,0,1,1,.51h0V47.16h0.79Zm-1,2.25a1.32,1.32,0,0,0,.17-0.69,1.39,1.39,0,0,0-.16-0.7,0.6,0.6,0,0,0-.53-0.29,0.62,0.62,0,0,0-.58.32,1.33,1.33,0,0,0-.17.69,1.23,1.23,0,0,0,.18.64,0.79,0.79,0,0,0,.22.23,0.51,0.51,0,0,0,.3.09,0.62,0.62,0,0,0,.57-0.3m-5.72-2.25H138V47.6h0a1.24,1.24,0,0,1,1-.51,1,1,0,0,1,.83.35,1.49,1.49,0,0,1,.25.9v2h-0.83v-1.7c0-.1,0-0.21,0-0.32a0.82,0.82,0,0,0-.06-0.29,0.45,0.45,0,0,0-.15-0.23,0.55,0.55,0,0,0-.32-0.08,0.57,0.57,0,0,0-.36.11,0.83,0.83,0,0,0-.22.27,1.24,1.24,0,0,0-.11.34,1.76,1.76,0,0,0,0,.35v1.56h-0.83V47.16Zm-0.85,3.19h-0.79V49.92h0a1.3,1.3,0,0,1-1,.51,1,1,0,0,1-.82-0.36,1.42,1.42,0,0,1-.27-0.89v-2h0.83v1.7a0.9,0.9,0,0,0,0,.14s0,0.1,0,.16a1.45,1.45,0,0,0,.06.3,0.56,0.56,0,0,0,.16.22,0.46,0.46,0,0,0,.3.09,0.59,0.59,0,0,0,.38-0.12,0.67,0.67,0,0,0,.22-0.27,1,1,0,0,0,.11-0.34,2.55,2.55,0,0,0,0-.34V47.16h0.83v3.19Zm-6.72-4.65h0.83V47.6h0a1.16,1.16,0,0,1,1-.51,1,1,0,0,1,.83.35,1.48,1.48,0,0,1,.25.9v2H131.7v-1.7c0-.1,0-0.21,0-0.32a0.8,0.8,0,0,0-.06-0.29,0.44,0.44,0,0,0-.15-0.23,0.55,0.55,0,0,0-.32-0.08,0.57,0.57,0,0,0-.36.11,0.83,0.83,0,0,0-.22.27,1.24,1.24,0,0,0-.11.34,1.76,1.76,0,0,0,0,.35v1.56H129.6V45.71Zm-0.68,2.14a1,1,0,0,0-.24-0.09,1.54,1.54,0,0,0-.33,0,0.77,0.77,0,0,0-.61.27,1.09,1.09,0,0,0-.24.74,1.2,1.2,0,0,0,.22.74,0.75,0.75,0,0,0,.64.3,1.22,1.22,0,0,0,.36-0.06l0.28-.09,0,0.69a1.74,1.74,0,0,1-.37.07,3,3,0,0,1-.46,0,1.44,1.44,0,0,1-1.17-.48,1.77,1.77,0,0,1-.4-1.2,1.73,1.73,0,0,1,.4-1.18,1.42,1.42,0,0,1,1.14-.48,2.64,2.64,0,0,1,.81.11ZM126,50.36H125.2V49.92h0a1.3,1.3,0,0,1-1,.51,1,1,0,0,1-.82-0.36,1.42,1.42,0,0,1-.27-0.89v-2h0.83v1.7a0.9,0.9,0,0,0,0,.14s0,0.1,0,.16a1.45,1.45,0,0,0,.06.3,0.56,0.56,0,0,0,.16.22,0.46,0.46,0,0,0,.3.09,0.59,0.59,0,0,0,.38-0.12A0.67,0.67,0,0,0,125,49.4a1,1,0,0,0,.11-0.34,2.55,2.55,0,0,0,0-.34V47.16H126v3.19Zm-3.79-2.52-0.35-.11a2.27,2.27,0,0,0-.4,0,0.77,0.77,0,0,0-.32.07,0.3,0.3,0,0,0-.17.29,0.28,0.28,0,0,0,.23.25l0.24,0.08,0.26,0.09a1.55,1.55,0,0,1,.27.11,1.12,1.12,0,0,1,.22.17,0.78,0.78,0,0,1,.17.26,1.1,1.1,0,0,1,.06.38,0.9,0.9,0,0,1-.41.8,1.75,1.75,0,0,1-.93.24,3.64,3.64,0,0,1-.94-0.14l0-.68a1.7,1.7,0,0,0,.82.21,0.81,0.81,0,0,0,.35-0.09,0.31,0.31,0,0,0,.19-0.3,0.34,0.34,0,0,0-.06-0.2,0.42,0.42,0,0,0-.17-0.12,4.26,4.26,0,0,0-.5-0.16l-0.26-.11a0.91,0.91,0,0,1-.24-0.16,0.65,0.65,0,0,1-.16-0.25,0.81,0.81,0,0,1-.07-0.35,0.83,0.83,0,0,1,.39-0.76,1.54,1.54,0,0,1,.86-0.24,3.58,3.58,0,0,1,.51,0l0.4,0.09Zm-4.29-.67h0.74v0.73h0a1,1,0,0,1,.27-0.51,0.78,0.78,0,0,1,.6-0.29l0.25,0V48a0.83,0.83,0,0,0-.37-0.07A0.52,0.52,0,0,0,119,48a0.79,0.79,0,0,0-.2.34,1.72,1.72,0,0,0-.07.42c0,0.14,0,.28,0,0.4v1.17h-0.83V47.16Zm-0.9,3a2.2,2.2,0,0,1-1.1.25,1.49,1.49,0,0,1-1.67-1.66,1.91,1.91,0,0,1,.37-1.2,1.35,1.35,0,0,1,1.11-.49,1.33,1.33,0,0,1,1.21.54,2.67,2.67,0,0,1,.31,1.39H115a0.81,0.81,0,0,0,.28.59,0.93,0.93,0,0,0,.63.22,1.63,1.63,0,0,0,.57-0.1A2.5,2.5,0,0,0,117,49.5v0.68Zm-0.56-1.74a0.93,0.93,0,0,0-.17-0.53,0.61,0.61,0,0,0-.51-0.22,0.7,0.7,0,0,0-.53.21,0.89,0.89,0,0,0-.21.54h1.41Zm-4.14-.68H111.7V47.16h0.61V46.52l0.83-.27v0.9h0.74v0.61h-0.74v1.49a0.66,0.66,0,0,0,.08.36,0.32,0.32,0,0,0,.31.17,0.72,0.72,0,0,0,.38-0.09l0,0.66a2.16,2.16,0,0,1-.61.07,0.92,0.92,0,0,1-1-1V47.77Zm-4.06-.61H109V47.6h0a1.24,1.24,0,0,1,1-.51,1,1,0,0,1,.83.35,1.49,1.49,0,0,1,.25.9v2h-0.83v-1.7c0-.1,0-0.21,0-0.32a0.82,0.82,0,0,0-.06-0.29,0.45,0.45,0,0,0-.16-0.23,0.55,0.55,0,0,0-.32-0.08,0.57,0.57,0,0,0-.36.11,0.83,0.83,0,0,0-.22.27,1.24,1.24,0,0,0-.11.34,1.84,1.84,0,0,0,0,.35v1.56h-0.83V47.16Zm-0.85,3.19h-0.79V49.92h0a1.3,1.3,0,0,1-1,.51,1,1,0,0,1-.82-0.36,1.42,1.42,0,0,1-.27-0.89v-2h0.83v1.7a0.8,0.8,0,0,0,0,.14s0,0.1,0,.16a1.39,1.39,0,0,0,.06.3,0.55,0.55,0,0,0,.16.22,0.46,0.46,0,0,0,.3.09,0.59,0.59,0,0,0,.38-0.12,0.68,0.68,0,0,0,.22-0.27,1,1,0,0,0,.11-0.34,2.39,2.39,0,0,0,0-.34V47.16h0.83v3.19Zm-3.79-2.52-0.35-.11a2.28,2.28,0,0,0-.4,0,0.78,0.78,0,0,0-.32.07,0.3,0.3,0,0,0-.17.29,0.28,0.28,0,0,0,.23.25l0.24,0.08,0.26,0.09a1.55,1.55,0,0,1,.27.11,1.12,1.12,0,0,1,.22.17,0.78,0.78,0,0,1,.17.26,1.12,1.12,0,0,1,.06.38,0.9,0.9,0,0,1-.41.8,1.75,1.75,0,0,1-.93.24,3.64,3.64,0,0,1-.94-0.14l0-.68a1.69,1.69,0,0,0,.82.21,0.81,0.81,0,0,0,.35-0.09,0.31,0.31,0,0,0,.19-0.3,0.35,0.35,0,0,0-.06-0.2,0.42,0.42,0,0,0-.17-0.12,4.2,4.2,0,0,0-.5-0.16L102,48.84a0.92,0.92,0,0,1-.24-0.16,0.65,0.65,0,0,1-.16-0.25,0.82,0.82,0,0,1-.07-0.35,0.83,0.83,0,0,1,.39-0.76,1.54,1.54,0,0,1,.86-0.24,3.6,3.6,0,0,1,.51,0l0.4,0.09Zm-4-.06H99V47.16h0.61V46.52l0.83-.27v0.9h0.74v0.61H100.4v1.49a0.66,0.66,0,0,0,.08.36,0.32,0.32,0,0,0,.31.17,0.72,0.72,0,0,0,.38-0.09l0,0.66a2.15,2.15,0,0,1-.61.07,0.92,0.92,0,0,1-1-1V47.77Zm-2-2h0.83v0.79H97.59V45.79Zm0,1.38h0.83v3.19H97.59V47.16Zm-0.9,3a2.21,2.21,0,0,1-1.1.25,1.49,1.49,0,0,1-1.67-1.66,1.91,1.91,0,0,1,.37-1.2,1.35,1.35,0,0,1,1.11-.49,1.33,1.33,0,0,1,1.21.54A2.66,2.66,0,0,1,96.92,49H94.71a0.81,0.81,0,0,0,.28.59,0.92,0.92,0,0,0,.63.22,1.63,1.63,0,0,0,.57-0.1,2.5,2.5,0,0,0,.49-0.22v0.68Zm-0.56-1.74A0.93,0.93,0,0,0,96,47.92a0.61,0.61,0,0,0-.51-0.22,0.7,0.7,0,0,0-.53.21,0.89,0.89,0,0,0-.21.54h1.41Zm-5.79-2.74h0.83V47.6h0a1.16,1.16,0,0,1,1-.51,1,1,0,0,1,.83.35,1.48,1.48,0,0,1,.26.9v2H92.44v-1.7c0-.1,0-0.21,0-0.32A0.84,0.84,0,0,0,92.37,48a0.45,0.45,0,0,0-.15-0.23,0.55,0.55,0,0,0-.32-0.08,0.57,0.57,0,0,0-.36.11,0.82,0.82,0,0,0-.22.27,1.24,1.24,0,0,0-.11.34,1.76,1.76,0,0,0,0,.35v1.56H90.34V45.71Zm-2.39,1.46h0.74v0.73h0A1,1,0,0,1,89,47.37a0.78,0.78,0,0,1,.6-0.29l0.25,0V48a0.82,0.82,0,0,0-.37-0.07,0.52,0.52,0,0,0-.38.14,0.8,0.8,0,0,0-.2.34,1.72,1.72,0,0,0-.07.42c0,0.14,0,.28,0,0.4v1.17H87.94V47.16Zm-0.91,3a2.21,2.21,0,0,1-1.1.25,1.49,1.49,0,0,1-1.67-1.66,1.91,1.91,0,0,1,.37-1.2,1.35,1.35,0,0,1,1.11-.49,1.33,1.33,0,0,1,1.21.54A2.66,2.66,0,0,1,87.27,49H85.07a0.81,0.81,0,0,0,.28.59,0.92,0.92,0,0,0,.63.22,1.63,1.63,0,0,0,.57-0.1A2.53,2.53,0,0,0,87,49.5v0.68Zm-0.56-1.74a0.94,0.94,0,0,0-.17-0.53,0.61,0.61,0,0,0-.51-0.22,0.69,0.69,0,0,0-.53.21,0.89,0.89,0,0,0-.21.54h1.41Zm-5.79-2.74h0.83V47.6h0a1.16,1.16,0,0,1,1-.51,1,1,0,0,1,.83.35,1.48,1.48,0,0,1,.25.9v2H82.79v-1.7c0-.1,0-0.21,0-0.32A0.8,0.8,0,0,0,82.72,48a0.44,0.44,0,0,0-.16-0.23,0.55,0.55,0,0,0-.32-0.08,0.57,0.57,0,0,0-.36.11,0.83,0.83,0,0,0-.22.27,1.27,1.27,0,0,0-.11.34,1.76,1.76,0,0,0,0,.35v1.56H80.69V45.71ZM80,47.85a1,1,0,0,0-.24-0.09,1.54,1.54,0,0,0-.33,0,0.77,0.77,0,0,0-.61.27,1.09,1.09,0,0,0-.24.74,1.2,1.2,0,0,0,.22.74,0.75,0.75,0,0,0,.64.3,1.22,1.22,0,0,0,.36-0.06l0.28-.09,0,0.69a1.74,1.74,0,0,1-.37.07,3,3,0,0,1-.46,0,1.44,1.44,0,0,1-1.17-.48,1.77,1.77,0,0,1-.4-1.2,1.73,1.73,0,0,1,.4-1.18,1.42,1.42,0,0,1,1.14-.48,2.64,2.64,0,0,1,.81.11Zm-3.78-2.06h0.83v0.79H76.23V45.79Zm0,1.38h0.83v3.19H76.23V47.16Zm-1.95-.53-0.22,0a0.64,0.64,0,0,0-.22.09,0.48,0.48,0,0,0-.17.19,0.58,0.58,0,0,0-.07.3,0.32,0.32,0,0,0,.09.23,0.9,0.9,0,0,0,.22.17l0.31,0.14,0.34,0.14a2.67,2.67,0,0,1,.35.16,1.27,1.27,0,0,1,.3.24,1.17,1.17,0,0,1,.22.33,1.35,1.35,0,0,1,.08.48,1.14,1.14,0,0,1-.48,1,2.06,2.06,0,0,1-1.15.3,2.73,2.73,0,0,1-.56,0l-0.55-.12,0.08-.78a2,2,0,0,0,1,.27,1.05,1.05,0,0,0,.51-0.14,0.49,0.49,0,0,0,.18-0.69,0.71,0.71,0,0,0-.22-0.19,5.8,5.8,0,0,0-.65-0.28,2.43,2.43,0,0,1-.34-0.17A1.61,1.61,0,0,1,73,48.06a1.17,1.17,0,0,1-.22-0.33,1.09,1.09,0,0,1-.09-0.45,1.17,1.17,0,0,1,.48-1,1.85,1.85,0,0,1,1-.29,3.34,3.34,0,0,1,1,.15l-0.08.71a2.27,2.27,0,0,0-.88-0.19m-4.13,3.55a2.2,2.2,0,0,1-1.1.25,1.49,1.49,0,0,1-1.67-1.66,1.91,1.91,0,0,1,.37-1.2,1.35,1.35,0,0,1,1.11-.49,1.33,1.33,0,0,1,1.21.54A2.66,2.66,0,0,1,70.39,49H68.18a0.81,0.81,0,0,0,.28.59,0.92,0.92,0,0,0,.63.22,1.62,1.62,0,0,0,.57-0.1,2.5,2.5,0,0,0,.49-0.22v0.68ZM69.6,48.45a0.93,0.93,0,0,0-.17-0.53,0.61,0.61,0,0,0-.51-0.22,0.7,0.7,0,0,0-.53.21,0.89,0.89,0,0,0-.21.54H69.6Zm-5.79-2.74h0.83V47.6h0a1.16,1.16,0,0,1,1-.51,1,1,0,0,1,.83.35,1.49,1.49,0,0,1,.25.9v2H65.91v-1.7c0-.1,0-0.21,0-0.32A0.82,0.82,0,0,0,65.84,48a0.45,0.45,0,0,0-.16-0.23,0.55,0.55,0,0,0-.32-0.08,0.57,0.57,0,0,0-.36.11,0.83,0.83,0,0,0-.22.27,1.24,1.24,0,0,0-.11.34,1.84,1.84,0,0,0,0,.35v1.56H63.81V45.71Zm-0.68,2.14a1,1,0,0,0-.24-0.09,1.55,1.55,0,0,0-.33,0A0.77,0.77,0,0,0,62,48a1.09,1.09,0,0,0-.24.74,1.2,1.2,0,0,0,.22.74,0.75,0.75,0,0,0,.65.3,1.22,1.22,0,0,0,.36-0.06l0.28-.09,0,0.69a1.74,1.74,0,0,1-.37.07,3,3,0,0,1-.46,0,1.44,1.44,0,0,1-1.17-.48,1.77,1.77,0,0,1-.4-1.2,1.73,1.73,0,0,1,.4-1.18,1.43,1.43,0,0,1,1.14-.48,2.64,2.64,0,0,1,.81.11Zm-2.93,0-0.35-.11a2.28,2.28,0,0,0-.4,0,0.77,0.77,0,0,0-.32.07,0.3,0.3,0,0,0-.17.29,0.28,0.28,0,0,0,.23.25l0.24,0.08,0.26,0.09a1.55,1.55,0,0,1,.27.11,1.15,1.15,0,0,1,.22.17,0.78,0.78,0,0,1,.17.26,1.12,1.12,0,0,1,.06.38,0.9,0.9,0,0,1-.41.8,1.76,1.76,0,0,1-.93.24,3.65,3.65,0,0,1-.94-0.14l0-.68a1.69,1.69,0,0,0,.82.21,0.81,0.81,0,0,0,.35-0.09,0.31,0.31,0,0,0,.19-0.3,0.35,0.35,0,0,0-.06-0.2,0.42,0.42,0,0,0-.17-0.12,4.26,4.26,0,0,0-.5-0.16l-0.26-.11a0.92,0.92,0,0,1-.24-0.16,0.65,0.65,0,0,1-.16-0.25,0.81,0.81,0,0,1-.07-0.35,0.84,0.84,0,0,1,.39-0.76,1.54,1.54,0,0,1,.86-0.24,3.58,3.58,0,0,1,.51,0l0.4,0.09Zm-3.6-2h0.83v0.79H56.6V45.79Zm0,1.38h0.83v3.19H56.6V47.16Zm-2.41,0h0.74v0.73h0a1,1,0,0,1,.27-0.51,0.78,0.78,0,0,1,.6-0.29l0.25,0V48a0.83,0.83,0,0,0-.37-0.07,0.52,0.52,0,0,0-.38.14,0.79,0.79,0,0,0-.21.34,1.72,1.72,0,0,0-.07.42c0,0.14,0,.28,0,0.4v1.17H54.18V47.16Zm-0.9,3a2.2,2.2,0,0,1-1.1.25,1.49,1.49,0,0,1-1.67-1.66,1.91,1.91,0,0,1,.37-1.2A1.35,1.35,0,0,1,52,47.09a1.33,1.33,0,0,1,1.21.54A2.66,2.66,0,0,1,53.52,49H51.31a0.81,0.81,0,0,0,.28.59,0.92,0.92,0,0,0,.63.22,1.62,1.62,0,0,0,.57-0.1,2.5,2.5,0,0,0,.49-0.22v0.68Zm-0.56-1.74a0.93,0.93,0,0,0-.17-0.53A0.61,0.61,0,0,0,52,47.7a0.7,0.7,0,0,0-.53.21,0.89,0.89,0,0,0-.21.54h1.41Zm-5.24-1.28H50v0.68l-1.59,1.87h1.64v0.64H47.41V49.68L49,47.81H47.48V47.16Zm-1.57-1.38h0.83v0.79H45.91V45.79Zm0,1.38h0.83v3.19H45.91V47.16Zm-0.91,3a2.2,2.2,0,0,1-1.1.25,1.49,1.49,0,0,1-1.67-1.66,1.91,1.91,0,0,1,.37-1.2,1.35,1.35,0,0,1,1.11-.49,1.33,1.33,0,0,1,1.21.54A2.66,2.66,0,0,1,45.24,49H43a0.81,0.81,0,0,0,.28.59,0.92,0.92,0,0,0,.63.22,1.63,1.63,0,0,0,.57-0.1A2.52,2.52,0,0,0,45,49.5v0.68Zm-0.56-1.74a0.93,0.93,0,0,0-.17-0.53,0.61,0.61,0,0,0-.51-0.22,0.69,0.69,0,0,0-.53.21,0.89,0.89,0,0,0-.21.54h1.41Zm-7.87-1.28h0.87l0.72,2.36h0l0.65-2.36h1l0.69,2.36h0l0.66-2.36H42l-1,3.19H40L39.3,47.92h0L38.6,50.36H37.66Zm-3.43-1.46H34V47.6h0a1.16,1.16,0,0,1,1-.51,1,1,0,0,1,.83.35,1.48,1.48,0,0,1,.25.9v2H35.25v-1.7c0-.1,0-0.21,0-0.32A0.8,0.8,0,0,0,35.18,48,0.44,0.44,0,0,0,35,47.81a0.55,0.55,0,0,0-.32-0.08,0.57,0.57,0,0,0-.36.11,0.83,0.83,0,0,0-.22.27,1.27,1.27,0,0,0-.11.34,1.76,1.76,0,0,0,0,.35v1.56H33.15V45.71Zm-0.68,2.14a1,1,0,0,0-.24-0.09,1.54,1.54,0,0,0-.33,0,0.77,0.77,0,0,0-.61.27,1.09,1.09,0,0,0-.24.74,1.2,1.2,0,0,0,.22.74,0.75,0.75,0,0,0,.64.3,1.22,1.22,0,0,0,.36-0.06l0.28-.09,0,0.69a1.74,1.74,0,0,1-.37.07,3,3,0,0,1-.46,0,1.44,1.44,0,0,1-1.17-.48,1.77,1.77,0,0,1-.4-1.2,1.73,1.73,0,0,1,.4-1.18,1.42,1.42,0,0,1,1.14-.48,2.64,2.64,0,0,1,.81.11Zm-4-1.22-0.22,0a0.63,0.63,0,0,0-.22.09,0.49,0.49,0,0,0-.17.19,0.59,0.59,0,0,0-.07.3,0.32,0.32,0,0,0,.09.23,0.9,0.9,0,0,0,.22.17l0.31,0.14,0.34,0.14a2.73,2.73,0,0,1,.35.16,1.27,1.27,0,0,1,.3.24,1.17,1.17,0,0,1,.22.33,1.37,1.37,0,0,1,.07.48,1.14,1.14,0,0,1-.48,1,2.06,2.06,0,0,1-1.15.3,2.72,2.72,0,0,1-.56,0l-0.55-.12L27,49.48a2,2,0,0,0,1,.27,1.06,1.06,0,0,0,.52-0.14,0.46,0.46,0,0,0,.25-0.42,0.47,0.47,0,0,0-.07-0.27,0.72,0.72,0,0,0-.22-0.19,6,6,0,0,0-.65-0.28,2.43,2.43,0,0,1-.34-0.17,1.61,1.61,0,0,1-.31-0.22A1.15,1.15,0,0,1,27,47.73a1.09,1.09,0,0,1-.09-0.45,1.17,1.17,0,0,1,.48-1,1.86,1.86,0,0,1,1-.29,3.34,3.34,0,0,1,1,.15l-0.08.71a2.26,2.26,0,0,0-.88-0.19" transform="translate(-1.92 -2.01)"/><path class="cls-1" d="M27.4,7.62a1.09,1.09,0,0,0,.69-0.21,0.81,0.81,0,0,0,.28-0.67,0.65,0.65,0,0,0-.31-0.53A2.14,2.14,0,0,0,27.74,6l-0.36-.2L27,5.59a2,2,0,0,1-.32-0.25,0.87,0.87,0,0,1-.31-0.67,1,1,0,0,1,.4-0.83,1.57,1.57,0,0,1,1-.29l0.39,0a2.58,2.58,0,0,1,.45.12l-0.07.39a1.7,1.7,0,0,0-.78-0.16,1.68,1.68,0,0,0-.33,0,0.9,0.9,0,0,0-.3.13,0.65,0.65,0,0,0-.22.22,0.69,0.69,0,0,0-.09.36,0.49,0.49,0,0,0,.09.28,0.88,0.88,0,0,0,.22.23,2.33,2.33,0,0,0,.32.2l0.36,0.2a2.49,2.49,0,0,1,.68.47,1.13,1.13,0,0,1-.14,1.67,1.71,1.71,0,0,1-1,.28,2.34,2.34,0,0,1-1-.18l0-.44a1.63,1.63,0,0,0,.95.25" transform="translate(-1.92 -2.01)"/><path class="cls-1" d="M32.12,5.2A1.66,1.66,0,0,0,31.45,5a1.09,1.09,0,0,0-.87.36,1.4,1.4,0,0,0-.31.95,1.38,1.38,0,0,0,.31.92,1,1,0,0,0,.83.39,1.86,1.86,0,0,0,.71-0.14l0,0.36a2.61,2.61,0,0,1-.81.11,1.35,1.35,0,0,1-1.13-.5,1.78,1.78,0,0,1-.38-1.14,1.67,1.67,0,0,1,.43-1.19,1.48,1.48,0,0,1,1.12-.45,2.21,2.21,0,0,1,.48,0l0.17,0,0.1,0Z" transform="translate(-1.92 -2.01)"/><path class="cls-1" d="M33.29,3.3h0.39v2h0a1.11,1.11,0,0,1,.38-0.44,1.13,1.13,0,0,1,.6-0.17,0.94,0.94,0,0,1,.86.37,1.83,1.83,0,0,1,.22,1V7.92H35.35V6a3.05,3.05,0,0,0,0-.39,0.83,0.83,0,0,0-.1-0.31A0.63,0.63,0,0,0,34.61,5a0.79,0.79,0,0,0-.72.39,1.55,1.55,0,0,0-.21.81V7.92H33.29V3.3Z" transform="translate(-1.92 -2.01)"/><polygon class="cls-1" points="38.5 5.91 38.03 5.91 37.17 3.19 37.16 3.19 36.31 5.91 35.84 5.91 34.83 2.77 35.25 2.77 36.08 5.48 36.09 5.48 36.97 2.77 37.43 2.77 38.26 5.48 38.27 5.48 39.14 2.77 39.53 2.77 38.5 5.91"/><path class="cls-1" d="M44.37,6.13a1.52,1.52,0,0,0-.18-0.75A0.69,0.69,0,0,0,43.57,5a0.82,0.82,0,0,0-.67.35,1.19,1.19,0,0,0-.25.74h1.72Zm0.19,1.69a2.67,2.67,0,0,1-.91.17,1.29,1.29,0,0,1-1.1-.47,1.89,1.89,0,0,1-.33-1.17,1.87,1.87,0,0,1,.37-1.19,1.16,1.16,0,0,1,1-.46,1.1,1.1,0,0,1,1,.46,2,2,0,0,1,.29,1.09v0.2H42.65a1.31,1.31,0,0,0,.26.84,0.91,0.91,0,0,0,.77.36,1.6,1.6,0,0,0,.48-0.08,1.65,1.65,0,0,0,.4-0.15V7.82Z" transform="translate(-1.92 -2.01)"/><path class="cls-1" d="M46,7.92H46.4V4.78H46V7.92Zm0-4H46.4V3.43H46V3.94Z" transform="translate(-1.92 -2.01)"/><polygon class="cls-1" points="45.65 5.58 47.54 3.1 45.73 3.1 45.73 2.77 47.99 2.77 47.99 3.1 46.1 5.58 47.99 5.58 47.99 5.91 45.65 5.91 45.65 5.58"/><path class="cls-1" d="M53,6.13a1.52,1.52,0,0,0-.18-0.75A0.69,0.69,0,0,0,52.19,5a0.82,0.82,0,0,0-.67.35,1.19,1.19,0,0,0-.25.74H53Zm0.19,1.69a2.67,2.67,0,0,1-.91.17,1.29,1.29,0,0,1-1.1-.47,1.89,1.89,0,0,1-.33-1.17,1.87,1.87,0,0,1,.37-1.19,1.16,1.16,0,0,1,1-.46,1.1,1.1,0,0,1,1,.46,2,2,0,0,1,.29,1.09v0.2H51.26a1.31,1.31,0,0,0,.26.84,0.91,0.91,0,0,0,.77.36,1.6,1.6,0,0,0,.48-0.08,1.65,1.65,0,0,0,.4-0.15V7.82Z" transform="translate(-1.92 -2.01)"/><path class="cls-1" d="M54.63,5.48q0-.44,0-0.7H55v0.6h0a1.35,1.35,0,0,1,.31-0.47,0.69,0.69,0,0,1,.49-0.2,1.23,1.23,0,0,1,.27,0V5.15a1,1,0,0,0-.28,0,0.66,0.66,0,0,0-.37.11,0.79,0.79,0,0,0-.24.3,1.52,1.52,0,0,0-.12.4,2.36,2.36,0,0,0,0,.44V7.92H54.63V5.48Z" transform="translate(-1.92 -2.01)"/><path class="cls-1" d="M57.16,7.92h0.39V4.78H57.16V7.92Zm0-4h0.39V3.43H57.16V3.94Z" transform="translate(-1.92 -2.01)"/><path class="cls-1" d="M59.58,7.66a0.79,0.79,0,0,0,.49-0.15,0.48,0.48,0,0,0,.2-0.41,0.53,0.53,0,0,0-.23-0.44,2.76,2.76,0,0,0-.52-0.28l-0.27-.14L59,6.08a0.88,0.88,0,0,1-.17-0.23,0.59,0.59,0,0,1-.07-0.29,0.73,0.73,0,0,1,.32-0.66,1.28,1.28,0,0,1,.7-0.19l0.35,0a2.3,2.3,0,0,1,.42.12l0,0.34A1.87,1.87,0,0,0,59.84,5a0.89,0.89,0,0,0-.48.11,0.36,0.36,0,0,0-.14.15,0.53,0.53,0,0,0-.06.26,0.29,0.29,0,0,0,.07.18,0.75,0.75,0,0,0,.18.15L59.66,6l0.28,0.14a1.77,1.77,0,0,1,.53.34,0.81,0.81,0,0,1,.23.6,0.79,0.79,0,0,1-.1.41,0.87,0.87,0,0,1-.26.28,1.42,1.42,0,0,1-.73.2,2.66,2.66,0,0,1-.88-0.15l0-.38a1.76,1.76,0,0,0,.82.2" transform="translate(-1.92 -2.01)"/><path class="cls-1" d="M63.92,5.2A1.66,1.66,0,0,0,63.25,5a1.09,1.09,0,0,0-.87.36,1.4,1.4,0,0,0-.31.95,1.38,1.38,0,0,0,.31.92,1,1,0,0,0,.83.39,1.86,1.86,0,0,0,.71-0.14l0,0.36a2.61,2.61,0,0,1-.81.11A1.35,1.35,0,0,1,62,7.49a1.78,1.78,0,0,1-.38-1.14,1.67,1.67,0,0,1,.43-1.19,1.48,1.48,0,0,1,1.12-.45,2.21,2.21,0,0,1,.48,0l0.17,0,0.1,0Z" transform="translate(-1.92 -2.01)"/><path class="cls-1" d="M65.09,3.3h0.39v2h0a1.11,1.11,0,0,1,.38-0.44,1.13,1.13,0,0,1,.6-0.17,0.94,0.94,0,0,1,.86.37,1.83,1.83,0,0,1,.21,1V7.92H67.15V6a3.05,3.05,0,0,0,0-.39A0.83,0.83,0,0,0,67,5.34,0.63,0.63,0,0,0,66.41,5a0.79,0.79,0,0,0-.72.39,1.56,1.56,0,0,0-.21.81V7.92H65.09V3.3Z" transform="translate(-1.92 -2.01)"/><path class="cls-1" d="M70.91,6.13a1.52,1.52,0,0,0-.18-0.75A0.69,0.69,0,0,0,70.11,5a0.82,0.82,0,0,0-.67.35,1.19,1.19,0,0,0-.25.74h1.72ZM71.1,7.82a2.67,2.67,0,0,1-.91.17,1.29,1.29,0,0,1-1.1-.47,1.89,1.89,0,0,1-.33-1.17,1.87,1.87,0,0,1,.37-1.19,1.16,1.16,0,0,1,1-.46,1.1,1.1,0,0,1,1,.46,2,2,0,0,1,.29,1.09v0.2H69.18a1.31,1.31,0,0,0,.26.84,0.91,0.91,0,0,0,.77.36,1.6,1.6,0,0,0,.48-0.08,1.65,1.65,0,0,0,.4-0.15V7.82Z" transform="translate(-1.92 -2.01)"/><polygon class="cls-1" points="72.68 1.61 74.78 1.61 74.78 1.98 73.1 1.98 73.1 3.51 74.69 3.51 74.69 3.88 73.1 3.88 73.1 5.54 74.86 5.54 74.86 5.91 72.68 5.91 72.68 1.61"/><path class="cls-1" d="M78.11,7.92H78.5V4.78H78.11V7.92Zm0-4H78.5V3.43H78.11V3.94Z" transform="translate(-1.92 -2.01)"/><path class="cls-1" d="M80.24,6.8a1.78,1.78,0,0,0,.15.43,0.91,0.91,0,0,0,.29.3,0.73,0.73,0,0,0,.45.13,0.75,0.75,0,0,0,.44-0.13,0.91,0.91,0,0,0,.28-0.31,1.86,1.86,0,0,0,.2-0.87,2.48,2.48,0,0,0,0-.46,1.52,1.52,0,0,0-.16-0.42,1,1,0,0,0-.28-0.32A0.81,0.81,0,0,0,81.13,5a0.79,0.79,0,0,0-.45.12,0.83,0.83,0,0,0-.29.31,1.56,1.56,0,0,0-.15.42,2.55,2.55,0,0,0,0,.47,2.39,2.39,0,0,0,0,.45m2.2,1.12H82.05V7.42h0a1,1,0,0,1-1,.57,1.12,1.12,0,0,1-1-.47,2,2,0,0,1-.33-1.17,2,2,0,0,1,.3-1.18,1.12,1.12,0,0,1,1-.46,1.09,1.09,0,0,1,.41.07,0.92,0.92,0,0,1,.3.17,0.85,0.85,0,0,1,.28.36h0v-2h0.39V7.92Z" transform="translate(-1.92 -2.01)"/><path class="cls-1" d="M84.31,7.19a0.75,0.75,0,0,0,.69.39,0.81,0.81,0,0,0,.75-0.41A1.71,1.71,0,0,0,86,6.35a2,2,0,0,0-.2-0.94,0.91,0.91,0,0,0-1.18-.25,0.84,0.84,0,0,0-.29.31,1.56,1.56,0,0,0-.15.42,2.55,2.55,0,0,0,0,.47,1.58,1.58,0,0,0,.21.84m2,0.47A1.86,1.86,0,0,1,86,8.78a1.36,1.36,0,0,1-1.14.47,2.67,2.67,0,0,1-.57-0.07l-0.38-.1,0-.39a2,2,0,0,0,.92.22,1.19,1.19,0,0,0,.59-0.14,0.76,0.76,0,0,0,.33-0.34,1.47,1.47,0,0,0,.14-0.51q0-.29,0-0.62h0a1,1,0,0,1-1,.62,1.13,1.13,0,0,1-1-.53,1.52,1.52,0,0,1-.22-0.5,2,2,0,0,1-.07-0.53A2,2,0,0,1,84,5.17a1.12,1.12,0,0,1,1-.46,1.93,1.93,0,0,1,.54.07,1,1,0,0,1,.44.36h0V4.78h0.39V7.66Z" transform="translate(-1.92 -2.01)"/><path class="cls-1" d="M89.67,6.13a1.52,1.52,0,0,0-.18-0.75A0.69,0.69,0,0,0,88.87,5a0.82,0.82,0,0,0-.67.35,1.2,1.2,0,0,0-.25.74h1.72Zm0.19,1.69A2.67,2.67,0,0,1,89,8a1.29,1.29,0,0,1-1.1-.47,1.89,1.89,0,0,1-.33-1.17,1.87,1.87,0,0,1,.37-1.19,1.16,1.16,0,0,1,1-.46,1.1,1.1,0,0,1,1,.46,2,2,0,0,1,.29,1.09v0.2H87.95a1.31,1.31,0,0,0,.26.84,0.91,0.91,0,0,0,.77.36,1.6,1.6,0,0,0,.48-0.08,1.63,1.63,0,0,0,.4-0.15V7.82Z" transform="translate(-1.92 -2.01)"/><path class="cls-1" d="M91.32,5.52q0-.36,0-0.74h0.38V5.34h0l0.13-.22A0.93,0.93,0,0,1,92,4.92a0.83,0.83,0,0,1,.29-0.15,1.36,1.36,0,0,1,.41-0.05,1,1,0,0,1,.83.34,1.44,1.44,0,0,1,.24.86v2H93.38V6a1.33,1.33,0,0,0-.17-0.71A0.67,0.67,0,0,0,92.63,5a0.8,0.8,0,0,0-.73.37,1.08,1.08,0,0,0-.15.36,1.74,1.74,0,0,0,0,.41V7.92H91.32V5.52Z" transform="translate(-1.92 -2.01)"/><path class="cls-1" d="M95.67,7.27a0.88,0.88,0,0,0,.77.39,0.92,0.92,0,0,0,.78-0.39,1.55,1.55,0,0,0,.26-0.92,1.61,1.61,0,0,0-.26-0.93A0.93,0.93,0,0,0,96.44,5a0.89,0.89,0,0,0-.77.38,1.55,1.55,0,0,0-.27.93,1.5,1.5,0,0,0,.27.92M95.33,5.2a1.49,1.49,0,0,1,2.23,0,1.88,1.88,0,0,1,.35,1.14,1.89,1.89,0,0,1-.35,1.14,1.48,1.48,0,0,1-2.23,0A1.86,1.86,0,0,1,95,6.35a1.85,1.85,0,0,1,.36-1.14" transform="translate(-1.92 -2.01)"/><path class="cls-1" d="M99.7,7.66a0.79,0.79,0,0,0,.49-0.15,0.48,0.48,0,0,0,.2-0.41,0.53,0.53,0,0,0-.23-0.44,2.73,2.73,0,0,0-.52-0.28l-0.27-.14-0.25-.17A0.86,0.86,0,0,1,99,5.85a0.59,0.59,0,0,1-.07-0.29A0.73,0.73,0,0,1,99.2,4.9a1.29,1.29,0,0,1,.7-0.19l0.35,0a2.28,2.28,0,0,1,.42.12l0,0.34A1.88,1.88,0,0,0,99.95,5a0.9,0.9,0,0,0-.48.11,0.37,0.37,0,0,0-.14.15,0.53,0.53,0,0,0-.06.26,0.29,0.29,0,0,0,.07.18,0.73,0.73,0,0,0,.18.15L99.77,6,100,6.16a1.77,1.77,0,0,1,.53.34,0.89,0.89,0,0,1,.14,1,0.88,0.88,0,0,1-.26.28,1.42,1.42,0,0,1-.73.2,2.67,2.67,0,0,1-.88-0.15l0-.38a1.76,1.76,0,0,0,.82.2" transform="translate(-1.92 -2.01)"/><path class="cls-1" d="M102.57,7.66a0.79,0.79,0,0,0,.49-0.15,0.49,0.49,0,0,0,.2-0.41A0.53,0.53,0,0,0,103,6.66a2.72,2.72,0,0,0-.52-0.28l-0.27-.14L102,6.08a0.86,0.86,0,0,1-.17-0.23,0.59,0.59,0,0,1-.07-0.29,0.74,0.74,0,0,1,.32-0.66,1.29,1.29,0,0,1,.7-0.19l0.35,0a2.27,2.27,0,0,1,.42.12l0,0.34A1.87,1.87,0,0,0,102.82,5a0.89,0.89,0,0,0-.48.11,0.37,0.37,0,0,0-.14.15,0.53,0.53,0,0,0-.06.26,0.29,0.29,0,0,0,.07.18,0.73,0.73,0,0,0,.18.15L102.64,6l0.28,0.14a1.78,1.78,0,0,1,.54.34,0.8,0.8,0,0,1,.23.6,0.79,0.79,0,0,1-.1.41,0.87,0.87,0,0,1-.26.28,1.43,1.43,0,0,1-.73.2,2.66,2.66,0,0,1-.88-0.15l0-.38a1.76,1.76,0,0,0,.82.2" transform="translate(-1.92 -2.01)"/><path class="cls-1" d="M106.78,6.13a1.52,1.52,0,0,0-.18-0.75A0.69,0.69,0,0,0,106,5a0.82,0.82,0,0,0-.67.35,1.19,1.19,0,0,0-.25.74h1.72ZM107,7.82a2.66,2.66,0,0,1-.91.17,1.29,1.29,0,0,1-1.1-.47,1.89,1.89,0,0,1-.33-1.17A1.88,1.88,0,0,1,105,5.16a1.16,1.16,0,0,1,1-.46,1.1,1.1,0,0,1,1,.46,2,2,0,0,1,.29,1.09v0.2h-2.15a1.31,1.31,0,0,0,.26.84,0.91,0.91,0,0,0,.77.36,1.6,1.6,0,0,0,.48-0.08,1.62,1.62,0,0,0,.4-0.15V7.82Z" transform="translate(-1.92 -2.01)"/><path class="cls-1" d="M108.42,5.52q0-.36,0-0.74h0.38V5.34h0a2.23,2.23,0,0,1,.13-0.22,1,1,0,0,1,.18-0.2,0.84,0.84,0,0,1,.29-0.15,1.35,1.35,0,0,1,.41-0.05,1,1,0,0,1,.83.34,1.43,1.43,0,0,1,.24.86v2h-0.39V6a1.32,1.32,0,0,0-.17-0.71A0.67,0.67,0,0,0,109.74,5a0.8,0.8,0,0,0-.73.37,1.06,1.06,0,0,0-.15.36,1.74,1.74,0,0,0,0,.41V7.92h-0.39V5.52Z" transform="translate(-1.92 -2.01)"/><path class="cls-1" d="M112.9,7.66a0.79,0.79,0,0,0,.49-0.15,0.48,0.48,0,0,0,.2-0.41,0.53,0.53,0,0,0-.23-0.44,2.73,2.73,0,0,0-.52-0.28l-0.27-.14-0.25-.17a0.86,0.86,0,0,1-.17-0.23,0.59,0.59,0,0,1-.07-0.29,0.73,0.73,0,0,1,.32-0.66,1.29,1.29,0,0,1,.7-0.19l0.35,0a2.31,2.31,0,0,1,.42.12l0,0.34A1.88,1.88,0,0,0,113.15,5a0.9,0.9,0,0,0-.48.11,0.37,0.37,0,0,0-.14.15,0.53,0.53,0,0,0-.06.26,0.29,0.29,0,0,0,.07.18,0.73,0.73,0,0,0,.18.15L113,6l0.28,0.14a1.77,1.77,0,0,1,.53.34,0.89,0.89,0,0,1,.14,1,0.88,0.88,0,0,1-.26.28,1.42,1.42,0,0,1-.73.2A2.67,2.67,0,0,1,112,7.84l0-.38a1.76,1.76,0,0,0,.82.2" transform="translate(-1.92 -2.01)"/><path class="cls-1" d="M117.24,5.2A1.66,1.66,0,0,0,116.57,5a1.09,1.09,0,0,0-.87.36,1.4,1.4,0,0,0-.31.95,1.38,1.38,0,0,0,.31.92,1,1,0,0,0,.83.39,1.85,1.85,0,0,0,.71-0.14l0,0.36a2.6,2.6,0,0,1-.81.11,1.35,1.35,0,0,1-1.13-.5A1.78,1.78,0,0,1,115,6.35a1.67,1.67,0,0,1,.43-1.19,1.48,1.48,0,0,1,1.12-.45,2.22,2.22,0,0,1,.48,0l0.17,0,0.1,0Z" transform="translate(-1.92 -2.01)"/><path class="cls-1" d="M118.41,3.3h0.39v2h0a1.12,1.12,0,0,1,.38-0.44,1.14,1.14,0,0,1,.6-0.17,0.94,0.94,0,0,1,.86.37,1.83,1.83,0,0,1,.21,1V7.92h-0.39V6a3.24,3.24,0,0,0,0-.39,0.85,0.85,0,0,0-.1-0.31,0.63,0.63,0,0,0-.62-0.3,0.79,0.79,0,0,0-.72.39,1.56,1.56,0,0,0-.21.81V7.92h-0.39V3.3Z" transform="translate(-1.92 -2.01)"/><path class="cls-1" d="M124.07,6.34h-0.61a1.84,1.84,0,0,0-.48.1,0.77,0.77,0,0,0-.35.23,0.59,0.59,0,0,0-.14.41,0.47,0.47,0,0,0,.2.43,0.74,0.74,0,0,0,.46.14,0.93,0.93,0,0,0,.54-0.14A0.81,0.81,0,0,0,124,7.22a1,1,0,0,0,.11-0.38c0-.13,0-0.23,0-0.31V6.34Zm0,1.08h0a0.94,0.94,0,0,1-.41.42,1.27,1.27,0,0,1-1.11,0,0.79,0.79,0,0,1-.32-0.23,1,1,0,0,1-.19-0.55,0.94,0.94,0,0,1,.19-0.62,1,1,0,0,1,.47-0.33A2.52,2.52,0,0,1,123.36,6L124,6h0.07V5.84A0.66,0.66,0,0,0,123.36,5a1.72,1.72,0,0,0-.92.26V4.92a2.32,2.32,0,0,1,.92-0.22,1,1,0,0,1,1.1,1.17V7.26a4.71,4.71,0,0,0,0,.66h-0.38V7.41Z" transform="translate(-1.92 -2.01)"/><path class="cls-1" d="M126.13,5.11H125.5V4.78h0.63V4.55c0-.17,0-0.33,0-0.49a1.22,1.22,0,0,1,.09-0.42,0.66,0.66,0,0,1,.25-0.3A0.83,0.83,0,0,1,127,3.23h0.2a0.43,0.43,0,0,1,.16.06l0,0.33A0.71,0.71,0,0,0,127,3.56a0.43,0.43,0,0,0-.29.09,0.51,0.51,0,0,0-.14.24,1.22,1.22,0,0,0,0,.3c0,0.11,0,.22,0,0.32V4.78h0.71V5.11h-0.71V7.92h-0.39V5.11Z" transform="translate(-1.92 -2.01)"/><path class="cls-1" d="M129.75,5.11H129v2a0.64,0.64,0,0,0,.1.36,0.34,0.34,0,0,0,.32.15,0.79,0.79,0,0,0,.36-0.07l0,0.32L129.64,8a1.2,1.2,0,0,1-.28,0,0.8,0.8,0,0,1-.4-0.09,0.57,0.57,0,0,1-.22-0.23,1.15,1.15,0,0,1-.08-0.33,3.82,3.82,0,0,1,0-.4V5.11H128V4.78h0.61V4L129,3.89V4.78h0.71V5.11Z" transform="translate(-1.92 -2.01)"/><path class="cls-1" d="M29,12.44l-0.5,0a1.66,1.66,0,0,0-1.29.52,1.92,1.92,0,0,0-.46,1.33,1.92,1.92,0,0,0,.45,1.33,1.63,1.63,0,0,0,1.29.52,3.24,3.24,0,0,0,.5,0,1.31,1.31,0,0,0,.46-0.14l0,0.37a1.56,1.56,0,0,1-.47.14,3.6,3.6,0,0,1-.51,0,2.11,2.11,0,0,1-1.59-.61,2.21,2.21,0,0,1-.58-1.61,2.26,2.26,0,0,1,.58-1.61A2.11,2.11,0,0,1,28.51,12l0.51,0a1.43,1.43,0,0,1,.47.13l0,0.39A1.54,1.54,0,0,0,29,12.44" transform="translate(-1.92 -2.01)"/><path class="cls-1" d="M31.36,15.76a0.88,0.88,0,0,0,.77.39,0.91,0.91,0,0,0,.78-0.39,1.55,1.55,0,0,0,.26-0.92,1.61,1.61,0,0,0-.26-0.93,0.93,0.93,0,0,0-.78-0.37,0.89,0.89,0,0,0-.77.38,1.55,1.55,0,0,0-.27.93,1.5,1.5,0,0,0,.27.92M31,13.69a1.31,1.31,0,0,1,1.11-.5,1.33,1.33,0,0,1,1.12.5,2.06,2.06,0,0,1,0,2.28,1.32,1.32,0,0,1-1.12.51A1.3,1.3,0,0,1,31,16a2,2,0,0,1,0-2.28" transform="translate(-1.92 -2.01)"/><path class="cls-1" d="M34.81,14q0-.36,0-0.74h0.38v0.56h0l0.13-.22a0.93,0.93,0,0,1,.19-0.2,0.84,0.84,0,0,1,.29-0.15,1.35,1.35,0,0,1,.41-0.05,1,1,0,0,1,.83.34,1.44,1.44,0,0,1,.24.86v2H36.87V14.5a1.33,1.33,0,0,0-.17-0.71,0.67,0.67,0,0,0-.58-0.26,0.79,0.79,0,0,0-.73.37,1.06,1.06,0,0,0-.15.36,1.74,1.74,0,0,0,0,.41v1.74H34.81V14Z" transform="translate(-1.92 -2.01)"/><path class="cls-1" d="M39,13.6H38.34V13.27H39V13q0-.25,0-0.49a1.24,1.24,0,0,1,.09-0.42,0.65,0.65,0,0,1,.25-0.3,0.82,0.82,0,0,1,.46-0.11H40a0.44,0.44,0,0,1,.16.06l0,0.33A0.71,0.71,0,0,0,39.83,12a0.42,0.42,0,0,0-.29.09,0.49,0.49,0,0,0-.14.24,1.17,1.17,0,0,0,0,.3c0,0.11,0,.22,0,0.32v0.27h0.71V13.6H39.36V16.4H39V13.6Z" transform="translate(-1.92 -2.01)"/><path class="cls-1" d="M42.52,12H43l-0.78.89H42Zm0.63,2.58A1.52,1.52,0,0,0,43,13.86a0.69,0.69,0,0,0-.62-0.34,0.82,0.82,0,0,0-.67.35,1.2,1.2,0,0,0-.25.74h1.72Zm0.19,1.69a2.66,2.66,0,0,1-.91.17,1.29,1.29,0,0,1-1.1-.47A1.89,1.89,0,0,1,41,14.84a1.87,1.87,0,0,1,.37-1.19,1.16,1.16,0,0,1,1-.46,1.1,1.1,0,0,1,1,.46,2,2,0,0,1,.29,1.09v0.2H41.43a1.31,1.31,0,0,0,.26.84,0.91,0.91,0,0,0,.77.36,1.6,1.6,0,0,0,.48-0.08,1.66,1.66,0,0,0,.4-0.15v0.39Z" transform="translate(-1.92 -2.01)"/><path class="cls-1" d="M45.08,15.28a1.78,1.78,0,0,0,.15.43,0.91,0.91,0,0,0,.29.3,0.73,0.73,0,0,0,.45.13A0.75,0.75,0,0,0,46.4,16a0.91,0.91,0,0,0,.28-0.31,1.86,1.86,0,0,0,.2-0.87,2.5,2.5,0,0,0,0-.46A1.53,1.53,0,0,0,46.69,14a1,1,0,0,0-.28-0.32A0.81,0.81,0,0,0,46,13.52a0.79,0.79,0,0,0-.45.12,0.83,0.83,0,0,0-.29.31,1.56,1.56,0,0,0-.15.42,2.55,2.55,0,0,0,0,.47,2.39,2.39,0,0,0,0,.45m2.2,1.12H46.89v-0.5h0a1,1,0,0,1-1,.57,1.12,1.12,0,0,1-1-.47,2,2,0,0,1-.33-1.17,2,2,0,0,1,.3-1.18,1.12,1.12,0,0,1,1-.46,1.09,1.09,0,0,1,.41.07,0.92,0.92,0,0,1,.3.17,0.85,0.85,0,0,1,.28.36h0v-2h0.39V16.4Z" transform="translate(-1.92 -2.01)"/><path class="cls-1" d="M50,12h0.49l-0.78.89H49.41Zm0.63,2.58a1.52,1.52,0,0,0-.18-0.75,0.69,0.69,0,0,0-.62-0.34,0.82,0.82,0,0,0-.67.35,1.2,1.2,0,0,0-.25.74h1.72Zm0.19,1.69a2.66,2.66,0,0,1-.91.17,1.29,1.29,0,0,1-1.1-.47,1.89,1.89,0,0,1-.33-1.17,1.88,1.88,0,0,1,.37-1.19,1.16,1.16,0,0,1,1-.46,1.1,1.1,0,0,1,1,.46A2,2,0,0,1,51,14.75v0.2H48.88a1.31,1.31,0,0,0,.26.84,0.91,0.91,0,0,0,.77.36,1.6,1.6,0,0,0,.48-0.08,1.66,1.66,0,0,0,.4-0.15v0.39Z" transform="translate(-1.92 -2.01)"/><path class="cls-1" d="M52.25,14q0-.44,0-0.7h0.39v0.6h0a1.35,1.35,0,0,1,.31-0.47,0.69,0.69,0,0,1,.49-0.2,1.23,1.23,0,0,1,.27,0v0.41a1,1,0,0,0-.28,0,0.66,0.66,0,0,0-.37.11,0.79,0.79,0,0,0-.24.3,1.55,1.55,0,0,0-.12.4,2.36,2.36,0,0,0,0,.44V16.4H52.25V14Z" transform="translate(-1.92 -2.01)"/><path class="cls-1" d="M56.55,14.82H55.93a1.82,1.82,0,0,0-.48.1,0.76,0.76,0,0,0-.35.23,0.59,0.59,0,0,0-.14.41,0.47,0.47,0,0,0,.2.43,0.74,0.74,0,0,0,.45.14A0.93,0.93,0,0,0,56.15,16a0.79,0.79,0,0,0,.28-0.31,1,1,0,0,0,.1-0.38c0-.13,0-0.23,0-0.31V14.82Zm0,1.08h0a0.93,0.93,0,0,1-.41.42,1.27,1.27,0,0,1-1.11,0,0.79,0.79,0,0,1-.32-0.23,1,1,0,0,1-.19-0.55A0.93,0.93,0,0,1,54.73,15a1,1,0,0,1,.47-0.33,2.56,2.56,0,0,1,.63-0.14l0.64,0h0.07V14.33a0.66,0.66,0,0,0-.71-0.81,1.71,1.71,0,0,0-.92.26V13.41a2.31,2.31,0,0,1,.92-0.22,1,1,0,0,1,1.1,1.17v1.38a4.72,4.72,0,0,0,0,.66H56.58V15.9Z" transform="translate(-1.92 -2.01)"/><path class="cls-1" d="M59.69,13.6H59v2a0.64,0.64,0,0,0,.1.36,0.34,0.34,0,0,0,.32.15,0.8,0.8,0,0,0,.36-0.07l0,0.32-0.19.06a1.21,1.21,0,0,1-.28,0,0.8,0.8,0,0,1-.4-0.09,0.58,0.58,0,0,1-.22-0.23,1.15,1.15,0,0,1-.08-0.33c0-.12,0-0.26,0-0.4V13.6H58V13.27h0.62V12.51L59,12.37v0.89h0.71V13.6Z" transform="translate(-1.92 -2.01)"/><path class="cls-1" d="M60.86,16.4h0.39V13.27H60.86V16.4Zm0-4h0.39V11.91H60.86v0.52Z" transform="translate(-1.92 -2.01)"/><path class="cls-1" d="M63.17,15.76a0.88,0.88,0,0,0,.77.39,0.91,0.91,0,0,0,.78-0.39A1.55,1.55,0,0,0,65,14.84a1.61,1.61,0,0,0-.26-0.93,0.93,0.93,0,0,0-.78-0.37,0.89,0.89,0,0,0-.77.38,1.55,1.55,0,0,0-.27.93,1.5,1.5,0,0,0,.27.92m-0.34-2.07a1.31,1.31,0,0,1,1.11-.5,1.33,1.33,0,0,1,1.12.5,2.06,2.06,0,0,1,0,2.28,1.32,1.32,0,0,1-1.12.51A1.3,1.3,0,0,1,62.83,16a2,2,0,0,1,0-2.28" transform="translate(-1.92 -2.01)"/><path class="cls-1" d="M66.61,14q0-.36,0-0.74H67v0.56h0l0.13-.22a0.93,0.93,0,0,1,.18-0.2,0.84,0.84,0,0,1,.29-0.15A1.35,1.35,0,0,1,68,13.19a1,1,0,0,1,.83.34,1.44,1.44,0,0,1,.24.86v2H68.67V14.5a1.33,1.33,0,0,0-.17-0.71,0.67,0.67,0,0,0-.58-0.26,0.79,0.79,0,0,0-.73.37,1.06,1.06,0,0,0-.15.36,1.74,1.74,0,0,0,0,.41v1.74H66.61V14Z" transform="translate(-1.92 -2.01)"/><path class="cls-1" d="M73.22,16.15A0.79,0.79,0,0,0,73.71,16a0.48,0.48,0,0,0,.2-0.41,0.53,0.53,0,0,0-.23-0.44,2.76,2.76,0,0,0-.52-0.28l-0.27-.14-0.25-.17a0.88,0.88,0,0,1-.17-0.23A0.59,0.59,0,0,1,72.41,14a0.74,0.74,0,0,1,.32-0.66,1.28,1.28,0,0,1,.7-0.19l0.35,0a2.3,2.3,0,0,1,.42.12l0,0.34a1.87,1.87,0,0,0-.69-0.15,0.9,0.9,0,0,0-.48.11,0.36,0.36,0,0,0-.14.15,0.53,0.53,0,0,0-.06.26,0.29,0.29,0,0,0,.07.18,0.74,0.74,0,0,0,.18.15l0.25,0.13,0.28,0.14a1.77,1.77,0,0,1,.53.34,0.81,0.81,0,0,1,.23.6,0.79,0.79,0,0,1-.1.41,0.87,0.87,0,0,1-.26.28,1.42,1.42,0,0,1-.73.2,2.66,2.66,0,0,1-.88-0.15l0-.38a1.76,1.76,0,0,0,.82.2" transform="translate(-1.92 -2.01)"/><path class="cls-1" d="M78,15.67q0,0.36,0,.74H77.61V15.85h0a1.07,1.07,0,0,1-.12.21,1,1,0,0,1-.19.21,0.89,0.89,0,0,1-.29.15,1.13,1.13,0,0,1-.42.07,1,1,0,0,1-.82-0.34,1.36,1.36,0,0,1-.25-0.86v-2H75.9v1.91a1.2,1.2,0,0,0,.18.7,0.62,0.62,0,0,0,.57.27A0.86,0.86,0,0,0,77.1,16a0.74,0.74,0,0,0,.28-0.27,1.11,1.11,0,0,0,.16-0.37,1.88,1.88,0,0,0,0-.39V13.27H78v2.4Z" transform="translate(-1.92 -2.01)"/><path class="cls-1" d="M79.42,16.4H79.8V13.27H79.42V16.4Zm0-4H79.8V11.91H79.42v0.52Z" transform="translate(-1.92 -2.01)"/><path class="cls-1" d="M81.84,16.15A0.79,0.79,0,0,0,82.33,16a0.48,0.48,0,0,0,.2-0.41,0.53,0.53,0,0,0-.23-0.44,2.76,2.76,0,0,0-.52-0.28l-0.27-.14-0.25-.17a0.88,0.88,0,0,1-.17-0.23A0.59,0.59,0,0,1,81,14a0.74,0.74,0,0,1,.32-0.66,1.28,1.28,0,0,1,.7-0.19l0.35,0a2.3,2.3,0,0,1,.42.12l0,0.34a1.87,1.87,0,0,0-.69-0.15,0.9,0.9,0,0,0-.48.11,0.36,0.36,0,0,0-.14.15,0.53,0.53,0,0,0-.06.26,0.29,0.29,0,0,0,.07.18,0.74,0.74,0,0,0,.18.15l0.25,0.13,0.28,0.14a1.77,1.77,0,0,1,.53.34,0.81,0.81,0,0,1,.23.6,0.79,0.79,0,0,1-.1.41,0.87,0.87,0,0,1-.26.28,1.42,1.42,0,0,1-.73.2A2.66,2.66,0,0,1,81,16.33l0-.38a1.76,1.76,0,0,0,.82.2" transform="translate(-1.92 -2.01)"/><path class="cls-1" d="M84.71,16.15A0.79,0.79,0,0,0,85.21,16a0.48,0.48,0,0,0,.2-0.41,0.53,0.53,0,0,0-.23-0.44,2.72,2.72,0,0,0-.52-0.28l-0.27-.14-0.25-.17A0.86,0.86,0,0,1,84,14.34,0.59,0.59,0,0,1,83.9,14a0.74,0.74,0,0,1,.32-0.66,1.29,1.29,0,0,1,.7-0.19l0.35,0a2.27,2.27,0,0,1,.42.12l0,0.34A1.87,1.87,0,0,0,85,13.53a0.9,0.9,0,0,0-.48.11,0.36,0.36,0,0,0-.14.15,0.52,0.52,0,0,0-.06.26,0.29,0.29,0,0,0,.07.18,0.73,0.73,0,0,0,.18.15l0.25,0.13,0.28,0.14a1.77,1.77,0,0,1,.53.34,0.81,0.81,0,0,1,.23.6,0.79,0.79,0,0,1-.1.41,0.87,0.87,0,0,1-.26.28,1.43,1.43,0,0,1-.73.2,2.66,2.66,0,0,1-.88-0.15l0-.38a1.76,1.76,0,0,0,.82.2" transform="translate(-1.92 -2.01)"/><path class="cls-1" d="M88.92,14.61a1.52,1.52,0,0,0-.18-0.75,0.69,0.69,0,0,0-.62-0.34,0.82,0.82,0,0,0-.67.35,1.2,1.2,0,0,0-.25.74h1.72Zm0.19,1.69a2.67,2.67,0,0,1-.91.17A1.29,1.29,0,0,1,87.1,16a1.89,1.89,0,0,1-.33-1.17,1.88,1.88,0,0,1,.37-1.19,1.16,1.16,0,0,1,1-.46,1.1,1.1,0,0,1,1,.46,2,2,0,0,1,.29,1.09v0.2H87.2a1.31,1.31,0,0,0,.26.84,0.91,0.91,0,0,0,.77.36,1.6,1.6,0,0,0,.48-0.08,1.63,1.63,0,0,0,.4-0.15v0.39Z" transform="translate(-1.92 -2.01)"/><path class="cls-1" d="M29,20.92l-0.5,0a1.66,1.66,0,0,0-1.29.52,2.18,2.18,0,0,0,0,2.66,1.63,1.63,0,0,0,1.29.52,3.24,3.24,0,0,0,.5,0,1.31,1.31,0,0,0,.46-0.14l0,0.37a1.53,1.53,0,0,1-.47.14,3.6,3.6,0,0,1-.51,0,2.11,2.11,0,0,1-1.59-.61,2.21,2.21,0,0,1-.58-1.61,2.26,2.26,0,0,1,.58-1.61,2.11,2.11,0,0,1,1.58-.61l0.51,0a1.43,1.43,0,0,1,.47.13l0,0.39A1.54,1.54,0,0,0,29,20.92" transform="translate(-1.92 -2.01)"/><path class="cls-1" d="M31.36,24.25a0.88,0.88,0,0,0,.77.39,0.91,0.91,0,0,0,.78-0.39,1.55,1.55,0,0,0,.26-0.92,1.61,1.61,0,0,0-.26-0.93A0.93,0.93,0,0,0,32.13,22a0.89,0.89,0,0,0-.77.38,1.55,1.55,0,0,0-.27.93,1.5,1.5,0,0,0,.27.92M31,22.18a1.31,1.31,0,0,1,1.11-.5,1.33,1.33,0,0,1,1.12.5,2.06,2.06,0,0,1,0,2.28,1.32,1.32,0,0,1-1.12.51A1.3,1.3,0,0,1,31,24.46a2,2,0,0,1,0-2.28" transform="translate(-1.92 -2.01)"/><path class="cls-1" d="M34.81,22.49q0-.36,0-0.74h0.38v0.56h0l0.13-.22a0.93,0.93,0,0,1,.19-0.2,0.84,0.84,0,0,1,.29-0.15,1.35,1.35,0,0,1,.41-0.05A1,1,0,0,1,37,22a1.44,1.44,0,0,1,.24.86v2H36.87V23a1.33,1.33,0,0,0-.17-0.71A0.67,0.67,0,0,0,36.12,22a0.79,0.79,0,0,0-.73.37,1.06,1.06,0,0,0-.15.36,1.74,1.74,0,0,0,0,.41v1.74H34.81v-2.4Z" transform="translate(-1.92 -2.01)"/><path class="cls-1" d="M39,22.09H38.34V21.75H39V21.53q0-.25,0-0.49a1.24,1.24,0,0,1,.09-0.42,0.65,0.65,0,0,1,.25-0.3,0.82,0.82,0,0,1,.46-0.11H40a0.44,0.44,0,0,1,.16.06l0,0.33a0.71,0.71,0,0,0-.31-0.06,0.42,0.42,0,0,0-.29.09,0.49,0.49,0,0,0-.14.24,1.17,1.17,0,0,0,0,.3c0,0.11,0,.22,0,0.32v0.27h0.71v0.33H39.36v2.81H39V22.09Z" transform="translate(-1.92 -2.01)"/><path class="cls-1" d="M43.15,23.1A1.52,1.52,0,0,0,43,22.35,0.69,0.69,0,0,0,42.35,22a0.82,0.82,0,0,0-.67.35,1.19,1.19,0,0,0-.25.74h1.72Zm0.19,1.69a2.67,2.67,0,0,1-.91.17,1.29,1.29,0,0,1-1.1-.47,2.17,2.17,0,0,1,0-2.36,1.16,1.16,0,0,1,1-.46,1.1,1.1,0,0,1,1,.46,2,2,0,0,1,.29,1.09v0.2H41.43a1.31,1.31,0,0,0,.26.84,0.91,0.91,0,0,0,.77.36,1.6,1.6,0,0,0,.48-0.08,1.65,1.65,0,0,0,.4-0.15v0.39Z" transform="translate(-1.92 -2.01)"/><path class="cls-1" d="M45.08,23.77a1.78,1.78,0,0,0,.15.43,0.91,0.91,0,0,0,.29.3,0.73,0.73,0,0,0,.45.13,0.75,0.75,0,0,0,.44-0.13,0.91,0.91,0,0,0,.28-0.31,1.86,1.86,0,0,0,.2-0.87,2.5,2.5,0,0,0,0-.46,1.53,1.53,0,0,0-.16-0.42,1,1,0,0,0-.28-0.32A0.81,0.81,0,0,0,46,22a0.79,0.79,0,0,0-.45.12,0.83,0.83,0,0,0-.29.31,1.56,1.56,0,0,0-.15.42,2.55,2.55,0,0,0,0,.47,2.39,2.39,0,0,0,0,.45m2.2,1.12H46.89v-0.5h0a1,1,0,0,1-1,.57,1.12,1.12,0,0,1-1-.47,2,2,0,0,1-.33-1.17,2,2,0,0,1,.3-1.18,1.12,1.12,0,0,1,1-.46,1.09,1.09,0,0,1,.41.07,0.92,0.92,0,0,1,.3.17,0.85,0.85,0,0,1,.28.36h0v-2h0.39v4.61Z" transform="translate(-1.92 -2.01)"/><path class="cls-1" d="M50.61,23.1a1.52,1.52,0,0,0-.18-0.75A0.69,0.69,0,0,0,49.81,22a0.82,0.82,0,0,0-.67.35,1.19,1.19,0,0,0-.25.74h1.72Zm0.19,1.69a2.67,2.67,0,0,1-.91.17,1.29,1.29,0,0,1-1.1-.47,2.17,2.17,0,0,1,0-2.36,1.16,1.16,0,0,1,1-.46,1.1,1.1,0,0,1,1,.46A2,2,0,0,1,51,23.24v0.2H48.88a1.31,1.31,0,0,0,.26.84,0.91,0.91,0,0,0,.77.36,1.6,1.6,0,0,0,.48-0.08,1.65,1.65,0,0,0,.4-0.15v0.39Z" transform="translate(-1.92 -2.01)"/><path class="cls-1" d="M52.25,22.46q0-.44,0-0.7h0.39v0.6h0a1.35,1.35,0,0,1,.31-0.47,0.69,0.69,0,0,1,.49-0.2,1.23,1.23,0,0,1,.27,0v0.41a1,1,0,0,0-.28,0,0.66,0.66,0,0,0-.37.11,0.79,0.79,0,0,0-.24.3,1.55,1.55,0,0,0-.12.4,2.36,2.36,0,0,0,0,.44v1.55H52.25V22.46Z" transform="translate(-1.92 -2.01)"/><path class="cls-1" d="M56.55,23.31H55.93a1.82,1.82,0,0,0-.48.1,0.76,0.76,0,0,0-.35.23,0.59,0.59,0,0,0-.14.41,0.47,0.47,0,0,0,.2.43,0.74,0.74,0,0,0,.45.14,0.93,0.93,0,0,0,.53-0.14,0.8,0.8,0,0,0,.28-0.31,1,1,0,0,0,.1-0.38c0-.13,0-0.23,0-0.31V23.31Zm0,1.08h0a0.93,0.93,0,0,1-.41.42,1.29,1.29,0,0,1-.58.15,1.26,1.26,0,0,1-.53-0.1,0.79,0.79,0,0,1-.32-0.23,1,1,0,0,1-.19-0.55,0.93,0.93,0,0,1,.19-0.62,1,1,0,0,1,.47-0.33A2.56,2.56,0,0,1,55.83,23l0.64,0h0.07V22.82A0.66,0.66,0,0,0,55.83,22a1.71,1.71,0,0,0-.92.26V21.9a2.31,2.31,0,0,1,.92-0.22,1,1,0,0,1,1.1,1.17v1.38a4.72,4.72,0,0,0,0,.66H56.58v-0.5Z" transform="translate(-1.92 -2.01)"/><polygon class="cls-1" points="56.13 22.56 58.01 20.08 56.2 20.08 56.2 19.74 58.46 19.74 58.46 20.08 56.57 22.55 58.46 22.55 58.46 22.88 56.13 22.88 56.13 22.56"/><path class="cls-1" d="M61.55,24.89h0.39V21.75H61.55v3.14Zm0-4h0.39V20.4H61.55v0.52Z" transform="translate(-1.92 -2.01)"/><path class="cls-1" d="M63.85,24.25a0.88,0.88,0,0,0,.77.39,0.91,0.91,0,0,0,.78-0.39,1.55,1.55,0,0,0,.26-0.92,1.61,1.61,0,0,0-.26-0.93A0.93,0.93,0,0,0,64.62,22a0.89,0.89,0,0,0-.77.38,1.55,1.55,0,0,0-.27.93,1.5,1.5,0,0,0,.27.92m-0.34-2.07a1.31,1.31,0,0,1,1.11-.5,1.33,1.33,0,0,1,1.12.5,2.06,2.06,0,0,1,0,2.28,1.32,1.32,0,0,1-1.12.51,1.3,1.3,0,0,1-1.11-.51,2,2,0,0,1,0-2.28" transform="translate(-1.92 -2.01)"/><path class="cls-1" d="M67.29,22.49q0-.36,0-0.74h0.38v0.56h0l0.13-.22a0.93,0.93,0,0,1,.18-0.2,0.84,0.84,0,0,1,.29-0.15,1.35,1.35,0,0,1,.41-0.05,1,1,0,0,1,.83.34,1.44,1.44,0,0,1,.24.86v2H69.35V23a1.33,1.33,0,0,0-.17-0.71A0.67,0.67,0,0,0,68.61,22a0.79,0.79,0,0,0-.73.37,1.06,1.06,0,0,0-.15.36,1.74,1.74,0,0,0,0,.41v1.74H67.29v-2.4Z" transform="translate(-1.92 -2.01)"/><path class="cls-1" d="M73.11,23.1a1.52,1.52,0,0,0-.18-0.75A0.69,0.69,0,0,0,72.31,22a0.82,0.82,0,0,0-.67.35,1.19,1.19,0,0,0-.25.74h1.72Zm0.19,1.69a2.67,2.67,0,0,1-.91.17,1.29,1.29,0,0,1-1.1-.47,2.17,2.17,0,0,1,0-2.36,1.16,1.16,0,0,1,1-.46,1.1,1.1,0,0,1,1,.46,2,2,0,0,1,.29,1.09v0.2H71.39a1.31,1.31,0,0,0,.26.84,0.91,0.91,0,0,0,.77.36,1.6,1.6,0,0,0,.48-0.08,1.65,1.65,0,0,0,.4-0.15v0.39Z" transform="translate(-1.92 -2.01)"/><path class="cls-1" d="M77.75,24.6a1.09,1.09,0,0,0,.69-0.21,0.81,0.81,0,0,0,.28-0.67,0.65,0.65,0,0,0-.31-0.53A2.14,2.14,0,0,0,78.1,23l-0.36-.2-0.36-.22a2,2,0,0,1-.32-0.25,0.87,0.87,0,0,1-.31-0.67,1,1,0,0,1,.4-0.83,1.57,1.57,0,0,1,1-.29l0.39,0a2.58,2.58,0,0,1,.45.12l-0.07.39a1.7,1.7,0,0,0-.78-0.16,1.68,1.68,0,0,0-.33,0,0.93,0.93,0,0,0-.3.13,0.65,0.65,0,0,0-.22.22,0.69,0.69,0,0,0-.09.36,0.49,0.49,0,0,0,.09.28,0.87,0.87,0,0,0,.22.23,2.33,2.33,0,0,0,.32.2l0.36,0.2a2.49,2.49,0,0,1,.68.47,1.13,1.13,0,0,1-.14,1.67,1.71,1.71,0,0,1-1,.28,2.32,2.32,0,0,1-1-.18l0-.44a1.62,1.62,0,0,0,.95.25" transform="translate(-1.92 -2.01)"/><polygon class="cls-1" points="79.61 22.88 79.15 22.88 78.09 19.74 78.51 19.74 79.38 22.46 79.39 22.46 80.3 19.74 80.71 19.74 79.61 22.88"/><path class="cls-1" d="M83.65,24.89H84V21.75H83.65v3.14Zm0-4H84V20.4H83.65v0.52Z" transform="translate(-1.92 -2.01)"/><polygon class="cls-1" points="83.28 22.56 85.17 20.08 83.36 20.08 83.36 19.74 85.62 19.74 85.62 20.08 83.73 22.55 85.62 22.55 85.62 22.88 83.28 22.88 83.28 22.56"/><polygon class="cls-1" points="86.5 22.56 88.39 20.08 86.57 20.08 86.57 19.74 88.83 19.74 88.83 20.08 86.95 22.55 88.83 22.55 88.83 22.88 86.5 22.88 86.5 22.56"/><path class="cls-1" d="M93.83,23.1a1.52,1.52,0,0,0-.18-0.75A0.69,0.69,0,0,0,93,22a0.82,0.82,0,0,0-.67.35,1.19,1.19,0,0,0-.25.74h1.72ZM94,24.79a2.67,2.67,0,0,1-.91.17,1.29,1.29,0,0,1-1.1-.47,2.17,2.17,0,0,1,0-2.36,1.16,1.16,0,0,1,1-.46,1.1,1.1,0,0,1,1,.46,2,2,0,0,1,.29,1.09v0.2H92.11a1.31,1.31,0,0,0,.26.84,0.91,0.91,0,0,0,.77.36,1.6,1.6,0,0,0,.48-0.08A1.63,1.63,0,0,0,94,24.4v0.39Z" transform="translate(-1.92 -2.01)"/><path class="cls-1" d="M95.47,22.46q0-.44,0-0.7h0.39v0.6h0a1.32,1.32,0,0,1,.31-0.47,0.69,0.69,0,0,1,.49-0.2,1.23,1.23,0,0,1,.27,0v0.41a1,1,0,0,0-.28,0,0.66,0.66,0,0,0-.37.11,0.8,0.8,0,0,0-.24.3,1.59,1.59,0,0,0-.12.4,2.45,2.45,0,0,0,0,.44v1.55H95.47V22.46Z" transform="translate(-1.92 -2.01)"/><path class="cls-1" d="M99.77,23.31H99.15a1.84,1.84,0,0,0-.48.1,0.76,0.76,0,0,0-.34.23,0.59,0.59,0,0,0-.14.41,0.47,0.47,0,0,0,.2.43,0.74,0.74,0,0,0,.46.14,0.93,0.93,0,0,0,.53-0.14,0.81,0.81,0,0,0,.28-0.31,1,1,0,0,0,.1-0.38c0-.13,0-0.23,0-0.31V23.31Zm0,1.08h0a0.94,0.94,0,0,1-.41.42,1.28,1.28,0,0,1-.58.15,1.26,1.26,0,0,1-.53-0.1,0.8,0.8,0,0,1-.32-0.23,1,1,0,0,1-.19-0.55A0.93,0.93,0,0,1,98,23.46a1,1,0,0,1,.47-0.33A2.54,2.54,0,0,1,99.06,23l0.64,0h0.07V22.82A0.66,0.66,0,0,0,99.06,22a1.71,1.71,0,0,0-.92.26V21.9a2.31,2.31,0,0,1,.92-0.22,1,1,0,0,1,1.1,1.17v1.38a4.71,4.71,0,0,0,0,.66H99.81v-0.5Z" transform="translate(-1.92 -2.01)"/><path class="cls-1" d="M29,29.41a4.21,4.21,0,0,0-.5,0,1.66,1.66,0,0,0-1.29.52,2.18,2.18,0,0,0,0,2.66,1.63,1.63,0,0,0,1.29.52,3.24,3.24,0,0,0,.5,0,1.31,1.31,0,0,0,.46-0.14l0,0.37a1.54,1.54,0,0,1-.47.14,3.48,3.48,0,0,1-.51,0,2.11,2.11,0,0,1-1.59-.61,2.21,2.21,0,0,1-.58-1.61,2.26,2.26,0,0,1,.58-1.61A2.11,2.11,0,0,1,28.51,29L29,29a1.4,1.4,0,0,1,.47.13l0,0.39A1.54,1.54,0,0,0,29,29.41" transform="translate(-1.92 -2.01)"/><path class="cls-1" d="M31.36,32.73a0.88,0.88,0,0,0,.77.39,0.91,0.91,0,0,0,.78-0.39,1.55,1.55,0,0,0,.26-0.92,1.61,1.61,0,0,0-.26-0.93,0.93,0.93,0,0,0-.78-0.37,0.89,0.89,0,0,0-.77.38,1.55,1.55,0,0,0-.27.93,1.5,1.5,0,0,0,.27.92M31,30.67a1.31,1.31,0,0,1,1.11-.5,1.33,1.33,0,0,1,1.12.5,2.06,2.06,0,0,1,0,2.28,1.32,1.32,0,0,1-1.12.5,1.3,1.3,0,0,1-1.11-.5,2,2,0,0,1,0-2.28" transform="translate(-1.92 -2.01)"/><path class="cls-1" d="M34.81,31q0-.36,0-0.74h0.38V30.8h0l0.13-.22a0.93,0.93,0,0,1,.19-0.2,0.84,0.84,0,0,1,.29-0.15,1.35,1.35,0,0,1,.41-0.05,1,1,0,0,1,.83.34,1.44,1.44,0,0,1,.24.86v2H36.87V31.47a1.33,1.33,0,0,0-.17-0.71,0.67,0.67,0,0,0-.58-0.26,0.79,0.79,0,0,0-.73.37,1.06,1.06,0,0,0-.15.36,1.74,1.74,0,0,0,0,.41v1.74H34.81V31Z" transform="translate(-1.92 -2.01)"/><path class="cls-1" d="M39,30.57H38.34V30.24H39V30q0-.25,0-0.49a1.24,1.24,0,0,1,.09-0.42,0.65,0.65,0,0,1,.25-0.3,0.82,0.82,0,0,1,.46-0.11H40a0.44,0.44,0,0,1,.16.06l0,0.33A0.71,0.71,0,0,0,39.83,29a0.42,0.42,0,0,0-.29.09,0.5,0.5,0,0,0-.14.24,1.17,1.17,0,0,0,0,.3c0,0.11,0,.22,0,0.32v0.27h0.71v0.33H39.36v2.81H39V30.57Z" transform="translate(-1.92 -2.01)"/><path class="cls-1" d="M43.15,31.59A1.52,1.52,0,0,0,43,30.84a0.69,0.69,0,0,0-.62-0.34,0.82,0.82,0,0,0-.67.34,1.19,1.19,0,0,0-.25.74h1.72Zm0.19,1.69a2.67,2.67,0,0,1-.91.17,1.29,1.29,0,0,1-1.1-.47,2.17,2.17,0,0,1,0-2.36,1.16,1.16,0,0,1,1-.45,1.1,1.1,0,0,1,1,.46,2,2,0,0,1,.29,1.09v0.2H41.43a1.31,1.31,0,0,0,.26.84,0.91,0.91,0,0,0,.77.36A1.6,1.6,0,0,0,42.94,33a1.65,1.65,0,0,0,.4-0.15v0.39Z" transform="translate(-1.92 -2.01)"/><path class="cls-1" d="M45.08,32.26a1.78,1.78,0,0,0,.15.43,0.91,0.91,0,0,0,.29.3,0.73,0.73,0,0,0,.45.13A0.75,0.75,0,0,0,46.4,33a0.91,0.91,0,0,0,.28-0.31,1.86,1.86,0,0,0,.2-0.87,2.48,2.48,0,0,0,0-.45,1.52,1.52,0,0,0-.16-0.42,1,1,0,0,0-.28-0.32A0.81,0.81,0,0,0,46,30.5a0.79,0.79,0,0,0-.45.12,0.83,0.83,0,0,0-.29.31,1.56,1.56,0,0,0-.15.42,2.55,2.55,0,0,0,0,.47,2.39,2.39,0,0,0,0,.45m2.2,1.12H46.89v-0.5h0a1,1,0,0,1-1,.57,1.12,1.12,0,0,1-1-.47,2,2,0,0,1-.33-1.17,2,2,0,0,1,.3-1.18,1.12,1.12,0,0,1,1-.46,1.09,1.09,0,0,1,.41.07,0.92,0.92,0,0,1,.3.17,0.85,0.85,0,0,1,.28.36h0v-2h0.39v4.61Z" transform="translate(-1.92 -2.01)"/><path class="cls-1" d="M50.61,31.59a1.52,1.52,0,0,0-.18-0.75,0.69,0.69,0,0,0-.62-0.34,0.82,0.82,0,0,0-.67.34,1.19,1.19,0,0,0-.25.74h1.72Zm0.19,1.69a2.67,2.67,0,0,1-.91.17,1.29,1.29,0,0,1-1.1-.47,2.17,2.17,0,0,1,0-2.36,1.16,1.16,0,0,1,1-.45,1.1,1.1,0,0,1,1,.46A2,2,0,0,1,51,31.72v0.2H48.88a1.31,1.31,0,0,0,.26.84,0.91,0.91,0,0,0,.77.36A1.6,1.6,0,0,0,50.4,33a1.65,1.65,0,0,0,.4-0.15v0.39Z" transform="translate(-1.92 -2.01)"/><path class="cls-1" d="M52.25,30.94q0-.44,0-0.7h0.39v0.6h0a1.35,1.35,0,0,1,.31-0.47,0.69,0.69,0,0,1,.49-0.2,1.23,1.23,0,0,1,.27,0v0.41a1,1,0,0,0-.28,0,0.66,0.66,0,0,0-.37.11,0.79,0.79,0,0,0-.24.3,1.55,1.55,0,0,0-.12.4,2.36,2.36,0,0,0,0,.44v1.55H52.25V30.94Z" transform="translate(-1.92 -2.01)"/><path class="cls-1" d="M56.55,31.8H55.93a1.82,1.82,0,0,0-.48.1,0.76,0.76,0,0,0-.35.23,0.59,0.59,0,0,0-.14.41,0.47,0.47,0,0,0,.2.43,0.74,0.74,0,0,0,.45.14A0.93,0.93,0,0,0,56.15,33a0.79,0.79,0,0,0,.28-0.31,1,1,0,0,0,.1-0.38c0-.13,0-0.23,0-0.31V31.8Zm0,1.08h0a0.93,0.93,0,0,1-.41.42,1.27,1.27,0,0,1-1.11,0,0.79,0.79,0,0,1-.32-0.23,1,1,0,0,1-.19-0.55,0.93,0.93,0,0,1,.19-0.62,1,1,0,0,1,.47-0.33,2.56,2.56,0,0,1,.63-0.14l0.64,0h0.07V31.31a0.66,0.66,0,0,0-.71-0.81,1.71,1.71,0,0,0-.92.26V30.38a2.31,2.31,0,0,1,.92-0.22,1,1,0,0,1,1.1,1.17v1.39a4.72,4.72,0,0,0,0,.66H56.58v-0.5Z" transform="translate(-1.92 -2.01)"/><polygon class="cls-1" points="56.13 31.04 58.01 28.56 56.2 28.56 56.2 28.23 58.46 28.23 58.46 28.56 56.57 31.04 58.46 31.04 58.46 31.37 56.13 31.37 56.13 31.04"/><path class="cls-1" d="M61.55,33.38h0.39V30.24H61.55v3.14Zm0-4h0.39V28.89H61.55V29.4Z" transform="translate(-1.92 -2.01)"/><path class="cls-1" d="M65.84,32.64q0,0.36,0,.74H65.49V32.82h0a1.07,1.07,0,0,1-.12.21,1,1,0,0,1-.19.21,0.89,0.89,0,0,1-.29.15,1.13,1.13,0,0,1-.42.07,1,1,0,0,1-.83-0.34,1.36,1.36,0,0,1-.25-0.86v-2h0.39v1.91a1.2,1.2,0,0,0,.18.7,0.62,0.62,0,0,0,.57.27A0.86,0.86,0,0,0,65,33a0.74,0.74,0,0,0,.28-0.27,1.09,1.09,0,0,0,.16-0.37,1.88,1.88,0,0,0,0-.39V30.24h0.39v2.4Z" transform="translate(-1.92 -2.01)"/><path class="cls-1" d="M67.29,31q0-.36,0-0.74h0.38V30.8h0l0.13-.22a0.93,0.93,0,0,1,.18-0.2,0.84,0.84,0,0,1,.29-0.15,1.35,1.35,0,0,1,.41-0.05,1,1,0,0,1,.83.34,1.44,1.44,0,0,1,.24.86v2H69.35V31.47a1.33,1.33,0,0,0-.17-0.71,0.67,0.67,0,0,0-.58-0.26,0.79,0.79,0,0,0-.73.37,1.06,1.06,0,0,0-.15.36,1.74,1.74,0,0,0,0,.41v1.74H67.29V31Z" transform="translate(-1.92 -2.01)"/><path class="cls-1" d="M73.9,33.12A0.79,0.79,0,0,0,74.39,33a0.48,0.48,0,0,0,.2-0.41,0.53,0.53,0,0,0-.23-0.44,2.7,2.7,0,0,0-.52-0.28l-0.27-.14-0.25-.17a0.88,0.88,0,0,1-.17-0.23A0.59,0.59,0,0,1,73.09,31a0.73,0.73,0,0,1,.32-0.66,1.28,1.28,0,0,1,.7-0.19l0.35,0a2.3,2.3,0,0,1,.42.12l0,0.34a1.87,1.87,0,0,0-.69-0.15,0.89,0.89,0,0,0-.48.11,0.36,0.36,0,0,0-.14.15,0.53,0.53,0,0,0-.06.26,0.29,0.29,0,0,0,.07.18,0.74,0.74,0,0,0,.18.15L74,31.48l0.28,0.14a1.76,1.76,0,0,1,.53.34,0.81,0.81,0,0,1,.23.6,0.79,0.79,0,0,1-.1.41,0.87,0.87,0,0,1-.26.28,1.42,1.42,0,0,1-.73.2A2.66,2.66,0,0,1,73,33.31l0-.38a1.76,1.76,0,0,0,.82.2" transform="translate(-1.92 -2.01)"/><polygon class="cls-1" points="75.37 31.37 74.91 31.37 73.85 28.23 74.27 28.23 75.14 30.94 75.15 30.94 76.06 28.23 76.47 28.23 75.37 31.37"/><path class="cls-1" d="M79.41,33.38H79.8V30.24H79.41v3.14Zm0-4H79.8V28.89H79.41V29.4Z" transform="translate(-1.92 -2.01)"/><polygon class="cls-1" points="79.05 31.04 80.93 28.56 79.12 28.56 79.12 28.23 81.38 28.23 81.38 28.56 79.49 31.04 81.38 31.04 81.38 31.37 79.05 31.37 79.05 31.04"/><path class="cls-1" d="M84.47,30.94c0-.29,0-0.52,0-0.7h0.39v0.6h0a1.34,1.34,0,0,1,.31-0.47,0.69,0.69,0,0,1,.49-0.2,1.24,1.24,0,0,1,.27,0v0.41a1,1,0,0,0-.28,0,0.66,0.66,0,0,0-.37.11A0.81,0.81,0,0,0,85,31a1.59,1.59,0,0,0-.12.4,2.45,2.45,0,0,0,0,.44v1.55H84.47V30.94Z" transform="translate(-1.92 -2.01)"/><path class="cls-1" d="M88.76,31.8H88.15a1.84,1.84,0,0,0-.48.1,0.76,0.76,0,0,0-.34.23,0.59,0.59,0,0,0-.14.41,0.48,0.48,0,0,0,.2.43,0.74,0.74,0,0,0,.46.14A0.93,0.93,0,0,0,88.37,33a0.79,0.79,0,0,0,.28-0.31,1,1,0,0,0,.1-0.38c0-.13,0-0.23,0-0.31V31.8Zm0,1.08h0a0.94,0.94,0,0,1-.41.42,1.27,1.27,0,0,1-1.11,0,0.8,0.8,0,0,1-.32-0.23,1,1,0,0,1-.19-0.55,0.93,0.93,0,0,1,.19-0.62,1,1,0,0,1,.47-0.33A2.54,2.54,0,0,1,88,31.48l0.64,0h0.07V31.31A0.66,0.66,0,0,0,88,30.5a1.71,1.71,0,0,0-.92.26V30.38A2.31,2.31,0,0,1,88,30.17a1,1,0,0,1,1.1,1.17v1.39a4.71,4.71,0,0,0,0,.66H88.8v-0.5Z" transform="translate(-1.92 -2.01)"/><path class="cls-2" d="M19.36,3.44A23.54,23.54,0,0,0,10.66,2h0A23.55,23.55,0,0,0,2,3.44s-0.29,6.31.94,9.88a13.19,13.19,0,0,0,7.76,8h0a13.2,13.2,0,0,0,7.76-8c1.24-3.57.94-9.88,0.94-9.88" transform="translate(-1.92 -2.01)"/><polygon class="cls-1" points="14.52 6.87 14.52 10.34 10.46 10.34 10.46 14.4 6.98 14.4 6.98 10.34 2.93 10.34 2.93 6.87 6.98 6.87 6.98 2.81 10.46 2.81 10.46 6.87 14.52 6.87"/></svg>