<svg id="Ebene_1" data-name="Ebene 1" xmlns="http://www.w3.org/2000/svg" viewBox="0 0 595.28 841.89"><defs><style>.cls-1{fill:#1d1d1b;}.cls-2{fill:#fff;}.cls-3{fill:#e2231a;}</style></defs><title>sust_logo</title><rect class="cls-1" width="595.28" height="841.89"/><path class="cls-2" d="M269.75,448.8h0.39v-1.62l1.56,1.62h0.54L270.51,447l1.54-1.4h-0.5l-1.41,1.3v-2.78h-0.39v4.65Zm-1-4.53h-0.39v0.52h0.39v-0.52Zm-0.39,4.53h0.39v-3.16h-0.39v3.16Zm-0.7-3.16H267v-0.9l-0.39.14v0.76h-0.62V446h0.62v1.85c0,0.58,0,1.05.72,1.05a1.44,1.44,0,0,0,.48-0.09l0-.32a0.91,0.91,0,0,1-.36.07A0.43,0.43,0,0,1,267,448v-2h0.72v-0.33ZM265,447.4a1,1,0,0,1-.94,1.14,0.56,0.56,0,0,1-.66-0.57c0-.69.81-0.76,1.48-0.76H265v0.19Zm0,1.4h0.38a4.49,4.49,0,0,1,0-.66v-1.4a1,1,0,0,0-1.11-1.18,2.49,2.49,0,0,0-.93.22v0.38a1.68,1.68,0,0,1,.93-0.26,0.66,0.66,0,0,1,.72.81v0.16h-0.07c-0.82,0-1.95,0-1.95,1.11a0.89,0.89,0,0,0,1,.89,1.11,1.11,0,0,0,1-.58h0v0.51Zm-2.8-4.53h-0.39v0.52h0.39v-0.52Zm-0.39,4.53h0.39v-3.16h-0.39v3.16Zm-0.55-3.16h-0.41L260,448.37h0l-0.87-2.73h-0.43l1.07,3.16h0.46Zm-3.72,1.63h-1.88l0.94-2.39Zm-2.92,1.53h0.42l0.47-1.16h2.18l0.47,1.16h0.45l-1.72-4.33h-0.48Zm-4.76,0h0.39v-1.69a1,1,0,0,1,.94-1.21c0.65,0,.75.47,0.75,1v1.88h0.39v-1.89c0-.78-0.23-1.34-1.08-1.34a1.07,1.07,0,0,0-1,.61h0v-2h-0.39v4.65Zm-0.66-3.11a2.37,2.37,0,0,0-.76-0.12,1.53,1.53,0,0,0-1.56,1.66,1.5,1.5,0,0,0,1.51,1.65,2.34,2.34,0,0,0,.81-0.11l0-.36a2,2,0,0,1-.71.14,1.2,1.2,0,0,1-1.15-1.32,1.18,1.18,0,0,1,1.19-1.32,1.8,1.8,0,0,1,.68.16Zm-3.08-1.41h-0.39v0.52h0.39v-0.52Zm-0.39,4.53h0.39v-3.16h-0.39v3.16Zm-2.91-1.8a1,1,0,0,1,.93-1.1,0.92,0.92,0,0,1,.81,1.1h-1.74Zm1.93,1.31a2,2,0,0,1-.89.23,1.07,1.07,0,0,1-1-1.21H245v-0.2a1.33,1.33,0,0,0-1.26-1.57,1.45,1.45,0,0,0-1.33,1.66,1.4,1.4,0,0,0,1.44,1.65,2.58,2.58,0,0,0,.92-0.17v-0.4Zm-4.07.49h0.39v-1.56a1,1,0,0,1,.79-1.26,1,1,0,0,1,.29,0V445.6a1.13,1.13,0,0,0-.27,0,0.94,0.94,0,0,0-.81.68h0v-0.61h-0.39a5.62,5.62,0,0,1,0,.71v2.45Zm-2.91-1.8a1,1,0,0,1,.93-1.1,0.92,0.92,0,0,1,.81,1.1h-1.74Zm1.93,1.31a2,2,0,0,1-.89.23,1.07,1.07,0,0,1-1-1.21H240v-0.2a1.33,1.33,0,0,0-1.26-1.57,1.45,1.45,0,0,0-1.33,1.66,1.4,1.4,0,0,0,1.44,1.65,2.58,2.58,0,0,0,.92-0.17v-0.4Zm-5.12-3.46h0.59a0.78,0.78,0,0,1,.94.71,0.87,0.87,0,0,1-1.05.81H234.6v-1.52Zm0,1.89H235c0.63,0,1.3.08,1.3,0.85a1,1,0,0,1-1.23.84h-0.45v-1.69Zm-0.43,2.06H235c0.9,0,1.67-.29,1.67-1.23a1,1,0,0,0-.92-1h0a0.89,0.89,0,0,0,.79-1,1.13,1.13,0,0,0-1.37-1.07h-1v4.33Z"/><path class="cls-2" d="M384.11,437.72h-1.24V437h3.35v0.68H385v3.65h-0.87v-3.65Zm-2.79-.07-0.22,0a0.63,0.63,0,0,0-.22.09,0.49,0.49,0,0,0-.17.19,0.59,0.59,0,0,0-.07.3,0.32,0.32,0,0,0,.09.23,0.9,0.9,0,0,0,.22.17l0.31,0.14,0.34,0.14a2.67,2.67,0,0,1,.35.16,1.27,1.27,0,0,1,.3.24,1.17,1.17,0,0,1,.22.33,1.35,1.35,0,0,1,.07.48,1.14,1.14,0,0,1-.48,1,2.06,2.06,0,0,1-1.15.3,2.73,2.73,0,0,1-.56,0l-0.55-.12,0.08-.78a2,2,0,0,0,1,.27,1.05,1.05,0,0,0,.51-0.14,0.46,0.46,0,0,0,.25-0.42,0.47,0.47,0,0,0-.07-0.27,0.71,0.71,0,0,0-.22-0.19,5.8,5.8,0,0,0-.65-0.28,2.43,2.43,0,0,1-.34-0.17,1.61,1.61,0,0,1-.31-0.22,1.17,1.17,0,0,1-.22-0.33,1.09,1.09,0,0,1-.09-0.45,1.17,1.17,0,0,1,.48-1,1.86,1.86,0,0,1,1-.29,3.34,3.34,0,0,1,1,.15l-0.08.71a2.27,2.27,0,0,0-.88-0.19m-6-.61h0.87v2.5a1.56,1.56,0,0,0,.2.88,0.88,0.88,0,0,0,1.4,0,1.67,1.67,0,0,0,.2-0.88V437h0.87v2.77a1.77,1.77,0,0,1-3.53,0V437Zm-2,.61-0.22,0a0.64,0.64,0,0,0-.22.09,0.48,0.48,0,0,0-.17.19,0.58,0.58,0,0,0-.07.3,0.33,0.33,0,0,0,.09.23,0.9,0.9,0,0,0,.22.17l0.31,0.14,0.34,0.14a2.8,2.8,0,0,1,.35.16,1.29,1.29,0,0,1,.3.24,1.19,1.19,0,0,1,.22.33,1.37,1.37,0,0,1,.07.48,1.14,1.14,0,0,1-.48,1,2.06,2.06,0,0,1-1.15.3,2.73,2.73,0,0,1-.57,0l-0.54-.12,0.08-.78a2,2,0,0,0,1,.27,1,1,0,0,0,.51-0.14,0.49,0.49,0,0,0,.18-0.69,0.71,0.71,0,0,0-.22-0.19,5.8,5.8,0,0,0-.65-0.28,2.48,2.48,0,0,1-.34-0.17,1.65,1.65,0,0,1-.31-0.22,1.19,1.19,0,0,1-.22-0.33,1.09,1.09,0,0,1-.09-0.45,1.17,1.17,0,0,1,.48-1,1.85,1.85,0,0,1,1-.29,3.35,3.35,0,0,1,1,.15l-0.08.71a2.26,2.26,0,0,0-.88-0.19m-4.13,3.55a2.21,2.21,0,0,1-1.1.25,1.49,1.49,0,0,1-1.67-1.66,1.91,1.91,0,0,1,.37-1.2,1.35,1.35,0,0,1,1.11-.49,1.33,1.33,0,0,1,1.21.54,2.66,2.66,0,0,1,.31,1.39H367.3a0.81,0.81,0,0,0,.28.59,0.92,0.92,0,0,0,.63.22,1.63,1.63,0,0,0,.57-0.1,2.53,2.53,0,0,0,.49-0.22v0.68Zm-0.56-1.74a0.94,0.94,0,0,0-.17-0.53,0.61,0.61,0,0,0-.51-0.22,0.69,0.69,0,0,0-.53.21,0.89,0.89,0,0,0-.21.54h1.41ZM365,436.71h0.83v4.65H365v-4.65Zm-1.72,0h0.83v4.65h-0.83v-4.65Zm-0.9,4.48a2.2,2.2,0,0,1-1.1.25,1.49,1.49,0,0,1-1.67-1.66,1.91,1.91,0,0,1,.37-1.2,1.35,1.35,0,0,1,1.11-.49,1.33,1.33,0,0,1,1.21.54,2.66,2.66,0,0,1,.31,1.39H360.4a0.81,0.81,0,0,0,.28.59,0.92,0.92,0,0,0,.63.22,1.62,1.62,0,0,0,.57-0.1,2.5,2.5,0,0,0,.49-0.22v0.68Zm-0.56-1.74a0.93,0.93,0,0,0-.17-0.53,0.61,0.61,0,0,0-.51-0.22,0.7,0.7,0,0,0-.53.21,0.89,0.89,0,0,0-.21.54h1.41Zm-4.14-.68h-0.61v-0.61h0.61v-0.64l0.83-.27v0.9h0.74v0.61H358.5v1.49a0.66,0.66,0,0,0,.08.36,0.32,0.32,0,0,0,.31.17,0.72,0.72,0,0,0,.38-0.09l0,0.66a2.15,2.15,0,0,1-.61.07,0.92,0.92,0,0,1-1-1v-1.62Zm-1.13.06-0.35-.11a2.27,2.27,0,0,0-.4,0,0.77,0.77,0,0,0-.32.07,0.3,0.3,0,0,0-.17.29,0.28,0.28,0,0,0,.23.25l0.24,0.08,0.26,0.09a1.55,1.55,0,0,1,.27.11,1.15,1.15,0,0,1,.22.17,0.78,0.78,0,0,1,.17.26,1.1,1.1,0,0,1,.06.38,0.9,0.9,0,0,1-.41.8,1.76,1.76,0,0,1-.93.24,3.64,3.64,0,0,1-.94-0.14l0-.68a1.7,1.7,0,0,0,.82.21,0.81,0.81,0,0,0,.35-0.09,0.31,0.31,0,0,0,.19-0.3,0.34,0.34,0,0,0-.06-0.2,0.42,0.42,0,0,0-.17-0.12,4.26,4.26,0,0,0-.5-0.16l-0.26-.11a0.91,0.91,0,0,1-.24-0.16,0.65,0.65,0,0,1-.16-0.25,0.81,0.81,0,0,1-.07-0.35,0.83,0.83,0,0,1,.39-0.76,1.54,1.54,0,0,1,.86-0.24,3.58,3.58,0,0,1,.51,0l0.4,0.09Zm-2.75,0-0.35-.11a2.26,2.26,0,0,0-.4,0,0.77,0.77,0,0,0-.32.07,0.3,0.3,0,0,0-.17.29,0.28,0.28,0,0,0,.23.25l0.24,0.08,0.26,0.09a1.55,1.55,0,0,1,.27.11,1.12,1.12,0,0,1,.22.17,0.8,0.8,0,0,1,.17.26,1.13,1.13,0,0,1,.06.38,0.9,0.9,0,0,1-.41.8,1.75,1.75,0,0,1-.93.24,3.64,3.64,0,0,1-.94-0.14l0-.68a1.7,1.7,0,0,0,.82.21,0.81,0.81,0,0,0,.35-0.09,0.31,0.31,0,0,0,.19-0.3,0.35,0.35,0,0,0-.06-0.2,0.43,0.43,0,0,0-.17-0.12,4.26,4.26,0,0,0-.5-0.16l-0.26-.11a0.91,0.91,0,0,1-.24-0.16,0.65,0.65,0,0,1-.16-0.25,0.81,0.81,0,0,1-.07-0.35,0.83,0.83,0,0,1,.39-0.76,1.54,1.54,0,0,1,.86-0.24,3.61,3.61,0,0,1,.51,0l0.4,0.09Zm-2.75-.67v2.88c0,0.1,0,.21,0,0.32a2.47,2.47,0,0,1-.06.31,1.43,1.43,0,0,1-.27.54,1.2,1.2,0,0,1-.51.37,2.16,2.16,0,0,1-.83.15,3.08,3.08,0,0,1-1.1-.22l0.07-.71a2.89,2.89,0,0,0,.46.19,1.72,1.72,0,0,0,.46.09,1.21,1.21,0,0,0,.55-0.12,0.76,0.76,0,0,0,.29-0.3,1.21,1.21,0,0,0,.12-0.4c0-.14,0-0.28,0-0.42h0a0.94,0.94,0,0,1-.37.35,1.2,1.2,0,0,1-.62.16,1.11,1.11,0,0,1-1-.49,1.93,1.93,0,0,1-.3-1.12,2,2,0,0,1,.32-1.12,1.16,1.16,0,0,1,1-.53,1.1,1.1,0,0,1,1,.51h0v-0.43H351Zm-1,2.25a1.32,1.32,0,0,0,.17-0.69A1.39,1.39,0,0,0,350,439a0.6,0.6,0,0,0-.53-0.29,0.62,0.62,0,0,0-.58.32,1.33,1.33,0,0,0-.17.69,1.23,1.23,0,0,0,.18.64,0.79,0.79,0,0,0,.22.23,0.51,0.51,0,0,0,.3.09,0.62,0.62,0,0,0,.57-0.3m-5.72-2.25h0.79v0.43h0a1.24,1.24,0,0,1,1-.51,1,1,0,0,1,.83.35,1.49,1.49,0,0,1,.25.9v2h-0.83v-1.7c0-.1,0-0.21,0-0.32a0.82,0.82,0,0,0-.06-0.29,0.45,0.45,0,0,0-.15-0.23,0.55,0.55,0,0,0-.32-0.08,0.57,0.57,0,0,0-.36.11,0.83,0.83,0,0,0-.22.27,1.24,1.24,0,0,0-.11.34,1.76,1.76,0,0,0,0,.35v1.56h-0.83v-3.19Zm-0.85,3.19h-0.79v-0.43h0a1.3,1.3,0,0,1-1,.51,1,1,0,0,1-.82-0.36,1.42,1.42,0,0,1-.27-0.89v-2h0.83v1.7a0.9,0.9,0,0,0,0,.14s0,0.1,0,.16a1.45,1.45,0,0,0,.06.3,0.56,0.56,0,0,0,.16.22,0.46,0.46,0,0,0,.3.09,0.59,0.59,0,0,0,.38-0.12,0.67,0.67,0,0,0,.22-0.27,1,1,0,0,0,.11-0.34,2.55,2.55,0,0,0,0-.33v-1.56h0.83v3.19Zm-6.72-4.65h0.83v1.89h0a1.16,1.16,0,0,1,1-.51,1,1,0,0,1,.83.35,1.48,1.48,0,0,1,.25.9v2h-0.83v-1.7c0-.1,0-0.21,0-0.32a0.8,0.8,0,0,0-.06-0.29,0.44,0.44,0,0,0-.15-0.23,0.55,0.55,0,0,0-.32-0.08,0.57,0.57,0,0,0-.36.11,0.83,0.83,0,0,0-.22.27,1.24,1.24,0,0,0-.11.34,1.76,1.76,0,0,0,0,.35v1.56h-0.83v-4.65Zm-0.68,2.14a1,1,0,0,0-.24-0.09,1.54,1.54,0,0,0-.33,0,0.77,0.77,0,0,0-.61.27,1.09,1.09,0,0,0-.24.74,1.2,1.2,0,0,0,.22.74,0.75,0.75,0,0,0,.64.3,1.22,1.22,0,0,0,.36-0.06l0.28-.09,0,0.69a1.74,1.74,0,0,1-.37.07,3,3,0,0,1-.46,0,1.44,1.44,0,0,1-1.17-.48,1.77,1.77,0,0,1-.4-1.2,1.73,1.73,0,0,1,.4-1.18,1.42,1.42,0,0,1,1.14-.48,2.64,2.64,0,0,1,.81.11Zm-2.93,2.51h-0.79v-0.43h0a1.3,1.3,0,0,1-1,.51,1,1,0,0,1-.82-0.36,1.42,1.42,0,0,1-.27-0.89v-2H331v1.7a0.9,0.9,0,0,0,0,.14s0,0.1,0,.16a1.45,1.45,0,0,0,.06.3,0.56,0.56,0,0,0,.16.22,0.46,0.46,0,0,0,.3.09,0.59,0.59,0,0,0,.38-0.12,0.67,0.67,0,0,0,.22-0.27,1,1,0,0,0,.11-0.34,2.55,2.55,0,0,0,0-.33v-1.56h0.83v3.19Zm-3.79-2.52-0.35-.11a2.27,2.27,0,0,0-.4,0,0.77,0.77,0,0,0-.32.07,0.3,0.3,0,0,0-.17.29,0.28,0.28,0,0,0,.23.25l0.24,0.08,0.26,0.09a1.55,1.55,0,0,1,.27.11,1.12,1.12,0,0,1,.22.17,0.78,0.78,0,0,1,.17.26,1.1,1.1,0,0,1,.06.38,0.9,0.9,0,0,1-.41.8,1.75,1.75,0,0,1-.93.24,3.64,3.64,0,0,1-.94-0.14l0-.68a1.7,1.7,0,0,0,.82.21,0.81,0.81,0,0,0,.35-0.09,0.31,0.31,0,0,0,.19-0.3,0.34,0.34,0,0,0-.06-0.2,0.42,0.42,0,0,0-.17-0.12A4.26,4.26,0,0,0,328,440l-0.26-.11a0.91,0.91,0,0,1-.24-0.16,0.65,0.65,0,0,1-.16-0.25,0.81,0.81,0,0,1-.07-0.35,0.83,0.83,0,0,1,.39-0.76,1.54,1.54,0,0,1,.86-0.24,3.58,3.58,0,0,1,.51,0l0.4,0.09Zm-4.29-.67h0.74v0.73h0a1,1,0,0,1,.27-0.51,0.78,0.78,0,0,1,.6-0.29l0.25,0V439a0.83,0.83,0,0,0-.37-0.07,0.52,0.52,0,0,0-.39.14,0.79,0.79,0,0,0-.2.34,1.72,1.72,0,0,0-.07.42c0,0.14,0,.28,0,0.4v1.17h-0.83v-3.19Zm-0.9,3a2.2,2.2,0,0,1-1.1.25,1.49,1.49,0,0,1-1.67-1.66,1.91,1.91,0,0,1,.37-1.2,1.35,1.35,0,0,1,1.11-.49,1.33,1.33,0,0,1,1.21.54,2.67,2.67,0,0,1,.31,1.39h-2.21a0.81,0.81,0,0,0,.28.59,0.93,0.93,0,0,0,.63.22,1.63,1.63,0,0,0,.57-0.1,2.5,2.5,0,0,0,.49-0.22v0.68Zm-0.56-1.74a0.93,0.93,0,0,0-.17-0.53,0.61,0.61,0,0,0-.51-0.22,0.7,0.7,0,0,0-.53.21,0.89,0.89,0,0,0-.21.54h1.41Zm-4.14-.68h-0.61v-0.61h0.61v-0.64l0.83-.27v0.9H321v0.61h-0.74v1.49a0.66,0.66,0,0,0,.08.36,0.32,0.32,0,0,0,.31.17,0.72,0.72,0,0,0,.38-0.09l0,0.66a2.16,2.16,0,0,1-.61.07,0.92,0.92,0,0,1-1-1v-1.62Zm-4.06-.61h0.79v0.43h0a1.24,1.24,0,0,1,1-.51,1,1,0,0,1,.83.35,1.49,1.49,0,0,1,.25.9v2h-0.83v-1.7c0-.1,0-0.21,0-0.32a0.82,0.82,0,0,0-.06-0.29,0.45,0.45,0,0,0-.16-0.23,0.55,0.55,0,0,0-.32-0.08,0.57,0.57,0,0,0-.36.11,0.83,0.83,0,0,0-.22.27,1.24,1.24,0,0,0-.11.34,1.84,1.84,0,0,0,0,.35v1.56h-0.83v-3.19Zm-0.85,3.19h-0.79v-0.43h0a1.3,1.3,0,0,1-1,.51,1,1,0,0,1-.82-0.36,1.42,1.42,0,0,1-.27-0.89v-2h0.83v1.7a0.8,0.8,0,0,0,0,.14s0,0.1,0,.16a1.39,1.39,0,0,0,.06.3,0.55,0.55,0,0,0,.16.22,0.46,0.46,0,0,0,.3.09,0.59,0.59,0,0,0,.38-0.12,0.68,0.68,0,0,0,.22-0.27,1,1,0,0,0,.11-0.34,2.39,2.39,0,0,0,0-.33v-1.56h0.83v3.19Zm-3.79-2.52-0.35-.11a2.28,2.28,0,0,0-.4,0,0.78,0.78,0,0,0-.32.07,0.3,0.3,0,0,0-.17.29,0.28,0.28,0,0,0,.23.25l0.24,0.08,0.26,0.09a1.55,1.55,0,0,1,.27.11,1.12,1.12,0,0,1,.22.17,0.78,0.78,0,0,1,.17.26,1.12,1.12,0,0,1,.06.38,0.9,0.9,0,0,1-.41.8,1.75,1.75,0,0,1-.93.24,3.64,3.64,0,0,1-.94-0.14l0-.68a1.69,1.69,0,0,0,.82.21,0.81,0.81,0,0,0,.35-0.09,0.31,0.31,0,0,0,.19-0.3,0.35,0.35,0,0,0-.06-0.2,0.42,0.42,0,0,0-.17-0.12,4.2,4.2,0,0,0-.5-0.16l-0.26-.11a0.92,0.92,0,0,1-.24-0.16,0.65,0.65,0,0,1-.16-0.25,0.82,0.82,0,0,1-.07-0.35,0.83,0.83,0,0,1,.39-0.76,1.54,1.54,0,0,1,.86-0.24,3.6,3.6,0,0,1,.51,0l0.4,0.09Zm-4-.06H306.1v-0.61h0.61v-0.64l0.83-.27v0.9h0.74v0.61h-0.74v1.49a0.66,0.66,0,0,0,.08.36,0.32,0.32,0,0,0,.31.17,0.72,0.72,0,0,0,.38-0.09l0,0.66a2.15,2.15,0,0,1-.61.07,0.92,0.92,0,0,1-1-1v-1.62Zm-2-2h0.83v0.79h-0.83v-0.79Zm0,1.38h0.83v3.19h-0.83v-3.19Zm-0.9,3a2.21,2.21,0,0,1-1.1.25,1.49,1.49,0,0,1-1.67-1.66,1.91,1.91,0,0,1,.37-1.2,1.35,1.35,0,0,1,1.11-.49,1.33,1.33,0,0,1,1.21.54,2.66,2.66,0,0,1,.31,1.39h-2.21a0.81,0.81,0,0,0,.28.59,0.92,0.92,0,0,0,.63.22,1.63,1.63,0,0,0,.57-0.1,2.5,2.5,0,0,0,.49-0.22v0.68Zm-0.56-1.74a0.93,0.93,0,0,0-.17-0.53,0.61,0.61,0,0,0-.51-0.22,0.7,0.7,0,0,0-.53.21,0.89,0.89,0,0,0-.21.54h1.41Zm-5.79-2.74h0.83v1.89h0a1.16,1.16,0,0,1,1-.51,1,1,0,0,1,.83.35,1.48,1.48,0,0,1,.26.9v2h-0.83v-1.7c0-.1,0-0.21,0-0.32a0.84,0.84,0,0,0-.06-0.29,0.45,0.45,0,0,0-.15-0.23,0.55,0.55,0,0,0-.32-0.08,0.57,0.57,0,0,0-.36.11,0.82,0.82,0,0,0-.22.27,1.24,1.24,0,0,0-.11.34,1.76,1.76,0,0,0,0,.35v1.56h-0.83v-4.65Zm-2.39,1.46h0.74v0.73h0a1,1,0,0,1,.27-0.51,0.78,0.78,0,0,1,.6-0.29l0.25,0V439a0.82,0.82,0,0,0-.37-0.07,0.52,0.52,0,0,0-.38.14,0.8,0.8,0,0,0-.2.34,1.72,1.72,0,0,0-.07.42c0,0.14,0,.28,0,0.4v1.17h-0.83v-3.19Zm-0.91,3a2.21,2.21,0,0,1-1.1.25,1.49,1.49,0,0,1-1.67-1.66,1.91,1.91,0,0,1,.37-1.2,1.35,1.35,0,0,1,1.11-.49,1.33,1.33,0,0,1,1.21.54,2.66,2.66,0,0,1,.31,1.39h-2.21a0.81,0.81,0,0,0,.28.59,0.92,0.92,0,0,0,.63.22,1.63,1.63,0,0,0,.57-0.1,2.53,2.53,0,0,0,.49-0.22v0.68Zm-0.56-1.74a0.94,0.94,0,0,0-.17-0.53,0.61,0.61,0,0,0-.51-0.22,0.69,0.69,0,0,0-.53.21,0.89,0.89,0,0,0-.21.54h1.41Zm-5.79-2.74h0.83v1.89h0a1.16,1.16,0,0,1,1-.51,1,1,0,0,1,.83.35,1.48,1.48,0,0,1,.25.9v2h-0.83v-1.7c0-.1,0-0.21,0-0.32a0.8,0.8,0,0,0-.06-0.29,0.44,0.44,0,0,0-.16-0.23,0.55,0.55,0,0,0-.32-0.08,0.57,0.57,0,0,0-.36.11,0.83,0.83,0,0,0-.22.27,1.27,1.27,0,0,0-.11.34,1.76,1.76,0,0,0,0,.35v1.56h-0.83v-4.65Zm-0.68,2.14a1,1,0,0,0-.24-0.09,1.54,1.54,0,0,0-.33,0,0.77,0.77,0,0,0-.61.27,1.09,1.09,0,0,0-.24.74,1.2,1.2,0,0,0,.22.74,0.75,0.75,0,0,0,.64.3,1.22,1.22,0,0,0,.36-0.06l0.28-.09,0,0.69a1.74,1.74,0,0,1-.37.07,3,3,0,0,1-.46,0,1.44,1.44,0,0,1-1.17-.48,1.77,1.77,0,0,1-.4-1.2,1.73,1.73,0,0,1,.4-1.18,1.42,1.42,0,0,1,1.14-.48,2.64,2.64,0,0,1,.81.11Zm-3.78-2.06h0.83v0.79h-0.83v-0.79Zm0,1.38h0.83v3.19h-0.83v-3.19Zm-1.95-.53-0.22,0a0.64,0.64,0,0,0-.22.09,0.48,0.48,0,0,0-.17.19,0.58,0.58,0,0,0-.07.3,0.32,0.32,0,0,0,.09.23,0.9,0.9,0,0,0,.22.17l0.31,0.14,0.34,0.14a2.67,2.67,0,0,1,.35.16,1.27,1.27,0,0,1,.3.24,1.17,1.17,0,0,1,.22.33,1.35,1.35,0,0,1,.08.48,1.14,1.14,0,0,1-.48,1,2.06,2.06,0,0,1-1.15.3,2.73,2.73,0,0,1-.56,0l-0.55-.12,0.08-.78a2,2,0,0,0,1,.27,1.05,1.05,0,0,0,.51-0.14,0.49,0.49,0,0,0,.18-0.69,0.71,0.71,0,0,0-.22-0.19,5.8,5.8,0,0,0-.65-0.28,2.43,2.43,0,0,1-.34-0.17,1.61,1.61,0,0,1-.31-0.22,1.17,1.17,0,0,1-.22-0.33,1.09,1.09,0,0,1-.09-0.45,1.17,1.17,0,0,1,.48-1,1.85,1.85,0,0,1,1-.29,3.34,3.34,0,0,1,1,.15l-0.08.71a2.27,2.27,0,0,0-.88-0.19m-4.13,3.55a2.2,2.2,0,0,1-1.1.25,1.49,1.49,0,0,1-1.67-1.66,1.91,1.91,0,0,1,.37-1.2,1.35,1.35,0,0,1,1.11-.49,1.33,1.33,0,0,1,1.21.54,2.66,2.66,0,0,1,.31,1.39h-2.21a0.81,0.81,0,0,0,.28.59,0.92,0.92,0,0,0,.63.22,1.62,1.62,0,0,0,.57-0.1,2.5,2.5,0,0,0,.49-0.22v0.68Zm-0.56-1.74a0.93,0.93,0,0,0-.17-0.53,0.61,0.61,0,0,0-.51-0.22,0.7,0.7,0,0,0-.53.21,0.89,0.89,0,0,0-.21.54h1.41Zm-5.79-2.74h0.83v1.89h0a1.16,1.16,0,0,1,1-.51,1,1,0,0,1,.83.35,1.49,1.49,0,0,1,.25.9v2h-0.83v-1.7c0-.1,0-0.21,0-0.32A0.82,0.82,0,0,0,273,439a0.45,0.45,0,0,0-.16-0.23,0.55,0.55,0,0,0-.32-0.08,0.57,0.57,0,0,0-.36.11,0.83,0.83,0,0,0-.22.27,1.24,1.24,0,0,0-.11.34,1.84,1.84,0,0,0,0,.35v1.56h-0.83v-4.65Zm-0.68,2.14a1,1,0,0,0-.24-0.09,1.55,1.55,0,0,0-.33,0,0.77,0.77,0,0,0-.61.27,1.09,1.09,0,0,0-.24.74,1.2,1.2,0,0,0,.22.74,0.75,0.75,0,0,0,.65.3,1.22,1.22,0,0,0,.36-0.06l0.28-.09,0,0.69a1.74,1.74,0,0,1-.37.07,3,3,0,0,1-.46,0,1.44,1.44,0,0,1-1.17-.48,1.77,1.77,0,0,1-.4-1.2,1.73,1.73,0,0,1,.4-1.18,1.43,1.43,0,0,1,1.14-.48,2.64,2.64,0,0,1,.81.11Zm-2.93,0-0.35-.11a2.28,2.28,0,0,0-.4,0,0.77,0.77,0,0,0-.32.07,0.3,0.3,0,0,0-.17.29,0.28,0.28,0,0,0,.23.25l0.24,0.08,0.26,0.09a1.55,1.55,0,0,1,.27.11,1.15,1.15,0,0,1,.22.17,0.78,0.78,0,0,1,.17.26,1.12,1.12,0,0,1,.06.38,0.9,0.9,0,0,1-.41.8,1.76,1.76,0,0,1-.93.24,3.65,3.65,0,0,1-.94-0.14l0-.68a1.69,1.69,0,0,0,.82.21,0.81,0.81,0,0,0,.35-0.09,0.31,0.31,0,0,0,.19-0.3,0.35,0.35,0,0,0-.06-0.2,0.42,0.42,0,0,0-.17-0.12A4.26,4.26,0,0,0,266,440l-0.26-.11a0.92,0.92,0,0,1-.24-0.16,0.65,0.65,0,0,1-.16-0.25,0.81,0.81,0,0,1-.07-0.35,0.84,0.84,0,0,1,.39-0.76,1.54,1.54,0,0,1,.86-0.24,3.58,3.58,0,0,1,.51,0l0.4,0.09Zm-3.6-2h0.83v0.79h-0.83v-0.79Zm0,1.38h0.83v3.19h-0.83v-3.19Zm-2.41,0h0.74v0.73h0a1,1,0,0,1,.27-0.51,0.78,0.78,0,0,1,.6-0.29l0.25,0V439a0.83,0.83,0,0,0-.37-0.07,0.52,0.52,0,0,0-.38.14,0.79,0.79,0,0,0-.21.34,1.72,1.72,0,0,0-.07.42c0,0.14,0,.28,0,0.4v1.17h-0.83v-3.19Zm-0.9,3a2.2,2.2,0,0,1-1.1.25,1.49,1.49,0,0,1-1.67-1.66,1.91,1.91,0,0,1,.37-1.2,1.35,1.35,0,0,1,1.11-.49,1.33,1.33,0,0,1,1.21.54,2.66,2.66,0,0,1,.31,1.39h-2.21a0.81,0.81,0,0,0,.28.59,0.92,0.92,0,0,0,.63.22,1.62,1.62,0,0,0,.57-0.1,2.5,2.5,0,0,0,.49-0.22v0.68Zm-0.56-1.74a0.93,0.93,0,0,0-.17-0.53,0.61,0.61,0,0,0-.51-0.22,0.7,0.7,0,0,0-.53.21,0.89,0.89,0,0,0-.21.54h1.41Zm-5.24-1.28h2.53v0.68l-1.59,1.87h1.64v0.64h-2.65v-0.68l1.62-1.87h-1.55v-0.65Zm-1.57-1.38h0.83v0.79h-0.83v-0.79Zm0,1.38h0.83v3.19h-0.83v-3.19Zm-0.91,3a2.2,2.2,0,0,1-1.1.25,1.49,1.49,0,0,1-1.67-1.66,1.91,1.91,0,0,1,.37-1.2,1.35,1.35,0,0,1,1.11-.49,1.33,1.33,0,0,1,1.21.54,2.66,2.66,0,0,1,.31,1.39h-2.21a0.81,0.81,0,0,0,.28.59,0.92,0.92,0,0,0,.63.22,1.63,1.63,0,0,0,.57-0.1,2.52,2.52,0,0,0,.49-0.22v0.68Zm-0.56-1.74a0.93,0.93,0,0,0-.17-0.53,0.61,0.61,0,0,0-.51-0.22,0.69,0.69,0,0,0-.53.21,0.89,0.89,0,0,0-.21.54h1.41Zm-7.87-1.28h0.87l0.72,2.36h0l0.65-2.36h1l0.69,2.36h0l0.66-2.36h0.79l-1,3.19h-1l-0.69-2.44h0l-0.68,2.44H244.8Zm-3.43-1.46h0.83v1.89h0a1.16,1.16,0,0,1,1-.51,1,1,0,0,1,.83.35,1.48,1.48,0,0,1,.25.9v2h-0.83v-1.7c0-.1,0-0.21,0-0.32a0.8,0.8,0,0,0-.06-0.29,0.44,0.44,0,0,0-.15-0.23,0.55,0.55,0,0,0-.32-0.08,0.57,0.57,0,0,0-.36.11,0.83,0.83,0,0,0-.22.27,1.27,1.27,0,0,0-.11.34,1.76,1.76,0,0,0,0,.35v1.56h-0.83v-4.65Zm-0.68,2.14a1,1,0,0,0-.24-0.09,1.54,1.54,0,0,0-.33,0,0.77,0.77,0,0,0-.61.27,1.09,1.09,0,0,0-.24.74,1.2,1.2,0,0,0,.22.74,0.75,0.75,0,0,0,.64.3,1.22,1.22,0,0,0,.36-0.06l0.28-.09,0,0.69a1.74,1.74,0,0,1-.37.07,3,3,0,0,1-.46,0,1.44,1.44,0,0,1-1.17-.48,1.77,1.77,0,0,1-.4-1.2,1.73,1.73,0,0,1,.4-1.18,1.42,1.42,0,0,1,1.14-.48,2.64,2.64,0,0,1,.81.11Zm-4-1.22-0.22,0a0.63,0.63,0,0,0-.22.09,0.49,0.49,0,0,0-.17.19,0.59,0.59,0,0,0-.07.3,0.32,0.32,0,0,0,.09.23,0.9,0.9,0,0,0,.22.17l0.31,0.14,0.34,0.14a2.73,2.73,0,0,1,.35.16,1.27,1.27,0,0,1,.3.24,1.17,1.17,0,0,1,.22.33,1.37,1.37,0,0,1,.07.48,1.14,1.14,0,0,1-.48,1,2.06,2.06,0,0,1-1.15.3,2.72,2.72,0,0,1-.56,0l-0.55-.12,0.08-.78a2,2,0,0,0,1,.27,1.06,1.06,0,0,0,.52-0.14,0.46,0.46,0,0,0,.25-0.42,0.47,0.47,0,0,0-.07-0.27,0.72,0.72,0,0,0-.22-0.19,6,6,0,0,0-.65-0.28,2.43,2.43,0,0,1-.34-0.17,1.61,1.61,0,0,1-.31-0.22,1.15,1.15,0,0,1-.22-0.33,1.09,1.09,0,0,1-.09-0.45,1.17,1.17,0,0,1,.48-1,1.86,1.86,0,0,1,1-.29,3.34,3.34,0,0,1,1,.15l-0.08.71a2.26,2.26,0,0,0-.88-0.19"/><path class="cls-2" d="M234.54,398.63a1.09,1.09,0,0,0,.69-0.21,0.81,0.81,0,0,0,.28-0.67,0.65,0.65,0,0,0-.31-0.53,2.14,2.14,0,0,0-.31-0.21l-0.36-.2-0.36-.22a2,2,0,0,1-.32-0.25,0.87,0.87,0,0,1-.31-0.67,1,1,0,0,1,.4-0.83,1.57,1.57,0,0,1,1-.29l0.39,0a2.58,2.58,0,0,1,.45.12l-0.07.39a1.7,1.7,0,0,0-.78-0.16,1.68,1.68,0,0,0-.33,0,0.9,0.9,0,0,0-.3.13,0.65,0.65,0,0,0-.22.22,0.69,0.69,0,0,0-.09.36,0.49,0.49,0,0,0,.09.28,0.88,0.88,0,0,0,.22.23,2.33,2.33,0,0,0,.32.2l0.36,0.2a2.49,2.49,0,0,1,.68.47,1.13,1.13,0,0,1-.14,1.67,1.71,1.71,0,0,1-1,.28,2.34,2.34,0,0,1-1-.18l0-.44a1.63,1.63,0,0,0,.95.25"/><path class="cls-2" d="M239.27,396.2a1.66,1.66,0,0,0-.67-0.16,1.09,1.09,0,0,0-.87.36,1.4,1.4,0,0,0-.31.95,1.38,1.38,0,0,0,.31.92,1,1,0,0,0,.83.39,1.86,1.86,0,0,0,.71-0.14l0,0.36a2.61,2.61,0,0,1-.81.11,1.35,1.35,0,0,1-1.13-.5,1.78,1.78,0,0,1-.38-1.14,1.67,1.67,0,0,1,.43-1.19,1.48,1.48,0,0,1,1.12-.45,2.21,2.21,0,0,1,.48,0l0.17,0,0.1,0Z"/><path class="cls-2" d="M240.43,394.31h0.39v2h0a1.11,1.11,0,0,1,.38-0.44,1.13,1.13,0,0,1,.6-0.17,0.94,0.94,0,0,1,.86.37,1.83,1.83,0,0,1,.22,1v1.88H242.5v-1.87a3.05,3.05,0,0,0,0-.39,0.83,0.83,0,0,0-.1-0.31,0.63,0.63,0,0,0-.62-0.3,0.79,0.79,0,0,0-.72.39,1.55,1.55,0,0,0-.21.81v1.68h-0.39v-4.62Z"/><polygon class="cls-2" points="247.56 398.92 247.09 398.92 246.24 396.21 246.22 396.21 245.37 398.92 244.9 398.92 243.89 395.79 244.32 395.79 245.14 398.5 245.15 398.5 246.03 395.79 246.5 395.79 247.33 398.5 247.34 398.5 248.21 395.79 248.59 395.79 247.56 398.92"/><path class="cls-2" d="M251.52,397.13a1.52,1.52,0,0,0-.18-0.75,0.69,0.69,0,0,0-.62-0.34,0.82,0.82,0,0,0-.67.35,1.19,1.19,0,0,0-.25.74h1.72Zm0.19,1.69a2.67,2.67,0,0,1-.91.17,1.29,1.29,0,0,1-1.1-.47,2.17,2.17,0,0,1,0-2.36,1.16,1.16,0,0,1,1-.46,1.1,1.1,0,0,1,1,.46,2,2,0,0,1,.29,1.09v0.2h-2.15a1.31,1.31,0,0,0,.26.84,0.91,0.91,0,0,0,.77.36,1.6,1.6,0,0,0,.48-0.08,1.65,1.65,0,0,0,.4-0.15v0.39Z"/><path class="cls-2" d="M253.16,398.92h0.39v-3.14h-0.39v3.14Zm0-4h0.39v-0.52h-0.39v0.52Z"/><polygon class="cls-2" points="254.72 398.6 256.61 396.12 254.79 396.12 254.79 395.79 257.05 395.79 257.05 396.12 255.16 398.59 257.05 398.59 257.05 398.92 254.72 398.92 254.72 398.6"/><path class="cls-2" d="M260.13,397.13a1.52,1.52,0,0,0-.18-0.75,0.69,0.69,0,0,0-.62-0.34,0.82,0.82,0,0,0-.67.35,1.19,1.19,0,0,0-.25.74h1.72Zm0.19,1.69a2.67,2.67,0,0,1-.91.17,1.29,1.29,0,0,1-1.1-.47,2.17,2.17,0,0,1,0-2.36,1.16,1.16,0,0,1,1-.46,1.1,1.1,0,0,1,1,.46,2,2,0,0,1,.29,1.09v0.2h-2.15a1.31,1.31,0,0,0,.26.84,0.91,0.91,0,0,0,.77.36,1.6,1.6,0,0,0,.48-0.08,1.65,1.65,0,0,0,.4-0.15v0.39Z"/><path class="cls-2" d="M261.77,396.49q0-.44,0-0.7h0.39v0.6h0a1.35,1.35,0,0,1,.31-0.47,0.69,0.69,0,0,1,.49-0.2,1.23,1.23,0,0,1,.27,0v0.41a1,1,0,0,0-.28,0,0.66,0.66,0,0,0-.37.11,0.79,0.79,0,0,0-.24.3,1.52,1.52,0,0,0-.12.4,2.36,2.36,0,0,0,0,.44v1.55h-0.39v-2.44Z"/><path class="cls-2" d="M264.3,398.92h0.39v-3.14H264.3v3.14Zm0-4h0.39v-0.52H264.3v0.52Z"/><path class="cls-2" d="M266.73,398.66a0.79,0.79,0,0,0,.49-0.15,0.48,0.48,0,0,0,.2-0.41,0.53,0.53,0,0,0-.23-0.44,2.76,2.76,0,0,0-.52-0.28l-0.27-.14-0.25-.17a0.88,0.88,0,0,1-.17-0.23,0.59,0.59,0,0,1-.07-0.29,0.73,0.73,0,0,1,.32-0.66,1.28,1.28,0,0,1,.7-0.19l0.35,0a2.3,2.3,0,0,1,.42.12l0,0.34A1.87,1.87,0,0,0,267,396a0.89,0.89,0,0,0-.48.11,0.36,0.36,0,0,0-.14.15,0.53,0.53,0,0,0-.06.26,0.29,0.29,0,0,0,.07.18,0.75,0.75,0,0,0,.18.15L266.8,397l0.28,0.14a1.77,1.77,0,0,1,.53.34,0.81,0.81,0,0,1,.23.6,0.79,0.79,0,0,1-.1.41,0.87,0.87,0,0,1-.26.28,1.42,1.42,0,0,1-.73.2,2.66,2.66,0,0,1-.88-0.15l0-.38a1.76,1.76,0,0,0,.82.2"/><path class="cls-2" d="M271.06,396.2a1.66,1.66,0,0,0-.67-0.16,1.09,1.09,0,0,0-.87.36,1.4,1.4,0,0,0-.31.95,1.38,1.38,0,0,0,.31.92,1,1,0,0,0,.83.39,1.86,1.86,0,0,0,.71-0.14l0,0.36a2.61,2.61,0,0,1-.81.11,1.35,1.35,0,0,1-1.13-.5,1.78,1.78,0,0,1-.38-1.14,1.67,1.67,0,0,1,.43-1.19,1.48,1.48,0,0,1,1.12-.45,2.21,2.21,0,0,1,.48,0l0.17,0,0.1,0Z"/><path class="cls-2" d="M272.23,394.31h0.39v2h0a1.11,1.11,0,0,1,.38-0.44,1.13,1.13,0,0,1,.6-0.17,0.94,0.94,0,0,1,.86.37,1.83,1.83,0,0,1,.21,1v1.88h-0.39v-1.87a3.05,3.05,0,0,0,0-.39,0.83,0.83,0,0,0-.11-0.31,0.63,0.63,0,0,0-.61-0.3,0.79,0.79,0,0,0-.72.39,1.56,1.56,0,0,0-.21.81v1.68h-0.39v-4.62Z"/><path class="cls-2" d="M278,397.13a1.52,1.52,0,0,0-.18-0.75,0.69,0.69,0,0,0-.62-0.34,0.82,0.82,0,0,0-.67.35,1.19,1.19,0,0,0-.25.74H278Zm0.19,1.69a2.67,2.67,0,0,1-.91.17,1.29,1.29,0,0,1-1.1-.47,2.17,2.17,0,0,1,0-2.36,1.16,1.16,0,0,1,1-.46,1.1,1.1,0,0,1,1,.46,2,2,0,0,1,.29,1.09v0.2h-2.15a1.31,1.31,0,0,0,.26.84,0.91,0.91,0,0,0,.77.36,1.6,1.6,0,0,0,.48-0.08,1.65,1.65,0,0,0,.4-0.15v0.39Z"/><polygon class="cls-2" points="281.74 394.63 283.84 394.63 283.84 395 282.16 395 282.16 396.53 283.76 396.53 283.76 396.9 282.16 396.9 282.16 398.55 283.92 398.55 283.92 398.92 281.74 398.92 281.74 394.63"/><path class="cls-2" d="M285.25,398.92h0.39v-3.14h-0.39v3.14Zm0-4h0.39v-0.52h-0.39v0.52Z"/><path class="cls-2" d="M287.38,397.8a1.78,1.78,0,0,0,.15.43,0.91,0.91,0,0,0,.29.3,0.73,0.73,0,0,0,.45.13,0.75,0.75,0,0,0,.44-0.13,0.91,0.91,0,0,0,.28-0.31,1.86,1.86,0,0,0,.2-0.87,2.48,2.48,0,0,0,0-.46,1.52,1.52,0,0,0-.16-0.42,1,1,0,0,0-.28-0.32,0.81,0.81,0,0,0-.44-0.12,0.79,0.79,0,0,0-.45.12,0.83,0.83,0,0,0-.29.31,1.56,1.56,0,0,0-.15.42,2.55,2.55,0,0,0,0,.47,2.39,2.39,0,0,0,0,.45m2.2,1.12H289.2v-0.5h0a1,1,0,0,1-1,.57,1.12,1.12,0,0,1-1-.47,2,2,0,0,1-.33-1.17,2,2,0,0,1,.3-1.18,1.12,1.12,0,0,1,1-.46,1.09,1.09,0,0,1,.41.07,0.92,0.92,0,0,1,.3.17,0.85,0.85,0,0,1,.28.36h0v-2h0.39v4.61Z"/><path class="cls-2" d="M291.45,398.2a0.75,0.75,0,0,0,.69.39,0.81,0.81,0,0,0,.75-0.41,1.71,1.71,0,0,0,.21-0.83,2,2,0,0,0-.2-0.94,0.91,0.91,0,0,0-1.18-.25,0.84,0.84,0,0,0-.29.31,1.56,1.56,0,0,0-.15.42,2.55,2.55,0,0,0,0,.47,1.58,1.58,0,0,0,.21.84m2,0.47a1.86,1.86,0,0,1-.33,1.12,1.36,1.36,0,0,1-1.14.47,2.67,2.67,0,0,1-.57-0.07l-0.38-.1,0-.39a2,2,0,0,0,.92.22,1.19,1.19,0,0,0,.59-0.14,0.76,0.76,0,0,0,.33-0.34,1.47,1.47,0,0,0,.14-0.51q0-.29,0-0.62h0a1,1,0,0,1-1,.62,1.13,1.13,0,0,1-1-.53,1.52,1.52,0,0,1-.22-0.5,2.29,2.29,0,0,1,.23-1.72,1.12,1.12,0,0,1,1-.46,1.93,1.93,0,0,1,.54.07,1,1,0,0,1,.44.36h0v-0.36h0.39v2.88Z"/><path class="cls-2" d="M296.81,397.13a1.52,1.52,0,0,0-.18-0.75A0.69,0.69,0,0,0,296,396a0.82,0.82,0,0,0-.67.35,1.2,1.2,0,0,0-.25.74h1.72Zm0.19,1.69a2.67,2.67,0,0,1-.91.17,1.29,1.29,0,0,1-1.1-.47,2.17,2.17,0,0,1,0-2.36,1.16,1.16,0,0,1,1-.46,1.1,1.1,0,0,1,1,.46,2,2,0,0,1,.29,1.09v0.2h-2.15a1.31,1.31,0,0,0,.26.84,0.91,0.91,0,0,0,.77.36,1.6,1.6,0,0,0,.48-0.08,1.63,1.63,0,0,0,.4-0.15v0.39Z"/><path class="cls-2" d="M298.46,396.52q0-.36,0-0.74h0.38v0.56h0l0.13-.22a0.93,0.93,0,0,1,.18-0.2,0.83,0.83,0,0,1,.29-0.15,1.36,1.36,0,0,1,.41-0.05,1,1,0,0,1,.83.34,1.44,1.44,0,0,1,.24.86v2h-0.39V397a1.33,1.33,0,0,0-.17-0.71,0.67,0.67,0,0,0-.58-0.26,0.8,0.8,0,0,0-.73.37,1.08,1.08,0,0,0-.15.36,1.74,1.74,0,0,0,0,.41v1.74h-0.39v-2.4Z"/><path class="cls-2" d="M302.81,398.28a0.88,0.88,0,0,0,.77.39,0.92,0.92,0,0,0,.78-0.39,1.55,1.55,0,0,0,.26-0.92,1.61,1.61,0,0,0-.26-0.93,0.93,0.93,0,0,0-.78-0.37,0.89,0.89,0,0,0-.77.38,1.55,1.55,0,0,0-.27.93,1.5,1.5,0,0,0,.27.92m-0.34-2.07a1.49,1.49,0,0,1,2.23,0,2.05,2.05,0,0,1,0,2.28,1.48,1.48,0,0,1-2.23,0,2,2,0,0,1,0-2.28"/><path class="cls-2" d="M306.84,398.66a0.79,0.79,0,0,0,.49-0.15,0.48,0.48,0,0,0,.2-0.41,0.53,0.53,0,0,0-.23-0.44,2.73,2.73,0,0,0-.52-0.28l-0.27-.14-0.25-.17a0.86,0.86,0,0,1-.17-0.23,0.59,0.59,0,0,1-.07-0.29,0.73,0.73,0,0,1,.32-0.66,1.29,1.29,0,0,1,.7-0.19l0.35,0a2.28,2.28,0,0,1,.42.12l0,0.34a1.88,1.88,0,0,0-.69-0.15,0.9,0.9,0,0,0-.48.11,0.37,0.37,0,0,0-.14.15,0.53,0.53,0,0,0-.06.26,0.29,0.29,0,0,0,.07.18,0.73,0.73,0,0,0,.18.15l0.25,0.13,0.28,0.14a1.77,1.77,0,0,1,.53.34,0.89,0.89,0,0,1,.14,1,0.88,0.88,0,0,1-.26.28,1.42,1.42,0,0,1-.73.2,2.67,2.67,0,0,1-.88-0.15l0-.38a1.76,1.76,0,0,0,.82.2"/><path class="cls-2" d="M309.71,398.66a0.79,0.79,0,0,0,.49-0.15,0.49,0.49,0,0,0,.2-0.41,0.53,0.53,0,0,0-.23-0.44,2.72,2.72,0,0,0-.52-0.28l-0.27-.14-0.25-.17a0.86,0.86,0,0,1-.17-0.23,0.59,0.59,0,0,1-.07-0.29,0.74,0.74,0,0,1,.32-0.66,1.29,1.29,0,0,1,.7-0.19l0.35,0a2.27,2.27,0,0,1,.42.12l0,0.34A1.87,1.87,0,0,0,310,396a0.89,0.89,0,0,0-.48.11,0.37,0.37,0,0,0-.14.15,0.53,0.53,0,0,0-.06.26,0.29,0.29,0,0,0,.07.18,0.73,0.73,0,0,0,.18.15l0.25,0.13,0.28,0.14a1.78,1.78,0,0,1,.54.34,0.8,0.8,0,0,1,.23.6,0.79,0.79,0,0,1-.1.41,0.87,0.87,0,0,1-.26.28,1.43,1.43,0,0,1-.73.2,2.66,2.66,0,0,1-.88-0.15l0-.38a1.76,1.76,0,0,0,.82.2"/><path class="cls-2" d="M313.92,397.13a1.52,1.52,0,0,0-.18-0.75,0.69,0.69,0,0,0-.62-0.34,0.82,0.82,0,0,0-.67.35,1.19,1.19,0,0,0-.25.74h1.72Zm0.19,1.69a2.66,2.66,0,0,1-.91.17,1.29,1.29,0,0,1-1.1-.47,2.17,2.17,0,0,1,0-2.36,1.16,1.16,0,0,1,1-.46,1.1,1.1,0,0,1,1,.46,2,2,0,0,1,.29,1.09v0.2H312.2a1.31,1.31,0,0,0,.26.84,0.91,0.91,0,0,0,.77.36,1.6,1.6,0,0,0,.48-0.08,1.62,1.62,0,0,0,.4-0.15v0.39Z"/><path class="cls-2" d="M315.56,396.52q0-.36,0-0.74h0.38v0.56h0a2.23,2.23,0,0,1,.13-0.22,1,1,0,0,1,.18-0.2,0.84,0.84,0,0,1,.29-0.15,1.35,1.35,0,0,1,.41-0.05,1,1,0,0,1,.83.34,1.43,1.43,0,0,1,.24.86v2h-0.39V397a1.32,1.32,0,0,0-.17-0.71,0.67,0.67,0,0,0-.58-0.26,0.8,0.8,0,0,0-.73.37,1.06,1.06,0,0,0-.15.36,1.74,1.74,0,0,0,0,.41v1.74h-0.39v-2.4Z"/><path class="cls-2" d="M320,398.66a0.79,0.79,0,0,0,.49-0.15,0.48,0.48,0,0,0,.2-0.41,0.53,0.53,0,0,0-.23-0.44,2.73,2.73,0,0,0-.52-0.28l-0.27-.14-0.25-.17a0.86,0.86,0,0,1-.17-0.23,0.59,0.59,0,0,1-.07-0.29,0.73,0.73,0,0,1,.32-0.66,1.29,1.29,0,0,1,.7-0.19l0.35,0a2.31,2.31,0,0,1,.42.12l0,0.34a1.88,1.88,0,0,0-.69-0.15,0.9,0.9,0,0,0-.48.11,0.37,0.37,0,0,0-.14.15,0.53,0.53,0,0,0-.06.26,0.29,0.29,0,0,0,.07.18,0.73,0.73,0,0,0,.18.15l0.25,0.13,0.28,0.14a1.77,1.77,0,0,1,.53.34,0.89,0.89,0,0,1,.14,1,0.88,0.88,0,0,1-.26.28,1.42,1.42,0,0,1-.73.2,2.67,2.67,0,0,1-.88-0.15l0-.38a1.76,1.76,0,0,0,.82.2"/><path class="cls-2" d="M324.38,396.2a1.66,1.66,0,0,0-.67-0.16,1.09,1.09,0,0,0-.87.36,1.4,1.4,0,0,0-.31.95,1.38,1.38,0,0,0,.31.92,1,1,0,0,0,.83.39,1.85,1.85,0,0,0,.71-0.14l0,0.36a2.6,2.6,0,0,1-.81.11,1.35,1.35,0,0,1-1.13-.5,1.78,1.78,0,0,1-.38-1.14,1.67,1.67,0,0,1,.43-1.19,1.48,1.48,0,0,1,1.12-.45,2.22,2.22,0,0,1,.48,0l0.17,0,0.1,0Z"/><path class="cls-2" d="M325.55,394.31h0.39v2h0a1.12,1.12,0,0,1,.38-0.44,1.14,1.14,0,0,1,.6-0.17,0.94,0.94,0,0,1,.86.37,1.83,1.83,0,0,1,.21,1v1.88h-0.39v-1.87a3.24,3.24,0,0,0,0-.39,0.85,0.85,0,0,0-.1-0.31,0.63,0.63,0,0,0-.62-0.3,0.79,0.79,0,0,0-.72.39,1.56,1.56,0,0,0-.21.81v1.68h-0.39v-4.62Z"/><path class="cls-2" d="M331.22,397.34H330.6a1.84,1.84,0,0,0-.48.1,0.77,0.77,0,0,0-.35.23,0.59,0.59,0,0,0-.14.41,0.47,0.47,0,0,0,.2.43,0.74,0.74,0,0,0,.46.14,0.93,0.93,0,0,0,.54-0.14,0.81,0.81,0,0,0,.28-0.31,1,1,0,0,0,.11-0.38c0-.13,0-0.23,0-0.31v-0.19Zm0,1.08h0a0.94,0.94,0,0,1-.41.42,1.27,1.27,0,0,1-1.11,0,0.79,0.79,0,0,1-.32-0.23,1,1,0,0,1-.19-0.55,0.94,0.94,0,0,1,.19-0.62,1,1,0,0,1,.47-0.33,2.52,2.52,0,0,1,.63-0.14l0.64,0h0.07v-0.16a0.66,0.66,0,0,0-.71-0.81,1.72,1.72,0,0,0-.92.26v-0.37a2.32,2.32,0,0,1,.92-0.22,1,1,0,0,1,1.1,1.17v1.38a4.71,4.71,0,0,0,0,.66h-0.38v-0.5Z"/><path class="cls-2" d="M333.27,396.12h-0.63v-0.33h0.63v-0.23c0-.17,0-0.33,0-0.49a1.22,1.22,0,0,1,.09-0.42,0.66,0.66,0,0,1,.25-0.3,0.83,0.83,0,0,1,.46-0.11h0.2a0.43,0.43,0,0,1,.16.06l0,0.33a0.71,0.71,0,0,0-.31-0.06,0.43,0.43,0,0,0-.29.09,0.51,0.51,0,0,0-.14.24,1.22,1.22,0,0,0,0,.3c0,0.11,0,.22,0,0.32v0.27h0.71v0.33h-0.71v2.81h-0.39v-2.81Z"/><path class="cls-2" d="M336.89,396.12h-0.71v2a0.64,0.64,0,0,0,.1.36,0.34,0.34,0,0,0,.32.15,0.79,0.79,0,0,0,.36-0.07l0,0.32-0.19.06a1.2,1.2,0,0,1-.28,0,0.8,0.8,0,0,1-.4-0.09,0.57,0.57,0,0,1-.22-0.23,1.15,1.15,0,0,1-.08-0.33,3.82,3.82,0,0,1,0-.4v-1.83h-0.61v-0.33h0.61V395l0.39-.14v0.89h0.71v0.33Z"/><path class="cls-2" d="M236.15,403.44l-0.5,0a1.66,1.66,0,0,0-1.29.52,2.18,2.18,0,0,0,0,2.66,1.63,1.63,0,0,0,1.29.52,3.24,3.24,0,0,0,.5,0,1.31,1.31,0,0,0,.46-0.14l0,0.37a1.56,1.56,0,0,1-.47.14,3.6,3.6,0,0,1-.51,0,2.11,2.11,0,0,1-1.59-.61,2.21,2.21,0,0,1-.58-1.61,2.26,2.26,0,0,1,.58-1.61,2.11,2.11,0,0,1,1.58-.61l0.51,0a1.43,1.43,0,0,1,.47.13l0,0.39a1.54,1.54,0,0,0-.46-0.15"/><path class="cls-2" d="M238.5,406.76a0.88,0.88,0,0,0,.77.39,0.91,0.91,0,0,0,.78-0.39,1.55,1.55,0,0,0,.26-0.92,1.61,1.61,0,0,0-.26-0.93,0.93,0.93,0,0,0-.78-0.37,0.89,0.89,0,0,0-.77.38,1.55,1.55,0,0,0-.27.93,1.5,1.5,0,0,0,.27.92m-0.34-2.07a1.31,1.31,0,0,1,1.11-.5,1.33,1.33,0,0,1,1.12.5,2.06,2.06,0,0,1,0,2.28,1.32,1.32,0,0,1-1.12.51,1.3,1.3,0,0,1-1.11-.51,2,2,0,0,1,0-2.28"/><path class="cls-2" d="M241.95,405q0-.36,0-0.74h0.38v0.56h0l0.13-.22a0.93,0.93,0,0,1,.19-0.2,0.84,0.84,0,0,1,.29-0.15,1.35,1.35,0,0,1,.41-0.05,1,1,0,0,1,.83.34,1.44,1.44,0,0,1,.24.86v2H244V405.5a1.33,1.33,0,0,0-.17-0.71,0.67,0.67,0,0,0-.58-0.26,0.79,0.79,0,0,0-.73.37,1.06,1.06,0,0,0-.15.36,1.74,1.74,0,0,0,0,.41v1.74h-0.39V405Z"/><path class="cls-2" d="M246.11,404.6h-0.63v-0.33h0.63V404q0-.25,0-0.49a1.24,1.24,0,0,1,.09-0.42,0.65,0.65,0,0,1,.25-0.3,0.82,0.82,0,0,1,.46-0.11h0.2a0.44,0.44,0,0,1,.16.06l0,0.33a0.71,0.71,0,0,0-.31-0.06,0.42,0.42,0,0,0-.29.09,0.49,0.49,0,0,0-.14.24,1.17,1.17,0,0,0,0,.3c0,0.11,0,.22,0,0.32v0.27h0.71v0.33H246.5v2.81h-0.39V404.6Z"/><path class="cls-2" d="M249.66,403h0.49l-0.78.89h-0.28Zm0.63,2.58a1.52,1.52,0,0,0-.18-0.75,0.69,0.69,0,0,0-.62-0.34,0.82,0.82,0,0,0-.67.35,1.2,1.2,0,0,0-.25.74h1.72Zm0.19,1.69a2.66,2.66,0,0,1-.91.17,1.29,1.29,0,0,1-1.1-.47,1.89,1.89,0,0,1-.33-1.17,1.87,1.87,0,0,1,.37-1.19,1.16,1.16,0,0,1,1-.46,1.1,1.1,0,0,1,1,.46,2,2,0,0,1,.29,1.09V406h-2.15a1.31,1.31,0,0,0,.26.84,0.91,0.91,0,0,0,.77.36,1.6,1.6,0,0,0,.48-0.08,1.66,1.66,0,0,0,.4-0.15v0.39Z"/><path class="cls-2" d="M252.22,406.29a1.78,1.78,0,0,0,.15.43,0.91,0.91,0,0,0,.29.3,0.73,0.73,0,0,0,.45.13,0.75,0.75,0,0,0,.44-0.13,0.91,0.91,0,0,0,.28-0.31,1.86,1.86,0,0,0,.2-0.87,2.5,2.5,0,0,0,0-.46,1.53,1.53,0,0,0-.16-0.42,1,1,0,0,0-.28-0.32,0.81,0.81,0,0,0-.44-0.12,0.79,0.79,0,0,0-.45.12,0.83,0.83,0,0,0-.29.31,1.56,1.56,0,0,0-.15.42,2.55,2.55,0,0,0,0,.47,2.39,2.39,0,0,0,0,.45m2.2,1.12H254v-0.5h0a1,1,0,0,1-1,.57,1.12,1.12,0,0,1-1-.47,2,2,0,0,1-.33-1.17,2,2,0,0,1,.3-1.18,1.12,1.12,0,0,1,1-.46,1.09,1.09,0,0,1,.41.07,0.92,0.92,0,0,1,.3.17,0.85,0.85,0,0,1,.28.36h0v-2h0.39v4.61Z"/><path class="cls-2" d="M257.12,403h0.49l-0.78.89h-0.28Zm0.63,2.58a1.52,1.52,0,0,0-.18-0.75,0.69,0.69,0,0,0-.62-0.34,0.82,0.82,0,0,0-.67.35,1.2,1.2,0,0,0-.25.74h1.72Zm0.19,1.69a2.66,2.66,0,0,1-.91.17,1.29,1.29,0,0,1-1.1-.47,2.17,2.17,0,0,1,0-2.36,1.16,1.16,0,0,1,1-.46,1.1,1.1,0,0,1,1,.46,2,2,0,0,1,.29,1.09V406H256a1.31,1.31,0,0,0,.26.84,0.91,0.91,0,0,0,.77.36,1.6,1.6,0,0,0,.48-0.08,1.66,1.66,0,0,0,.4-0.15v0.39Z"/><path class="cls-2" d="M259.39,405q0-.44,0-0.7h0.39v0.6h0a1.35,1.35,0,0,1,.31-0.47,0.69,0.69,0,0,1,.49-0.2,1.23,1.23,0,0,1,.27,0v0.41a1,1,0,0,0-.28,0,0.66,0.66,0,0,0-.37.11,0.79,0.79,0,0,0-.24.3,1.55,1.55,0,0,0-.12.4,2.36,2.36,0,0,0,0,.44v1.55h-0.39V405Z"/><path class="cls-2" d="M263.69,405.83h-0.61a1.82,1.82,0,0,0-.48.1,0.76,0.76,0,0,0-.35.23,0.59,0.59,0,0,0-.14.41,0.47,0.47,0,0,0,.2.43,0.74,0.74,0,0,0,.45.14,0.93,0.93,0,0,0,.53-0.14,0.79,0.79,0,0,0,.28-0.31,1,1,0,0,0,.1-0.38c0-.13,0-0.23,0-0.31v-0.19Zm0,1.08h0a0.93,0.93,0,0,1-.41.42,1.27,1.27,0,0,1-1.11,0,0.79,0.79,0,0,1-.32-0.23,1,1,0,0,1-.19-0.55,0.93,0.93,0,0,1,.19-0.62,1,1,0,0,1,.47-0.33,2.56,2.56,0,0,1,.63-0.14l0.64,0h0.07v-0.16a0.66,0.66,0,0,0-.71-0.81,1.71,1.71,0,0,0-.92.26v-0.37a2.31,2.31,0,0,1,.92-0.22,1,1,0,0,1,1.1,1.17v1.38a4.72,4.72,0,0,0,0,.66h-0.38v-0.5Z"/><path class="cls-2" d="M266.83,404.6h-0.71v2a0.64,0.64,0,0,0,.1.36,0.34,0.34,0,0,0,.32.15,0.8,0.8,0,0,0,.36-0.07l0,0.32-0.19.06a1.21,1.21,0,0,1-.28,0,0.8,0.8,0,0,1-.4-0.09,0.58,0.58,0,0,1-.22-0.23,1.15,1.15,0,0,1-.08-0.33c0-.12,0-0.26,0-0.4V404.6h-0.62v-0.33h0.62v-0.76l0.39-.14v0.89h0.71v0.33Z"/><path class="cls-2" d="M268,407.41h0.39v-3.14H268v3.14Zm0-4h0.39v-0.52H268v0.52Z"/><path class="cls-2" d="M270.31,406.76a0.88,0.88,0,0,0,.77.39,0.91,0.91,0,0,0,.78-0.39,1.55,1.55,0,0,0,.26-0.92,1.61,1.61,0,0,0-.26-0.93,0.93,0.93,0,0,0-.78-0.37,0.89,0.89,0,0,0-.77.38,1.55,1.55,0,0,0-.27.93,1.5,1.5,0,0,0,.27.92M270,404.7a1.31,1.31,0,0,1,1.11-.5,1.33,1.33,0,0,1,1.12.5,2.06,2.06,0,0,1,0,2.28,1.32,1.32,0,0,1-1.12.51A1.3,1.3,0,0,1,270,407a2,2,0,0,1,0-2.28"/><path class="cls-2" d="M273.75,405q0-.36,0-0.74h0.38v0.56h0l0.13-.22a0.93,0.93,0,0,1,.18-0.2,0.84,0.84,0,0,1,.29-0.15,1.35,1.35,0,0,1,.41-0.05,1,1,0,0,1,.83.34,1.44,1.44,0,0,1,.24.86v2h-0.39V405.5a1.33,1.33,0,0,0-.17-0.71,0.67,0.67,0,0,0-.58-0.26,0.79,0.79,0,0,0-.73.37,1.06,1.06,0,0,0-.15.36,1.74,1.74,0,0,0,0,.41v1.74h-0.39V405Z"/><path class="cls-2" d="M280.36,407.15a0.79,0.79,0,0,0,.49-0.15,0.48,0.48,0,0,0,.2-0.41,0.53,0.53,0,0,0-.23-0.44,2.76,2.76,0,0,0-.52-0.28l-0.27-.14-0.25-.17a0.88,0.88,0,0,1-.17-0.23,0.59,0.59,0,0,1-.07-0.29,0.74,0.74,0,0,1,.32-0.66,1.28,1.28,0,0,1,.7-0.19l0.35,0a2.3,2.3,0,0,1,.42.12l0,0.34a1.87,1.87,0,0,0-.69-0.15,0.9,0.9,0,0,0-.48.11,0.36,0.36,0,0,0-.14.15,0.53,0.53,0,0,0-.06.26,0.29,0.29,0,0,0,.07.18,0.74,0.74,0,0,0,.18.15l0.25,0.13,0.28,0.14a1.77,1.77,0,0,1,.53.34,0.81,0.81,0,0,1,.23.6,0.79,0.79,0,0,1-.1.41,0.87,0.87,0,0,1-.26.28,1.42,1.42,0,0,1-.73.2,2.66,2.66,0,0,1-.88-0.15l0-.38a1.76,1.76,0,0,0,.82.2"/><path class="cls-2" d="M285.1,406.67q0,0.36,0,.74h-0.38v-0.56h0a1.07,1.07,0,0,1-.12.21,1,1,0,0,1-.19.21,0.89,0.89,0,0,1-.29.15,1.13,1.13,0,0,1-.42.07,1,1,0,0,1-.82-0.34,1.36,1.36,0,0,1-.25-0.86v-2H283v1.91a1.2,1.2,0,0,0,.18.7,0.62,0.62,0,0,0,.57.27,0.86,0.86,0,0,0,.45-0.11,0.74,0.74,0,0,0,.28-0.27,1.11,1.11,0,0,0,.16-0.37,1.88,1.88,0,0,0,0-.39v-1.74h0.39v2.4Z"/><path class="cls-2" d="M286.56,407.41h0.39v-3.14h-0.39v3.14Zm0-4h0.39v-0.52h-0.39v0.52Z"/><path class="cls-2" d="M289,407.15a0.79,0.79,0,0,0,.49-0.15,0.48,0.48,0,0,0,.2-0.41,0.53,0.53,0,0,0-.23-0.44,2.76,2.76,0,0,0-.52-0.28l-0.27-.14-0.25-.17a0.88,0.88,0,0,1-.17-0.23,0.59,0.59,0,0,1-.07-0.29,0.74,0.74,0,0,1,.32-0.66,1.28,1.28,0,0,1,.7-0.19l0.35,0a2.3,2.3,0,0,1,.42.12l0,0.34a1.87,1.87,0,0,0-.69-0.15,0.9,0.9,0,0,0-.48.11,0.36,0.36,0,0,0-.14.15,0.53,0.53,0,0,0-.06.26,0.29,0.29,0,0,0,.07.18,0.74,0.74,0,0,0,.18.15l0.25,0.13,0.28,0.14a1.77,1.77,0,0,1,.53.34,0.81,0.81,0,0,1,.23.6,0.79,0.79,0,0,1-.1.41,0.87,0.87,0,0,1-.26.28,1.42,1.42,0,0,1-.73.2,2.66,2.66,0,0,1-.88-0.15l0-.38a1.76,1.76,0,0,0,.82.2"/><path class="cls-2" d="M291.86,407.15a0.79,0.79,0,0,0,.49-0.15,0.48,0.48,0,0,0,.2-0.41,0.53,0.53,0,0,0-.23-0.44,2.72,2.72,0,0,0-.52-0.28l-0.27-.14-0.25-.17a0.86,0.86,0,0,1-.17-0.23,0.59,0.59,0,0,1-.07-0.29,0.74,0.74,0,0,1,.32-0.66,1.29,1.29,0,0,1,.7-0.19l0.35,0a2.27,2.27,0,0,1,.42.12l0,0.34a1.87,1.87,0,0,0-.69-0.15,0.9,0.9,0,0,0-.48.11,0.36,0.36,0,0,0-.14.15,0.52,0.52,0,0,0-.06.26,0.29,0.29,0,0,0,.07.18,0.73,0.73,0,0,0,.18.15l0.25,0.13,0.28,0.14a1.77,1.77,0,0,1,.53.34,0.81,0.81,0,0,1,.23.6,0.79,0.79,0,0,1-.1.41,0.87,0.87,0,0,1-.26.28,1.43,1.43,0,0,1-.73.2,2.66,2.66,0,0,1-.88-0.15l0-.38a1.76,1.76,0,0,0,.82.2"/><path class="cls-2" d="M296.06,405.62a1.52,1.52,0,0,0-.18-0.75,0.69,0.69,0,0,0-.62-0.34,0.82,0.82,0,0,0-.67.35,1.2,1.2,0,0,0-.25.74h1.72Zm0.19,1.69a2.67,2.67,0,0,1-.91.17,1.29,1.29,0,0,1-1.1-.47,2.17,2.17,0,0,1,0-2.36,1.16,1.16,0,0,1,1-.46,1.1,1.1,0,0,1,1,.46,2,2,0,0,1,.29,1.09V406h-2.15a1.31,1.31,0,0,0,.26.84,0.91,0.91,0,0,0,.77.36,1.6,1.6,0,0,0,.48-0.08,1.63,1.63,0,0,0,.4-0.15v0.39Z"/><path class="cls-2" d="M236.15,411.93l-0.5,0a1.66,1.66,0,0,0-1.29.52,2.18,2.18,0,0,0,0,2.66,1.63,1.63,0,0,0,1.29.52,3.24,3.24,0,0,0,.5,0,1.31,1.31,0,0,0,.46-0.14l0,0.37a1.53,1.53,0,0,1-.47.14,3.6,3.6,0,0,1-.51,0,2.11,2.11,0,0,1-1.59-.61,2.21,2.21,0,0,1-.58-1.61,2.26,2.26,0,0,1,.58-1.61,2.11,2.11,0,0,1,1.58-.61l0.51,0a1.43,1.43,0,0,1,.47.13l0,0.39a1.54,1.54,0,0,0-.46-0.15"/><path class="cls-2" d="M238.5,415.25a0.88,0.88,0,0,0,.77.39,0.91,0.91,0,0,0,.78-0.39,1.55,1.55,0,0,0,.26-0.92,1.61,1.61,0,0,0-.26-0.93,0.93,0.93,0,0,0-.78-0.37,0.89,0.89,0,0,0-.77.38,1.55,1.55,0,0,0-.27.93,1.5,1.5,0,0,0,.27.92m-0.34-2.07a1.31,1.31,0,0,1,1.11-.5,1.33,1.33,0,0,1,1.12.5,2.06,2.06,0,0,1,0,2.28,1.32,1.32,0,0,1-1.12.51,1.3,1.3,0,0,1-1.11-.51,2,2,0,0,1,0-2.28"/><path class="cls-2" d="M241.95,413.5q0-.36,0-0.74h0.38v0.56h0l0.13-.22a0.93,0.93,0,0,1,.19-0.2,0.84,0.84,0,0,1,.29-0.15,1.35,1.35,0,0,1,.41-0.05,1,1,0,0,1,.83.34,1.44,1.44,0,0,1,.24.86v2H244V414a1.33,1.33,0,0,0-.17-0.71,0.67,0.67,0,0,0-.58-0.26,0.79,0.79,0,0,0-.73.37,1.06,1.06,0,0,0-.15.36,1.74,1.74,0,0,0,0,.41v1.74h-0.39v-2.4Z"/><path class="cls-2" d="M246.11,413.09h-0.63v-0.33h0.63v-0.23q0-.25,0-0.49a1.24,1.24,0,0,1,.09-0.42,0.65,0.65,0,0,1,.25-0.3,0.82,0.82,0,0,1,.46-0.11h0.2a0.44,0.44,0,0,1,.16.06l0,0.33a0.71,0.71,0,0,0-.31-0.06,0.42,0.42,0,0,0-.29.09,0.49,0.49,0,0,0-.14.24,1.17,1.17,0,0,0,0,.3c0,0.11,0,.22,0,0.32v0.27h0.71v0.33H246.5v2.81h-0.39v-2.81Z"/><path class="cls-2" d="M250.29,414.11a1.52,1.52,0,0,0-.18-0.75,0.69,0.69,0,0,0-.62-0.34,0.82,0.82,0,0,0-.67.35,1.19,1.19,0,0,0-.25.74h1.72Zm0.19,1.69a2.67,2.67,0,0,1-.91.17,1.29,1.29,0,0,1-1.1-.47,2.17,2.17,0,0,1,0-2.36,1.16,1.16,0,0,1,1-.46,1.1,1.1,0,0,1,1,.46,2,2,0,0,1,.29,1.09v0.2h-2.15a1.31,1.31,0,0,0,.26.84,0.91,0.91,0,0,0,.77.36,1.6,1.6,0,0,0,.48-0.08,1.65,1.65,0,0,0,.4-0.15v0.39Z"/><path class="cls-2" d="M252.22,414.78a1.78,1.78,0,0,0,.15.43,0.91,0.91,0,0,0,.29.3,0.73,0.73,0,0,0,.45.13,0.75,0.75,0,0,0,.44-0.13,0.91,0.91,0,0,0,.28-0.31,1.86,1.86,0,0,0,.2-0.87,2.5,2.5,0,0,0,0-.46,1.53,1.53,0,0,0-.16-0.42,1,1,0,0,0-.28-0.32,0.81,0.81,0,0,0-.44-0.12,0.79,0.79,0,0,0-.45.12,0.83,0.83,0,0,0-.29.31,1.56,1.56,0,0,0-.15.42,2.55,2.55,0,0,0,0,.47,2.39,2.39,0,0,0,0,.45m2.2,1.12H254v-0.5h0a1,1,0,0,1-1,.57,1.12,1.12,0,0,1-1-.47,2,2,0,0,1-.33-1.17,2,2,0,0,1,.3-1.18,1.12,1.12,0,0,1,1-.46,1.09,1.09,0,0,1,.41.07,0.92,0.92,0,0,1,.3.17,0.85,0.85,0,0,1,.28.36h0v-2h0.39v4.61Z"/><path class="cls-2" d="M257.75,414.11a1.52,1.52,0,0,0-.18-0.75,0.69,0.69,0,0,0-.62-0.34,0.82,0.82,0,0,0-.67.35,1.19,1.19,0,0,0-.25.74h1.72Zm0.19,1.69a2.67,2.67,0,0,1-.91.17,1.29,1.29,0,0,1-1.1-.47,2.17,2.17,0,0,1,0-2.36,1.16,1.16,0,0,1,1-.46,1.1,1.1,0,0,1,1,.46,2,2,0,0,1,.29,1.09v0.2H256a1.31,1.31,0,0,0,.26.84,0.91,0.91,0,0,0,.77.36,1.6,1.6,0,0,0,.48-0.08,1.65,1.65,0,0,0,.4-0.15v0.39Z"/><path class="cls-2" d="M259.39,413.46q0-.44,0-0.7h0.39v0.6h0a1.35,1.35,0,0,1,.31-0.47,0.69,0.69,0,0,1,.49-0.2,1.23,1.23,0,0,1,.27,0v0.41a1,1,0,0,0-.28,0,0.66,0.66,0,0,0-.37.11,0.79,0.79,0,0,0-.24.3,1.55,1.55,0,0,0-.12.4,2.36,2.36,0,0,0,0,.44v1.55h-0.39v-2.44Z"/><path class="cls-2" d="M263.69,414.32h-0.61a1.82,1.82,0,0,0-.48.1,0.76,0.76,0,0,0-.35.23,0.59,0.59,0,0,0-.14.41,0.47,0.47,0,0,0,.2.43,0.74,0.74,0,0,0,.45.14,0.93,0.93,0,0,0,.53-0.14,0.8,0.8,0,0,0,.28-0.31,1,1,0,0,0,.1-0.38c0-.13,0-0.23,0-0.31v-0.19Zm0,1.08h0a0.93,0.93,0,0,1-.41.42,1.29,1.29,0,0,1-.58.15,1.26,1.26,0,0,1-.53-0.1,0.79,0.79,0,0,1-.32-0.23,1,1,0,0,1-.19-0.55,0.93,0.93,0,0,1,.19-0.62,1,1,0,0,1,.47-0.33A2.56,2.56,0,0,1,263,414l0.64,0h0.07v-0.16A0.66,0.66,0,0,0,263,413a1.71,1.71,0,0,0-.92.26V412.9a2.31,2.31,0,0,1,.92-0.22,1,1,0,0,1,1.1,1.17v1.38a4.72,4.72,0,0,0,0,.66h-0.38v-0.5Z"/><polygon class="cls-2" points="265.19 415.57 267.08 413.09 265.26 413.09 265.26 412.76 267.53 412.76 267.53 413.09 265.64 415.56 267.53 415.56 267.53 415.9 265.19 415.9 265.19 415.57"/><path class="cls-2" d="M268.69,415.9h0.39v-3.14h-0.39v3.14Zm0-4h0.39V411.4h-0.39v0.52Z"/><path class="cls-2" d="M271,415.25a0.88,0.88,0,0,0,.77.39,0.91,0.91,0,0,0,.78-0.39,1.55,1.55,0,0,0,.26-0.92,1.61,1.61,0,0,0-.26-0.93,0.93,0.93,0,0,0-.78-0.37,0.89,0.89,0,0,0-.77.38,1.55,1.55,0,0,0-.27.93,1.5,1.5,0,0,0,.27.92m-0.34-2.07a1.31,1.31,0,0,1,1.11-.5,1.33,1.33,0,0,1,1.12.5,2.06,2.06,0,0,1,0,2.28,1.32,1.32,0,0,1-1.12.51,1.3,1.3,0,0,1-1.11-.51,2,2,0,0,1,0-2.28"/><path class="cls-2" d="M274.44,413.5q0-.36,0-0.74h0.38v0.56h0l0.13-.22a0.93,0.93,0,0,1,.18-0.2,0.84,0.84,0,0,1,.29-0.15,1.35,1.35,0,0,1,.41-0.05,1,1,0,0,1,.83.34,1.44,1.44,0,0,1,.24.86v2H276.5V414a1.33,1.33,0,0,0-.17-0.71,0.67,0.67,0,0,0-.58-0.26,0.79,0.79,0,0,0-.73.37,1.06,1.06,0,0,0-.15.36,1.74,1.74,0,0,0,0,.41v1.74h-0.39v-2.4Z"/><path class="cls-2" d="M280.25,414.11a1.52,1.52,0,0,0-.18-0.75,0.69,0.69,0,0,0-.62-0.34,0.82,0.82,0,0,0-.67.35,1.19,1.19,0,0,0-.25.74h1.72Zm0.19,1.69a2.67,2.67,0,0,1-.91.17,1.29,1.29,0,0,1-1.1-.47,2.17,2.17,0,0,1,0-2.36,1.16,1.16,0,0,1,1-.46,1.1,1.1,0,0,1,1,.46,2,2,0,0,1,.29,1.09v0.2h-2.15a1.31,1.31,0,0,0,.26.84,0.91,0.91,0,0,0,.77.36,1.6,1.6,0,0,0,.48-0.08,1.65,1.65,0,0,0,.4-0.15v0.39Z"/><path class="cls-2" d="M284.9,415.6a1.09,1.09,0,0,0,.69-0.21,0.81,0.81,0,0,0,.28-0.67,0.65,0.65,0,0,0-.31-0.53,2.14,2.14,0,0,0-.31-0.21l-0.36-.2-0.36-.22a2,2,0,0,1-.32-0.25,0.87,0.87,0,0,1-.31-0.67,1,1,0,0,1,.4-0.83,1.57,1.57,0,0,1,1-.29l0.39,0a2.58,2.58,0,0,1,.45.12l-0.07.39a1.7,1.7,0,0,0-.78-0.16,1.68,1.68,0,0,0-.33,0,0.93,0.93,0,0,0-.3.13,0.65,0.65,0,0,0-.22.22,0.69,0.69,0,0,0-.09.36,0.49,0.49,0,0,0,.09.28,0.87,0.87,0,0,0,.22.23,2.33,2.33,0,0,0,.32.2l0.36,0.2a2.49,2.49,0,0,1,.68.47,1.13,1.13,0,0,1-.14,1.67,1.71,1.71,0,0,1-1,.28,2.32,2.32,0,0,1-1-.18l0-.44a1.62,1.62,0,0,0,.95.25"/><polygon class="cls-2" points="288.67 415.9 288.21 415.9 287.15 412.76 287.57 412.76 288.44 415.47 288.45 415.47 289.36 412.76 289.77 412.76 288.67 415.9"/><path class="cls-2" d="M290.79,415.9h0.39v-3.14h-0.39v3.14Zm0-4h0.39V411.4h-0.39v0.52Z"/><polygon class="cls-2" points="292.35 415.57 294.24 413.09 292.42 413.09 292.42 412.76 294.69 412.76 294.69 413.09 292.8 415.56 294.69 415.56 294.69 415.9 292.35 415.9 292.35 415.57"/><polygon class="cls-2" points="295.56 415.57 297.45 413.09 295.63 413.09 295.63 412.76 297.9 412.76 297.9 413.09 296.01 415.56 297.9 415.56 297.9 415.9 295.56 415.9 295.56 415.57"/><path class="cls-2" d="M301,414.11a1.52,1.52,0,0,0-.18-0.75,0.69,0.69,0,0,0-.62-0.34,0.82,0.82,0,0,0-.67.35,1.19,1.19,0,0,0-.25.74H301Zm0.19,1.69a2.67,2.67,0,0,1-.91.17,1.29,1.29,0,0,1-1.1-.47,2.17,2.17,0,0,1,0-2.36,1.16,1.16,0,0,1,1-.46,1.1,1.1,0,0,1,1,.46,2,2,0,0,1,.29,1.09v0.2h-2.15a1.31,1.31,0,0,0,.26.84,0.91,0.91,0,0,0,.77.36,1.6,1.6,0,0,0,.48-0.08,1.63,1.63,0,0,0,.4-0.15v0.39Z"/><path class="cls-2" d="M302.62,413.46q0-.44,0-0.7H303v0.6h0a1.32,1.32,0,0,1,.31-0.47,0.69,0.69,0,0,1,.49-0.2,1.23,1.23,0,0,1,.27,0v0.41a1,1,0,0,0-.28,0,0.66,0.66,0,0,0-.37.11,0.8,0.8,0,0,0-.24.3,1.59,1.59,0,0,0-.12.4,2.45,2.45,0,0,0,0,.44v1.55h-0.39v-2.44Z"/><path class="cls-2" d="M306.91,414.32H306.3a1.84,1.84,0,0,0-.48.1,0.76,0.76,0,0,0-.34.23,0.59,0.59,0,0,0-.14.41,0.47,0.47,0,0,0,.2.43,0.74,0.74,0,0,0,.46.14,0.93,0.93,0,0,0,.53-0.14,0.81,0.81,0,0,0,.28-0.31,1,1,0,0,0,.1-0.38c0-.13,0-0.23,0-0.31v-0.19Zm0,1.08h0a0.94,0.94,0,0,1-.41.42,1.28,1.28,0,0,1-.58.15,1.26,1.26,0,0,1-.53-0.1,0.8,0.8,0,0,1-.32-0.23,1,1,0,0,1-.19-0.55,0.93,0.93,0,0,1,.19-0.62,1,1,0,0,1,.47-0.33,2.54,2.54,0,0,1,.63-0.14l0.64,0h0.07v-0.16a0.66,0.66,0,0,0-.71-0.81,1.71,1.71,0,0,0-.92.26V412.9a2.31,2.31,0,0,1,.92-0.22,1,1,0,0,1,1.1,1.17v1.38a4.71,4.71,0,0,0,0,.66h-0.38v-0.5Z"/><path class="cls-2" d="M236.15,420.42a4.21,4.21,0,0,0-.5,0,1.66,1.66,0,0,0-1.29.52,2.18,2.18,0,0,0,0,2.66,1.63,1.63,0,0,0,1.29.52,3.24,3.24,0,0,0,.5,0,1.31,1.31,0,0,0,.46-0.14l0,0.37a1.54,1.54,0,0,1-.47.14,3.48,3.48,0,0,1-.51,0,2.11,2.11,0,0,1-1.59-.61,2.21,2.21,0,0,1-.58-1.61,2.26,2.26,0,0,1,.58-1.61,2.11,2.11,0,0,1,1.58-.61l0.51,0a1.4,1.4,0,0,1,.47.13l0,0.39a1.54,1.54,0,0,0-.46-0.15"/><path class="cls-2" d="M238.5,423.74a0.88,0.88,0,0,0,.77.39,0.91,0.91,0,0,0,.78-0.39,1.55,1.55,0,0,0,.26-0.92,1.61,1.61,0,0,0-.26-0.93,0.93,0.93,0,0,0-.78-0.37,0.89,0.89,0,0,0-.77.38,1.55,1.55,0,0,0-.27.93,1.5,1.5,0,0,0,.27.92m-0.34-2.07a1.31,1.31,0,0,1,1.11-.5,1.33,1.33,0,0,1,1.12.5,2.06,2.06,0,0,1,0,2.28,1.32,1.32,0,0,1-1.12.5,1.3,1.3,0,0,1-1.11-.5,2,2,0,0,1,0-2.28"/><path class="cls-2" d="M241.95,422q0-.36,0-0.74h0.38v0.56h0l0.13-.22a0.93,0.93,0,0,1,.19-0.2,0.84,0.84,0,0,1,.29-0.15,1.35,1.35,0,0,1,.41-0.05,1,1,0,0,1,.83.34,1.44,1.44,0,0,1,.24.86v2H244v-1.91a1.33,1.33,0,0,0-.17-0.71,0.67,0.67,0,0,0-.58-0.26,0.79,0.79,0,0,0-.73.37,1.06,1.06,0,0,0-.15.36,1.74,1.74,0,0,0,0,.41v1.74h-0.39V422Z"/><path class="cls-2" d="M246.11,421.58h-0.63v-0.33h0.63V421q0-.25,0-0.49a1.24,1.24,0,0,1,.09-0.42,0.65,0.65,0,0,1,.25-0.3,0.82,0.82,0,0,1,.46-0.11h0.2a0.44,0.44,0,0,1,.16.06l0,0.33A0.71,0.71,0,0,0,247,420a0.42,0.42,0,0,0-.29.09,0.5,0.5,0,0,0-.14.24,1.17,1.17,0,0,0,0,.3c0,0.11,0,.22,0,0.32v0.27h0.71v0.33H246.5v2.81h-0.39v-2.81Z"/><path class="cls-2" d="M250.29,422.59a1.52,1.52,0,0,0-.18-0.75,0.69,0.69,0,0,0-.62-0.34,0.82,0.82,0,0,0-.67.34,1.19,1.19,0,0,0-.25.74h1.72Zm0.19,1.69a2.67,2.67,0,0,1-.91.17,1.29,1.29,0,0,1-1.1-.47,2.17,2.17,0,0,1,0-2.36,1.16,1.16,0,0,1,1-.45,1.1,1.1,0,0,1,1,.46,2,2,0,0,1,.29,1.09v0.2h-2.15a1.31,1.31,0,0,0,.26.84,0.91,0.91,0,0,0,.77.36,1.6,1.6,0,0,0,.48-0.08,1.65,1.65,0,0,0,.4-0.15v0.39Z"/><path class="cls-2" d="M252.22,423.26a1.78,1.78,0,0,0,.15.43,0.91,0.91,0,0,0,.29.3,0.73,0.73,0,0,0,.45.13,0.75,0.75,0,0,0,.44-0.13,0.91,0.91,0,0,0,.28-0.31,1.86,1.86,0,0,0,.2-0.87,2.48,2.48,0,0,0,0-.45,1.52,1.52,0,0,0-.16-0.42,1,1,0,0,0-.28-0.32,0.81,0.81,0,0,0-.44-0.12,0.79,0.79,0,0,0-.45.12,0.83,0.83,0,0,0-.29.31,1.56,1.56,0,0,0-.15.42,2.55,2.55,0,0,0,0,.47,2.39,2.39,0,0,0,0,.45m2.2,1.12H254v-0.5h0a1,1,0,0,1-1,.57,1.12,1.12,0,0,1-1-.47,2,2,0,0,1-.33-1.17,2,2,0,0,1,.3-1.18,1.12,1.12,0,0,1,1-.46,1.09,1.09,0,0,1,.41.07,0.92,0.92,0,0,1,.3.17,0.85,0.85,0,0,1,.28.36h0v-2h0.39v4.61Z"/><path class="cls-2" d="M257.75,422.59a1.52,1.52,0,0,0-.18-0.75,0.69,0.69,0,0,0-.62-0.34,0.82,0.82,0,0,0-.67.34,1.19,1.19,0,0,0-.25.74h1.72Zm0.19,1.69a2.67,2.67,0,0,1-.91.17,1.29,1.29,0,0,1-1.1-.47,2.17,2.17,0,0,1,0-2.36,1.16,1.16,0,0,1,1-.45,1.1,1.1,0,0,1,1,.46,2,2,0,0,1,.29,1.09v0.2H256a1.31,1.31,0,0,0,.26.84,0.91,0.91,0,0,0,.77.36,1.6,1.6,0,0,0,.48-0.08,1.65,1.65,0,0,0,.4-0.15v0.39Z"/><path class="cls-2" d="M259.39,421.95q0-.44,0-0.7h0.39v0.6h0a1.35,1.35,0,0,1,.31-0.47,0.69,0.69,0,0,1,.49-0.2,1.23,1.23,0,0,1,.27,0v0.41a1,1,0,0,0-.28,0,0.66,0.66,0,0,0-.37.11,0.79,0.79,0,0,0-.24.3,1.55,1.55,0,0,0-.12.4,2.36,2.36,0,0,0,0,.44v1.55h-0.39v-2.44Z"/><path class="cls-2" d="M263.69,422.8h-0.61a1.82,1.82,0,0,0-.48.1,0.76,0.76,0,0,0-.35.23,0.59,0.59,0,0,0-.14.41,0.47,0.47,0,0,0,.2.43,0.74,0.74,0,0,0,.45.14,0.93,0.93,0,0,0,.53-0.14,0.79,0.79,0,0,0,.28-0.31,1,1,0,0,0,.1-0.38c0-.13,0-0.23,0-0.31V422.8Zm0,1.08h0a0.93,0.93,0,0,1-.41.42,1.27,1.27,0,0,1-1.11,0,0.79,0.79,0,0,1-.32-0.23,1,1,0,0,1-.19-0.55,0.93,0.93,0,0,1,.19-0.62,1,1,0,0,1,.47-0.33,2.56,2.56,0,0,1,.63-0.14l0.64,0h0.07v-0.16a0.66,0.66,0,0,0-.71-0.81,1.71,1.71,0,0,0-.92.26v-0.37a2.31,2.31,0,0,1,.92-0.22,1,1,0,0,1,1.1,1.17v1.39a4.72,4.72,0,0,0,0,.66h-0.38v-0.5Z"/><polygon class="cls-2" points="265.19 424.06 267.08 421.58 265.26 421.58 265.26 421.25 267.53 421.25 267.53 421.58 265.64 424.05 267.53 424.05 267.53 424.38 265.19 424.38 265.19 424.06"/><path class="cls-2" d="M268.69,424.38h0.39v-3.14h-0.39v3.14Zm0-4h0.39v-0.52h-0.39v0.52Z"/><path class="cls-2" d="M273,423.65q0,0.36,0,.74h-0.38v-0.56h0a1.07,1.07,0,0,1-.12.21,1,1,0,0,1-.19.21,0.89,0.89,0,0,1-.29.15,1.13,1.13,0,0,1-.42.07,1,1,0,0,1-.83-0.34,1.36,1.36,0,0,1-.25-0.86v-2h0.39v1.91a1.2,1.2,0,0,0,.18.7,0.62,0.62,0,0,0,.57.27,0.86,0.86,0,0,0,.45-0.11,0.74,0.74,0,0,0,.28-0.27,1.09,1.09,0,0,0,.16-0.37,1.88,1.88,0,0,0,0-.39v-1.74H273v2.4Z"/><path class="cls-2" d="M274.44,422q0-.36,0-0.74h0.38v0.56h0l0.13-.22a0.93,0.93,0,0,1,.18-0.2,0.84,0.84,0,0,1,.29-0.15,1.35,1.35,0,0,1,.41-0.05,1,1,0,0,1,.83.34,1.44,1.44,0,0,1,.24.86v2H276.5v-1.91a1.33,1.33,0,0,0-.17-0.71,0.67,0.67,0,0,0-.58-0.26,0.79,0.79,0,0,0-.73.37,1.06,1.06,0,0,0-.15.36,1.74,1.74,0,0,0,0,.41v1.74h-0.39V422Z"/><path class="cls-2" d="M281,424.13a0.79,0.79,0,0,0,.49-0.15,0.48,0.48,0,0,0,.2-0.41,0.53,0.53,0,0,0-.23-0.44,2.7,2.7,0,0,0-.52-0.28l-0.27-.14-0.25-.17a0.88,0.88,0,0,1-.17-0.23,0.59,0.59,0,0,1-.07-0.29,0.73,0.73,0,0,1,.32-0.66,1.28,1.28,0,0,1,.7-0.19l0.35,0a2.3,2.3,0,0,1,.42.12l0,0.34a1.87,1.87,0,0,0-.69-0.15,0.89,0.89,0,0,0-.48.11,0.36,0.36,0,0,0-.14.15,0.53,0.53,0,0,0-.06.26,0.29,0.29,0,0,0,.07.18,0.74,0.74,0,0,0,.18.15l0.25,0.13,0.28,0.14a1.76,1.76,0,0,1,.53.34,0.81,0.81,0,0,1,.23.6,0.79,0.79,0,0,1-.1.41,0.87,0.87,0,0,1-.26.28,1.42,1.42,0,0,1-.73.2,2.66,2.66,0,0,1-.88-0.15l0-.38a1.76,1.76,0,0,0,.82.2"/><polygon class="cls-2" points="284.43 424.38 283.97 424.38 282.91 421.25 283.33 421.25 284.2 423.96 284.21 423.96 285.12 421.25 285.53 421.25 284.43 424.38"/><path class="cls-2" d="M286.55,424.38h0.39v-3.14h-0.39v3.14Zm0-4h0.39v-0.52h-0.39v0.52Z"/><polygon class="cls-2" points="288.11 424.06 290 421.58 288.18 421.58 288.18 421.25 290.45 421.25 290.45 421.58 288.56 424.05 290.45 424.05 290.45 424.38 288.11 424.38 288.11 424.06"/><path class="cls-2" d="M291.61,421.95c0-.29,0-0.52,0-0.7H292v0.6h0a1.34,1.34,0,0,1,.31-0.47,0.69,0.69,0,0,1,.49-0.2,1.24,1.24,0,0,1,.27,0v0.41a1,1,0,0,0-.28,0,0.66,0.66,0,0,0-.37.11,0.81,0.81,0,0,0-.24.3,1.59,1.59,0,0,0-.12.4,2.45,2.45,0,0,0,0,.44v1.55h-0.39v-2.44Z"/><path class="cls-2" d="M295.9,422.8h-0.61a1.84,1.84,0,0,0-.48.1,0.76,0.76,0,0,0-.34.23,0.59,0.59,0,0,0-.14.41,0.48,0.48,0,0,0,.2.43,0.74,0.74,0,0,0,.46.14,0.93,0.93,0,0,0,.53-0.14,0.79,0.79,0,0,0,.28-0.31,1,1,0,0,0,.1-0.38c0-.13,0-0.23,0-0.31V422.8Zm0,1.08h0a0.94,0.94,0,0,1-.41.42,1.27,1.27,0,0,1-1.11,0,0.8,0.8,0,0,1-.32-0.23,1,1,0,0,1-.19-0.55,0.93,0.93,0,0,1,.19-0.62,1,1,0,0,1,.47-0.33,2.54,2.54,0,0,1,.63-0.14l0.64,0h0.07v-0.16a0.66,0.66,0,0,0-.71-0.81,1.71,1.71,0,0,0-.92.26v-0.37a2.31,2.31,0,0,1,.92-0.22,1,1,0,0,1,1.1,1.17v1.39a4.71,4.71,0,0,0,0,.66h-0.38v-0.5Z"/><path class="cls-3" d="M226.5,394.44a23.54,23.54,0,0,0-8.7-1.42h0a23.55,23.55,0,0,0-8.7,1.42s-0.29,6.31.94,9.88a13.19,13.19,0,0,0,7.76,8h0a13.2,13.2,0,0,0,7.76-8c1.24-3.57.94-9.88,0.94-9.88"/><polygon class="cls-2" points="223.58 399.88 223.58 403.36 219.52 403.36 219.52 407.42 216.05 407.42 216.05 403.36 211.99 403.36 211.99 399.88 216.05 399.88 216.05 395.82 219.52 395.82 219.52 399.88 223.58 399.88"/></svg>