<svg id="Layer_1" data-name="Layer 1" xmlns="http://www.w3.org/2000/svg" viewBox="0 0 177.16 55.86"><defs><style>.cls-1{fill:#fff}.cls-2{fill:#e2231a}</style></defs><title>logo</title><path class="cls-1" d="M62.6 57.8h.4v-1.63l1.56 1.62h.54L63.37 56l1.54-1.4h-.5L63 55.93v-2.78h-.4v4.65zm-1-4.53h-.37v.52h.39v-.52zm-.37 4.53h.39v-3.17h-.39v3.17zm-.7-3.16h-.72v-.9l-.39.14v.76h-.62V55h.62v1.85c0 .58 0 1.05.72 1.05a1.44 1.44 0 0 0 .48-.09v-.32a.91.91 0 0 1-.36.07.43.43 0 0 1-.45-.56v-2h.72v-.37zm-2.68 1.76a1 1 0 0 1-.94 1.14.56.56 0 0 1-.66-.54c0-.7.81-.76 1.48-.76h.11v.19zm0 1.4h.38a4.49 4.49 0 0 1 0-.66v-1.4a1 1 0 0 0-1.11-1.18 2.49 2.49 0 0 0-.93.22v.38a1.68 1.68 0 0 1 .93-.26.66.66 0 0 1 .72.81v.16h-.07c-.82 0-1.95 0-1.95 1.11a.89.89 0 0 0 1 .89 1.11 1.11 0 0 0 1-.58v.51zm-2.8-4.53h-.36v.52h.39v-.52zm-.36 4.53h.39v-3.17h-.39v3.17zm-.55-3.16h-.41l-.92 2.73-.87-2.73h-.44l1.07 3.16H53zm-3.72 1.63h-1.88l.94-2.39zM47.5 57.8h.42l.47-1.16h2.18L51 57.8h.45l-1.72-4.33h-.46zm-4.76 0h.39v-1.7a1 1 0 0 1 .94-1.21c.65 0 .75.47.75 1v1.91h.39v-1.9c0-.78-.23-1.35-1.08-1.35a1.07 1.07 0 0 0-1 .61v-2h-.39v4.64zm-.66-3.11a2.37 2.37 0 0 0-.76-.12 1.53 1.53 0 0 0-1.56 1.66 1.5 1.5 0 0 0 1.51 1.65 2.34 2.34 0 0 0 .81-.11v-.36a2 2 0 0 1-.71.14 1.2 1.2 0 0 1-1.15-1.32 1.18 1.18 0 0 1 1.19-1.32 1.8 1.8 0 0 1 .68.16zM39 53.27h-.39v.52H39v-.52zm-.39 4.53H39v-3.17h-.39v3.17zM35.7 56a1 1 0 0 1 .93-1.1.92.92 0 0 1 .81 1.1H35.7zm1.93 1.31a2 2 0 0 1-.89.23 1.07 1.07 0 0 1-1-1.21h2.16v-.2a1.33 1.33 0 0 0-1.26-1.57 1.45 1.45 0 0 0-1.33 1.66 1.4 1.4 0 0 0 1.44 1.65 2.58 2.58 0 0 0 .92-.17v-.4zm-4.07.49h.39v-1.57a1 1 0 0 1 .79-1.23 1 1 0 0 1 .26 0v-.4a1.13 1.13 0 0 0-.27 0 .94.94 0 0 0-.81.68v-.65h-.39a5.62 5.62 0 0 1 0 .71v2.46zM30.65 56a1 1 0 0 1 .93-1.1.92.92 0 0 1 .81 1.1h-1.74zm1.93 1.31a2 2 0 0 1-.89.23 1.07 1.07 0 0 1-1-1.21h2.16v-.2a1.33 1.33 0 0 0-1.26-1.57 1.45 1.45 0 0 0-1.33 1.66 1.4 1.4 0 0 0 1.44 1.65 2.58 2.58 0 0 0 .92-.17v-.4zm-5.12-3.46H28a.78.78 0 0 1 .94.71.87.87 0 0 1-1.05.81h-.43v-1.53zm0 1.89h.38c.63 0 1.3.08 1.3.85a1 1 0 0 1-1.23.84h-.47v-1.7zM27 57.8h.86c.9 0 1.67-.29 1.67-1.23a1 1 0 0 0-.92-1 .89.89 0 0 0 .79-1 1.13 1.13 0 0 0-1.4-1.1h-1v4.33zm150-11.09h-1.24V46h3.35v.68h-1.24v3.65H177v-3.62zm-2.79-.07h-.22a.63.63 0 0 0-.22.09.49.49 0 0 0-.17.19.59.59 0 0 0-.07.3.32.32 0 0 0 .09.23.9.9 0 0 0 .22.17l.31.14.34.14a2.67 2.67 0 0 1 .35.16 1.27 1.27 0 0 1 .3.24 1.17 1.17 0 0 1 .22.33 1.35 1.35 0 0 1 .07.48 1.14 1.14 0 0 1-.48 1 2.06 2.06 0 0 1-1.15.3 2.73 2.73 0 0 1-.56 0l-.55-.12.08-.78a2 2 0 0 0 1 .27 1.05 1.05 0 0 0 .51-.14.46.46 0 0 0 .25-.42.47.47 0 0 0-.07-.27.71.71 0 0 0-.22-.19 5.8 5.8 0 0 0-.65-.28 2.43 2.43 0 0 1-.34-.17 1.61 1.61 0 0 1-.31-.22 1.17 1.17 0 0 1-.22-.33 1.09 1.09 0 0 1-.09-.45 1.17 1.17 0 0 1 .48-1 1.86 1.86 0 0 1 1-.29 3.34 3.34 0 0 1 1 .15l-.08.71a2.27 2.27 0 0 0-.88-.19m-6-.61h.87v2.5a1.56 1.56 0 0 0 .2.88.88.88 0 0 0 1.4 0 1.67 1.67 0 0 0 .2-.88V46h.87v2.77a1.77 1.77 0 0 1-3.53 0V46zm-2 .61h-.22a.64.64 0 0 0-.22.09.48.48 0 0 0-.17.19.58.58 0 0 0-.07.3.33.33 0 0 0 .09.23.9.9 0 0 0 .22.17l.31.14.34.14a2.8 2.8 0 0 1 .35.16 1.29 1.29 0 0 1 .3.24 1.19 1.19 0 0 1 .22.33 1.37 1.37 0 0 1 .07.48 1.14 1.14 0 0 1-.48 1 2.06 2.06 0 0 1-1.15.3 2.73 2.73 0 0 1-.57 0l-.54-.12.08-.78a2 2 0 0 0 1 .27 1 1 0 0 0 .51-.14.49.49 0 0 0 .18-.69.71.71 0 0 0-.22-.19 5.8 5.8 0 0 0-.65-.28 2.48 2.48 0 0 1-.34-.17 1.65 1.65 0 0 1-.31-.22 1.19 1.19 0 0 1-.22-.33 1.09 1.09 0 0 1-.09-.45 1.17 1.17 0 0 1 .48-1 1.85 1.85 0 0 1 1-.29 3.35 3.35 0 0 1 1 .15l-.08.71a2.26 2.26 0 0 0-.88-.19m-4.13 3.55a2.21 2.21 0 0 1-1.1.25 1.49 1.49 0 0 1-1.67-1.66 1.91 1.91 0 0 1 .37-1.2 1.35 1.35 0 0 1 1.11-.49 1.33 1.33 0 0 1 1.21.54 2.66 2.66 0 0 1 .31 1.39h-2.21a.81.81 0 0 0 .28.59.92.92 0 0 0 .63.22 1.63 1.63 0 0 0 .57-.1 2.53 2.53 0 0 0 .49-.22v.68zm-.56-1.74a.94.94 0 0 0-.17-.53.61.61 0 0 0-.51-.22.69.69 0 0 0-.53.21.89.89 0 0 0-.21.54h1.41zm-3.71-2.74h.83v4.65h-.83v-4.75zm-1.72 0H157v4.65h-.83v-4.75zm-.9 4.48a2.2 2.2 0 0 1-1.1.25 1.49 1.49 0 0 1-1.67-1.66 1.91 1.91 0 0 1 .37-1.2 1.35 1.35 0 0 1 1.11-.49 1.33 1.33 0 0 1 1.21.54 2.66 2.66 0 0 1 .31 1.39h-2.21a.81.81 0 0 0 .28.59.92.92 0 0 0 .63.22 1.62 1.62 0 0 0 .57-.1 2.5 2.5 0 0 0 .49-.22v.68zm-.56-1.74a.93.93 0 0 0-.17-.53.61.61 0 0 0-.34-.32.7.7 0 0 0-.53.21.89.89 0 0 0-.21.54h1.41zm-4.14-.68h-.61v-.71h.61v-.64l.83-.27v.9h.74v.61h-.74v1.49a.66.66 0 0 0 .08.36.32.32 0 0 0 .31.17.72.72 0 0 0 .38-.09v.66a2.15 2.15 0 0 1-.61.07.92.92 0 0 1-1-1v-1.65zm-1.13.06l-.35-.11a2.27 2.27 0 0 0-.4 0 .77.77 0 0 0-.32.07.3.3 0 0 0-.17.29.28.28 0 0 0 .23.25l.24.08.26.09a1.55 1.55 0 0 1 .27.11 1.15 1.15 0 0 1 .22.17.78.78 0 0 1 .17.26 1.1 1.1 0 0 1 .06.38.9.9 0 0 1-.41.8 1.76 1.76 0 0 1-.93.24 3.64 3.64 0 0 1-.94-.14v-.68a1.7 1.7 0 0 0 .82.21.81.81 0 0 0 .35-.09.31.31 0 0 0 .19-.3.34.34 0 0 0-.06-.2.42.42 0 0 0-.17-.12 4.26 4.26 0 0 0-.5-.16l-.26-.11a.91.91 0 0 1-.24-.16.65.65 0 0 1-.16-.25.81.81 0 0 1-.07-.35.83.83 0 0 1 .39-.76 1.54 1.54 0 0 1 .86-.24 3.58 3.58 0 0 1 .51 0l.4.09zm-2.75 0l-.35-.11a2.26 2.26 0 0 0-.4 0 .77.77 0 0 0-.32.07.3.3 0 0 0-.17.29.28.28 0 0 0 .23.25l.24.08.26.09a1.55 1.55 0 0 1 .27.11 1.12 1.12 0 0 1 .22.17.8.8 0 0 1 .17.26 1.13 1.13 0 0 1 .06.38.9.9 0 0 1-.41.8 1.75 1.75 0 0 1-.93.24 3.64 3.64 0 0 1-.94-.14v-.68a1.7 1.7 0 0 0 .82.21.81.81 0 0 0 .35-.09.31.31 0 0 0 .19-.3.35.35 0 0 0-.06-.2.43.43 0 0 0-.17-.12 4.26 4.26 0 0 0-.5-.16l-.05-.24a.91.91 0 0 1-.24-.16.65.65 0 0 1-.16-.25.81.81 0 0 1-.07-.35.83.83 0 0 1 .39-.76 1.54 1.54 0 0 1 .86-.24 3.61 3.61 0 0 1 .51 0l.4.09zm-2.75-.67v3.06a2.47 2.47 0 0 1-.06.31 1.43 1.43 0 0 1-.27.54 1.2 1.2 0 0 1-.51.37 2.16 2.16 0 0 1-.83.15 3.08 3.08 0 0 1-1.1-.22l.07-.71a2.89 2.89 0 0 0 .46.19 1.72 1.72 0 0 0 .46.09 1.21 1.21 0 0 0 .55-.12.76.76 0 0 0 .29-.3 1.21 1.21 0 0 0 .12-.4v-.42a.94.94 0 0 1-.37.35 1.2 1.2 0 0 1-.62.16 1.11 1.11 0 0 1-1-.49 1.93 1.93 0 0 1-.3-1.12 2 2 0 0 1 .32-1.12 1.16 1.16 0 0 1 1-.53 1.1 1.1 0 0 1 1 .51v-.4h.79zm-1 2.25a1.32 1.32 0 0 0 .17-.69 1.39 1.39 0 0 0-.16-.7.6.6 0 0 0-.53-.29.62.62 0 0 0-.58.32 1.33 1.33 0 0 0-.17.69 1.23 1.23 0 0 0 .18.64.79.79 0 0 0 .22.23.51.51 0 0 0 .3.09.62.62 0 0 0 .57-.3m-5.72-2.25h.98v.35a1.24 1.24 0 0 1 1-.51 1 1 0 0 1 .83.35 1.49 1.49 0 0 1 .25.9v2h-.83v-2.02a.82.82 0 0 0-.06-.29.45.45 0 0 0-.15-.23.55.55 0 0 0-.32-.08.57.57 0 0 0-.36.11.83.83 0 0 0-.22.27 1.24 1.24 0 0 0-.11.34 1.76 1.76 0 0 0 0 .35v1.56h-.83v-3.19zm-.85 3.19h-.79v-.52a1.3 1.3 0 0 1-1 .51 1 1 0 0 1-.82-.36 1.42 1.42 0 0 1-.27-.89v-2h.83v1.7a.9.9 0 0 0 0 .14v.16a1.45 1.45 0 0 0 .06.3.56.56 0 0 0 .16.22.46.46 0 0 0 .3.09.59.59 0 0 0 .38-.12.67.67 0 0 0 .22-.27 1 1 0 0 0 .11-.34 2.55 2.55 0 0 0 0-.34v-1.56h.83v3.19zm-6.72-4.65h.83v1.81a1.16 1.16 0 0 1 1-.51 1 1 0 0 1 .83.35 1.48 1.48 0 0 1 .25.9v2h-.66v-2.02a.8.8 0 0 0-.06-.29.44.44 0 0 0-.15-.23.55.55 0 0 0-.32-.08.57.57 0 0 0-.36.11.83.83 0 0 0-.22.27 1.24 1.24 0 0 0-.11.34 1.76 1.76 0 0 0 0 .35v1.56h-.88v-4.64zm-.68 2.14a1 1 0 0 0-.24-.09 1.54 1.54 0 0 0-.33 0 .77.77 0 0 0-.61.27 1.09 1.09 0 0 0-.24.74 1.2 1.2 0 0 0 .22.74.75.75 0 0 0 .64.3 1.22 1.22 0 0 0 .36-.06l.28-.09v.69a1.74 1.74 0 0 1-.37.07 3 3 0 0 1-.46 0 1.44 1.44 0 0 1-1.17-.48 1.77 1.77 0 0 1-.4-1.2 1.73 1.73 0 0 1 .4-1.18 1.42 1.42 0 0 1 1.14-.48 2.64 2.64 0 0 1 .81.11zM126 50.36h-.8v-.44a1.3 1.3 0 0 1-1 .51 1 1 0 0 1-.82-.36 1.42 1.42 0 0 1-.27-.89v-2h.83v1.7a.9.9 0 0 0 0 .14v.16a1.45 1.45 0 0 0 .06.3.56.56 0 0 0 .16.22.46.46 0 0 0 .3.09.59.59 0 0 0 .38-.12.67.67 0 0 0 .16-.27 1 1 0 0 0 .11-.34 2.55 2.55 0 0 0 0-.34v-1.56h.89v3.19zm-3.79-2.52l-.35-.11a2.27 2.27 0 0 0-.4 0 .77.77 0 0 0-.32.07.3.3 0 0 0-.17.29.28.28 0 0 0 .23.25l.24.08.26.09a1.55 1.55 0 0 1 .27.11 1.12 1.12 0 0 1 .22.17.78.78 0 0 1 .17.26 1.1 1.1 0 0 1 .06.38.9.9 0 0 1-.41.8 1.75 1.75 0 0 1-.93.24 3.64 3.64 0 0 1-.94-.14v-.68a1.7 1.7 0 0 0 .82.21.81.81 0 0 0 .35-.09.31.31 0 0 0 .19-.3.34.34 0 0 0-.06-.2.42.42 0 0 0-.17-.12 4.26 4.26 0 0 0-.5-.16l-.26-.11a.91.91 0 0 1-.24-.16.65.65 0 0 1-.16-.25.81.81 0 0 1-.07-.35.83.83 0 0 1 .39-.76 1.54 1.54 0 0 1 .86-.24 3.58 3.58 0 0 1 .51 0l.4.09zm-4.29-.67h.74v.73a1 1 0 0 1 .27-.51.78.78 0 0 1 .6-.29h.25v.9a.83.83 0 0 0-.37-.07.52.52 0 0 0-.41.07.79.79 0 0 0-.2.34 1.72 1.72 0 0 0-.07.42v1.57h-.83v-3.17zm-.9 3a2.2 2.2 0 0 1-1.1.25 1.49 1.49 0 0 1-1.67-1.66 1.91 1.91 0 0 1 .37-1.2 1.35 1.35 0 0 1 1.11-.49 1.33 1.33 0 0 1 1.21.54 2.67 2.67 0 0 1 .31 1.39H115a.81.81 0 0 0 .28.59.93.93 0 0 0 .63.22 1.63 1.63 0 0 0 .57-.1 2.5 2.5 0 0 0 .52-.21v.68zm-.56-1.74a.93.93 0 0 0-.17-.53.61.61 0 0 0-.51-.22.7.7 0 0 0-.53.21.89.89 0 0 0-.21.54h1.41zm-4.14-.68h-.62v-.59h.61v-.64l.83-.27v.9h.74v.61h-.74v1.49a.66.66 0 0 0 .08.36.32.32 0 0 0 .31.17.72.72 0 0 0 .38-.09v.66a2.16 2.16 0 0 1-.61.07.92.92 0 0 1-1-1v-1.65zm-4.06-.61h.74v.46a1.24 1.24 0 0 1 1-.51 1 1 0 0 1 .83.35 1.49 1.49 0 0 1 .25.9v2h-.83v-2.02a.82.82 0 0 0-.06-.29.45.45 0 0 0-.16-.23.55.55 0 0 0-.32-.08.57.57 0 0 0-.36.11.83.83 0 0 0-.22.27 1.24 1.24 0 0 0-.11.34 1.84 1.84 0 0 0 0 .35v1.56h-.83v-3.19zm-.85 3.19h-.79v-.41a1.3 1.3 0 0 1-1 .51 1 1 0 0 1-.82-.36 1.42 1.42 0 0 1-.27-.89v-2h.83v1.7a.8.8 0 0 0 0 .14v.16a1.39 1.39 0 0 0 .06.3.55.55 0 0 0 .16.22.46.46 0 0 0 .3.09.59.59 0 0 0 .38-.12.68.68 0 0 0 .22-.27 1 1 0 0 0 .11-.34 2.39 2.39 0 0 0 0-.34v-1.56h.83v3.19zm-3.79-2.52l-.35-.11a2.28 2.28 0 0 0-.4 0 .78.78 0 0 0-.32.07.3.3 0 0 0-.17.29.28.28 0 0 0 .23.25l.24.08.26.09a1.55 1.55 0 0 1 .27.11 1.12 1.12 0 0 1 .22.17.78.78 0 0 1 .17.26 1.12 1.12 0 0 1 .06.38.9.9 0 0 1-.41.8 1.75 1.75 0 0 1-.93.24 3.64 3.64 0 0 1-.94-.14v-.68a1.69 1.69 0 0 0 .82.21.81.81 0 0 0 .35-.09.31.31 0 0 0 .19-.3.35.35 0 0 0-.06-.2.42.42 0 0 0-.17-.12 4.2 4.2 0 0 0-.5-.16l-.18-.12a.92.92 0 0 1-.24-.16.65.65 0 0 1-.16-.25.82.82 0 0 1-.07-.35.83.83 0 0 1 .39-.76 1.54 1.54 0 0 1 .86-.24 3.6 3.6 0 0 1 .51 0l.4.09zm-4-.06H99v-.59h.61v-.64l.83-.27v.9h.74v.61h-.78v1.49a.66.66 0 0 0 .08.36.32.32 0 0 0 .31.17.72.72 0 0 0 .38-.09v.66a2.15 2.15 0 0 1-.61.07.92.92 0 0 1-1-1v-1.65zm-2-2h.83v.79h-.86v-.75zm0 1.38h.83v3.19h-.86v-3.16zm-.9 3a2.21 2.21 0 0 1-1.1.25 1.49 1.49 0 0 1-1.67-1.66 1.91 1.91 0 0 1 .37-1.2 1.35 1.35 0 0 1 1.11-.49 1.33 1.33 0 0 1 1.21.54 2.66 2.66 0 0 1 .28 1.43h-2.21a.81.81 0 0 0 .28.59.92.92 0 0 0 .63.22 1.63 1.63 0 0 0 .57-.1 2.5 2.5 0 0 0 .49-.22v.68zm-.56-1.74a.93.93 0 0 0-.16-.47.61.61 0 0 0-.51-.22.7.7 0 0 0-.53.21.89.89 0 0 0-.21.54h1.41zm-5.79-2.74h.83v1.95a1.16 1.16 0 0 1 1-.51 1 1 0 0 1 .83.35 1.48 1.48 0 0 1 .26.9v2h-.85v-2.02a.84.84 0 0 0-.07-.32.45.45 0 0 0-.15-.23.55.55 0 0 0-.32-.08.57.57 0 0 0-.36.11.82.82 0 0 0-.22.27 1.24 1.24 0 0 0-.11.34 1.76 1.76 0 0 0 0 .35v1.56h-.87v-4.61zm-2.39 1.46h.74v.73a1 1 0 0 1 .28-.47.78.78 0 0 1 .6-.29h.25V48a.82.82 0 0 0-.37-.07.52.52 0 0 0-.38.14.8.8 0 0 0-.2.34 1.72 1.72 0 0 0-.07.42v1.57h-.89v-3.24zm-.91 3a2.21 2.21 0 0 1-1.1.25 1.49 1.49 0 0 1-1.67-1.66 1.91 1.91 0 0 1 .37-1.2 1.35 1.35 0 0 1 1.11-.49 1.33 1.33 0 0 1 1.21.54 2.66 2.66 0 0 1 .28 1.45h-2.2a.81.81 0 0 0 .28.59.92.92 0 0 0 .63.22 1.63 1.63 0 0 0 .57-.1 2.53 2.53 0 0 0 .45-.21v.68zm-.56-1.74a.94.94 0 0 0-.17-.53.61.61 0 0 0-.51-.22.69.69 0 0 0-.53.21.89.89 0 0 0-.21.54h1.41zm-5.79-2.74h.83v1.97a1.16 1.16 0 0 1 1-.51 1 1 0 0 1 .83.35 1.48 1.48 0 0 1 .25.9v2h-.84v-2.02a.8.8 0 0 0-.07-.32.44.44 0 0 0-.16-.23.55.55 0 0 0-.32-.08.57.57 0 0 0-.36.11.83.83 0 0 0-.22.27 1.27 1.27 0 0 0-.11.34 1.76 1.76 0 0 0 0 .35v1.56h-.86v-4.61zM80 47.85a1 1 0 0 0-.24-.09 1.54 1.54 0 0 0-.33 0 .77.77 0 0 0-.61.27 1.09 1.09 0 0 0-.24.74 1.2 1.2 0 0 0 .22.74.75.75 0 0 0 .64.3 1.22 1.22 0 0 0 .36-.06l.28-.09v.69a1.74 1.74 0 0 1-.37.07 3 3 0 0 1-.46 0 1.44 1.44 0 0 1-1.17-.48 1.77 1.77 0 0 1-.4-1.2 1.73 1.73 0 0 1 .4-1.18 1.42 1.42 0 0 1 1.14-.48 2.64 2.64 0 0 1 .81.11zm-3.78-2.06h.83v.79h-.82v-.79zm0 1.38h.83v3.19h-.82v-3.2zm-1.95-.53h-.22a.64.64 0 0 0-.22.09.48.48 0 0 0-.17.19.58.58 0 0 0-.07.3.32.32 0 0 0 .09.23.9.9 0 0 0 .22.17l.31.14.34.14a2.67 2.67 0 0 1 .35.16 1.27 1.27 0 0 1 .3.24 1.17 1.17 0 0 1 .22.33 1.35 1.35 0 0 1 .08.48 1.14 1.14 0 0 1-.48 1 2.06 2.06 0 0 1-1.15.3 2.73 2.73 0 0 1-.56 0l-.55-.12.08-.78a2 2 0 0 0 1 .27 1.05 1.05 0 0 0 .51-.14.49.49 0 0 0 .18-.69.71.71 0 0 0-.22-.19 5.8 5.8 0 0 0-.65-.28 2.43 2.43 0 0 1-.34-.17 1.61 1.61 0 0 1-.32-.25 1.17 1.17 0 0 1-.22-.33 1.09 1.09 0 0 1-.09-.45 1.17 1.17 0 0 1 .48-1 1.85 1.85 0 0 1 1-.29 3.34 3.34 0 0 1 1 .15l-.08.71a2.27 2.27 0 0 0-.88-.19m-4.13 3.55a2.2 2.2 0 0 1-1.1.25 1.49 1.49 0 0 1-1.67-1.66 1.91 1.91 0 0 1 .37-1.2 1.35 1.35 0 0 1 1.11-.49 1.33 1.33 0 0 1 1.21.54 2.66 2.66 0 0 1 .39 1.35h-2.21a.81.81 0 0 0 .28.59.92.92 0 0 0 .63.22 1.62 1.62 0 0 0 .57-.1 2.5 2.5 0 0 0 .49-.22v.68zm-.48-1.76a.93.93 0 0 0-.17-.53.61.61 0 0 0-.51-.22.7.7 0 0 0-.53.21.89.89 0 0 0-.21.54h1.42zm-5.79-2.74h.83v1.89a1.16 1.16 0 0 1 1-.51 1 1 0 0 1 .83.35 1.49 1.49 0 0 1 .25.9v2h-.81v-2.02a.82.82 0 0 0-.07-.32.45.45 0 0 0-.16-.23.55.55 0 0 0-.32-.08.57.57 0 0 0-.36.11.83.83 0 0 0-.22.27 1.24 1.24 0 0 0-.11.34 1.84 1.84 0 0 0 0 .35v1.56h-.86v-4.61zm-.68 2.14a1 1 0 0 0-.24-.09 1.55 1.55 0 0 0-.33 0A.77.77 0 0 0 62 48a1.09 1.09 0 0 0-.24.74 1.2 1.2 0 0 0 .22.74.75.75 0 0 0 .65.3 1.22 1.22 0 0 0 .36-.06l.28-.09v.69a1.74 1.74 0 0 1-.37.07 3 3 0 0 1-.46 0 1.44 1.44 0 0 1-1.17-.48 1.77 1.77 0 0 1-.4-1.2 1.73 1.73 0 0 1 .4-1.18 1.43 1.43 0 0 1 1.14-.48 2.64 2.64 0 0 1 .81.11zm-2.93 0l-.35-.11a2.28 2.28 0 0 0-.4 0 .77.77 0 0 0-.32.07.3.3 0 0 0-.17.29.28.28 0 0 0 .23.25l.24.08.26.09a1.55 1.55 0 0 1 .27.11 1.15 1.15 0 0 1 .22.17.78.78 0 0 1 .17.26 1.12 1.12 0 0 1 .06.38.9.9 0 0 1-.41.8 1.76 1.76 0 0 1-.93.24 3.65 3.65 0 0 1-.94-.14v-.68a1.69 1.69 0 0 0 .82.21.81.81 0 0 0 .35-.09.31.31 0 0 0 .19-.3.35.35 0 0 0-.06-.2.42.42 0 0 0-.17-.12 4.26 4.26 0 0 0-.5-.16l-.26-.11a.92.92 0 0 1-.24-.16.65.65 0 0 1-.16-.25.81.81 0 0 1-.07-.35.84.84 0 0 1 .39-.76 1.54 1.54 0 0 1 .86-.24 3.58 3.58 0 0 1 .51 0l.4.09zm-3.6-2h.83v.79h-.83v-.85zm0 1.38h.83v3.19h-.83v-3.26zm-2.41 0h.74v.73a1 1 0 0 1 .27-.51.78.78 0 0 1 .6-.29h.25V48a.83.83 0 0 0-.37-.07.52.52 0 0 0-.38.14.79.79 0 0 0-.21.34 1.72 1.72 0 0 0-.07.42v1.57h-.84v-3.24zm-.9 3a2.2 2.2 0 0 1-1.1.25 1.49 1.49 0 0 1-1.67-1.66 1.91 1.91 0 0 1 .37-1.2 1.35 1.35 0 0 1 1.11-.53 1.33 1.33 0 0 1 1.21.54 2.66 2.66 0 0 1 .31 1.37h-2.21a.81.81 0 0 0 .28.59.92.92 0 0 0 .63.22 1.62 1.62 0 0 0 .57-.1 2.5 2.5 0 0 0 .49-.22v.68zm-.56-1.74a.93.93 0 0 0-.17-.53.61.61 0 0 0-.56-.26.7.7 0 0 0-.53.21.89.89 0 0 0-.21.54h1.41zm-5.24-1.28H50v.68l-1.59 1.87h1.64v.64h-2.64v-.72L49 47.81h-1.52v-.65zm-1.57-1.38h.83v.79h-.84v-.83zm0 1.38h.83v3.19h-.84v-3.24zm-.91 3a2.2 2.2 0 0 1-1.1.25 1.49 1.49 0 0 1-1.67-1.66 1.91 1.91 0 0 1 .37-1.2 1.35 1.35 0 0 1 1.11-.49 1.33 1.33 0 0 1 1.21.54 2.66 2.66 0 0 1 .31 1.35H43a.81.81 0 0 0 .28.59.92.92 0 0 0 .63.22 1.63 1.63 0 0 0 .57-.1 2.52 2.52 0 0 0 .52-.21v.68zm-.56-1.74a.93.93 0 0 0-.17-.53.61.61 0 0 0-.51-.22.69.69 0 0 0-.53.21.89.89 0 0 0-.21.54h1.41zm-7.87-1.28h.87l.72 2.36.65-2.36h1l.69 2.36.66-2.36H42l-1 3.19h-1l-.7-2.46-.7 2.44h-.94zm-3.43-1.46H34v1.87a1.16 1.16 0 0 1 1-.51 1 1 0 0 1 .83.35 1.48 1.48 0 0 1 .25.9v2h-.83v-2.02a.8.8 0 0 0-.07-.32.44.44 0 0 0-.18-.19.55.55 0 0 0-.32-.08.57.57 0 0 0-.36.11.83.83 0 0 0-.22.27 1.27 1.27 0 0 0-.11.34 1.76 1.76 0 0 0 0 .35v1.56h-.84v-4.65zm-.68 2.14a1 1 0 0 0-.24-.09 1.54 1.54 0 0 0-.33 0 .77.77 0 0 0-.61.27 1.09 1.09 0 0 0-.24.74 1.2 1.2 0 0 0 .22.74.75.75 0 0 0 .64.3 1.22 1.22 0 0 0 .36-.06l.28-.09v.69a1.74 1.74 0 0 1-.37.07 3 3 0 0 1-.46 0 1.44 1.44 0 0 1-1.17-.48 1.77 1.77 0 0 1-.4-1.2 1.73 1.73 0 0 1 .4-1.18 1.42 1.42 0 0 1 1.14-.48 2.64 2.64 0 0 1 .81.11zm-4-1.22h-.22a.63.63 0 0 0-.22.09.49.49 0 0 0-.17.19.59.59 0 0 0-.07.3.32.32 0 0 0 .09.23.9.9 0 0 0 .22.17l.31.14.34.14a2.73 2.73 0 0 1 .35.16 1.27 1.27 0 0 1 .3.24 1.17 1.17 0 0 1 .22.33 1.37 1.37 0 0 1 .07.48 1.14 1.14 0 0 1-.48 1 2.06 2.06 0 0 1-1.15.3 2.72 2.72 0 0 1-.56 0l-.55-.12.05-.82a2 2 0 0 0 1 .27 1.06 1.06 0 0 0 .52-.14.46.46 0 0 0 .25-.42.47.47 0 0 0-.07-.27.72.72 0 0 0-.22-.19 6 6 0 0 0-.65-.28 2.43 2.43 0 0 1-.34-.17 1.61 1.61 0 0 1-.31-.22 1.15 1.15 0 0 1-.18-.33 1.09 1.09 0 0 1-.09-.45 1.17 1.17 0 0 1 .48-1 1.86 1.86 0 0 1 1-.29 3.34 3.34 0 0 1 1 .15l-.08.71a2.26 2.26 0 0 0-.88-.19M27.4 7.62a1.09 1.09 0 0 0 .69-.21.81.81 0 0 0 .28-.67.65.65 0 0 0-.31-.53 2.14 2.14 0 0 0-.32-.21l-.36-.2-.38-.21a2 2 0 0 1-.32-.25.87.87 0 0 1-.31-.67 1 1 0 0 1 .4-.83 1.57 1.57 0 0 1 1-.29h.39a2.58 2.58 0 0 1 .45.12l-.07.39a1.7 1.7 0 0 0-.78-.16 1.68 1.68 0 0 0-.33 0 .9.9 0 0 0-.3.13.65.65 0 0 0-.22.22.69.69 0 0 0-.09.36.49.49 0 0 0 .09.28.88.88 0 0 0 .22.23 2.33 2.33 0 0 0 .32.2l.36.2a2.49 2.49 0 0 1 .68.47 1.13 1.13 0 0 1-.14 1.67 1.71 1.71 0 0 1-1 .28 2.34 2.34 0 0 1-1-.18v-.44a1.63 1.63 0 0 0 .95.25m4.82-2.37a1.66 1.66 0 0 0-.67-.2 1.09 1.09 0 0 0-.87.36 1.4 1.4 0 0 0-.31.95 1.38 1.38 0 0 0 .31.92 1 1 0 0 0 .83.39 1.86 1.86 0 0 0 .71-.14v.36a2.61 2.61 0 0 1-.81.11 1.35 1.35 0 0 1-1.13-.5 1.78 1.78 0 0 1-.38-1.14 1.67 1.67 0 0 1 .43-1.19 1.48 1.48 0 0 1 1.12-.45 2.21 2.21 0 0 1 .48 0h.27zm1.17-1.9h.39v2a1.11 1.11 0 0 1 .38-.44 1.13 1.13 0 0 1 .6-.17.94.94 0 0 1 .86.37 1.83 1.83 0 0 1 .22 1v1.86h-.39V6a3.05 3.05 0 0 0 0-.39.83.83 0 0 0-.1-.31.63.63 0 0 0-.64-.3.79.79 0 0 0-.72.39 1.55 1.55 0 0 0-.21.81v1.72h-.39V3.3z" transform="translate(-1.92 -2.01)"/><path class="cls-1" d="M38.5 5.91h-.47l-.86-2.72h-.01l-.85 2.72h-.47l-1.01-3.14h.42l.83 2.71h.01l.88-2.71h.46l.83 2.71h.01l.87-2.71h.39L38.5 5.91z"/><path class="cls-1" d="M44.37 6.13a1.52 1.52 0 0 0-.18-.75.69.69 0 0 0-.62-.38.82.82 0 0 0-.67.35 1.19 1.19 0 0 0-.25.74h1.72zm.19 1.69a2.67 2.67 0 0 1-.91.17 1.29 1.29 0 0 1-1.1-.47 1.89 1.89 0 0 1-.33-1.17 1.87 1.87 0 0 1 .37-1.19 1.16 1.16 0 0 1 1-.46 1.1 1.1 0 0 1 1 .46 2 2 0 0 1 .29 1.09v.2h-2.23a1.31 1.31 0 0 0 .26.84.91.91 0 0 0 .77.36 1.6 1.6 0 0 0 .48-.08 1.65 1.65 0 0 0 .4-.15v.4zm1.44.1h.4V4.78H46v3.14zm0-4h.4v-.49H46v.51z" transform="translate(-1.92 -2.01)"/><path class="cls-1" d="M45.65 5.58l1.89-2.48h-1.81v-.33h2.26v.33L46.1 5.58h1.89v.33h-2.34v-.33z"/><path class="cls-1" d="M53 6.13a1.52 1.52 0 0 0-.18-.75.69.69 0 0 0-.63-.38.82.82 0 0 0-.67.35 1.19 1.19 0 0 0-.25.74H53zm.19 1.69a2.67 2.67 0 0 1-.91.17 1.29 1.29 0 0 1-1.1-.47 1.89 1.89 0 0 1-.33-1.17 1.87 1.87 0 0 1 .37-1.19 1.16 1.16 0 0 1 1-.46 1.1 1.1 0 0 1 1 .46 2 2 0 0 1 .29 1.09v.2h-2.25a1.31 1.31 0 0 0 .26.84.91.91 0 0 0 .77.36 1.6 1.6 0 0 0 .48-.08 1.65 1.65 0 0 0 .4-.15v.4zm1.44-2.34v-.7H55v.6a1.35 1.35 0 0 1 .31-.47.69.69 0 0 1 .49-.2 1.23 1.23 0 0 1 .27 0v.44a1 1 0 0 0-.28 0 .66.66 0 0 0-.37.11.79.79 0 0 0-.24.3 1.52 1.52 0 0 0-.12.4 2.36 2.36 0 0 0 0 .44v1.52h-.43V5.48zm2.53 2.44h.39V4.78h-.39v3.14zm0-4h.39v-.49h-.39v.51zm2.42 3.74a.79.79 0 0 0 .49-.15.48.48 0 0 0 .2-.41.53.53 0 0 0-.23-.44 2.76 2.76 0 0 0-.52-.28l-.27-.14-.25-.16a.88.88 0 0 1-.17-.23.59.59 0 0 1-.07-.29.73.73 0 0 1 .32-.66 1.28 1.28 0 0 1 .7-.19h.35a2.3 2.3 0 0 1 .42.12v.34a1.87 1.87 0 0 0-.71-.17.89.89 0 0 0-.48.11.36.36 0 0 0-.14.15.53.53 0 0 0-.06.26.29.29 0 0 0 .07.18.75.75 0 0 0 .18.15l.25.15.28.14a1.77 1.77 0 0 1 .53.34.81.81 0 0 1 .23.6.79.79 0 0 1-.1.41.87.87 0 0 1-.26.28 1.42 1.42 0 0 1-.73.2 2.66 2.66 0 0 1-.88-.15v-.38a1.76 1.76 0 0 0 .82.2m4.37-2.44a1.66 1.66 0 0 0-.67-.2 1.09 1.09 0 0 0-.87.36 1.4 1.4 0 0 0-.31.95 1.38 1.38 0 0 0 .31.92 1 1 0 0 0 .83.39 1.86 1.86 0 0 0 .71-.14v.36a2.61 2.61 0 0 1-.81.11A1.35 1.35 0 0 1 62 7.49a1.78 1.78 0 0 1-.38-1.14 1.67 1.67 0 0 1 .43-1.19 1.48 1.48 0 0 1 1.12-.45 2.21 2.21 0 0 1 .48 0h.27zm1.17-1.9h.39v2a1.11 1.11 0 0 1 .38-.44 1.13 1.13 0 0 1 .6-.17.94.94 0 0 1 .86.37 1.83 1.83 0 0 1 .21 1v1.86h-.38V6a3.05 3.05 0 0 0 0-.39.83.83 0 0 0-.15-.27.63.63 0 0 0-.59-.34.79.79 0 0 0-.72.39 1.56 1.56 0 0 0-.21.81v1.72h-.39V3.3zm5.82 2.83a1.52 1.52 0 0 0-.18-.75.69.69 0 0 0-.62-.38.82.82 0 0 0-.67.35 1.19 1.19 0 0 0-.25.74h1.72zm.19 1.69a2.67 2.67 0 0 1-.91.17 1.29 1.29 0 0 1-1.1-.47 1.89 1.89 0 0 1-.33-1.17 1.87 1.87 0 0 1 .37-1.19 1.16 1.16 0 0 1 1-.46 1.1 1.1 0 0 1 1 .46 2 2 0 0 1 .29 1.09v.2h-2.24a1.31 1.31 0 0 0 .26.84.91.91 0 0 0 .77.36 1.6 1.6 0 0 0 .48-.08 1.65 1.65 0 0 0 .4-.15v.4z" transform="translate(-1.92 -2.01)"/><path class="cls-1" d="M72.68 1.61h2.1v.37H73.1v1.53h1.59v.37H73.1v1.66h1.76v.37h-2.18v-4.3z"/><path class="cls-1" d="M78.11 7.92h.39V4.78h-.39v3.14zm0-4h.39v-.49h-.39v.51zm2.13 2.88a1.78 1.78 0 0 0 .15.43.91.91 0 0 0 .29.3.73.73 0 0 0 .45.13.75.75 0 0 0 .44-.13.91.91 0 0 0 .28-.31 1.86 1.86 0 0 0 .2-.87 2.48 2.48 0 0 0 0-.46 1.52 1.52 0 0 0-.16-.42 1 1 0 0 0-.28-.32.81.81 0 0 0-.48-.15.79.79 0 0 0-.45.12.83.83 0 0 0-.29.31 1.56 1.56 0 0 0-.15.42 2.55 2.55 0 0 0 0 .47 2.39 2.39 0 0 0 0 .45m2.2 1.12h-.39v-.47a1 1 0 0 1-1 .57 1.12 1.12 0 0 1-1-.47 2 2 0 0 1-.33-1.17 2 2 0 0 1 .3-1.18 1.12 1.12 0 0 1 1-.46 1.09 1.09 0 0 1 .41.07.92.92 0 0 1 .3.17.85.85 0 0 1 .28.36v-2h.39v4.61zm1.87-.7a.75.75 0 0 0 .69.39.81.81 0 0 0 .75-.41 1.71 1.71 0 0 0 .25-.82 2 2 0 0 0-.2-.94.91.91 0 0 0-1.18-.25.84.84 0 0 0-.29.31 1.56 1.56 0 0 0-.15.42 2.55 2.55 0 0 0 0 .47 1.58 1.58 0 0 0 .21.84m2 .47A1.86 1.86 0 0 1 86 8.78a1.36 1.36 0 0 1-1.14.47 2.67 2.67 0 0 1-.57-.07l-.38-.1v-.39a2 2 0 0 0 .92.22 1.19 1.19 0 0 0 .59-.14.76.76 0 0 0 .33-.34 1.47 1.47 0 0 0 .14-.51V7.3a1 1 0 0 1-1 .62 1.13 1.13 0 0 1-1-.53 1.52 1.52 0 0 1-.22-.5 2 2 0 0 1-.07-.53 2 2 0 0 1 .4-1.19 1.12 1.12 0 0 1 1-.46 1.93 1.93 0 0 1 .54.07 1 1 0 0 1 .44.36v-.36h.39v2.88zm3.28-1.54a1.52 1.52 0 0 0-.18-.75.69.69 0 0 0-.62-.38.82.82 0 0 0-.67.35 1.2 1.2 0 0 0-.25.74h1.72zm.19 1.69A2.67 2.67 0 0 1 89 8a1.29 1.29 0 0 1-1.1-.47 1.89 1.89 0 0 1-.33-1.17 1.87 1.87 0 0 1 .37-1.19 1.16 1.16 0 0 1 1-.46 1.1 1.1 0 0 1 1 .46 2 2 0 0 1 .29 1.09v.2h-2.28a1.31 1.31 0 0 0 .26.84.91.91 0 0 0 .77.36 1.6 1.6 0 0 0 .48-.08 1.63 1.63 0 0 0 .4-.15v.39zm1.46-2.3v-.74h.38v.56l.13-.22a.93.93 0 0 1 .17-.2.83.83 0 0 1 .29-.15 1.36 1.36 0 0 1 .41-.05 1 1 0 0 1 .83.34 1.44 1.44 0 0 1 .24.86v2h-.39V6a1.33 1.33 0 0 0-.17-.71.67.67 0 0 0-.58-.29.8.8 0 0 0-.73.37 1.08 1.08 0 0 0-.15.36 1.74 1.74 0 0 0 0 .41v1.78h-.43v-2.4zm4.35 1.75a.88.88 0 0 0 .77.39.92.92 0 0 0 .78-.39 1.55 1.55 0 0 0 .26-.92 1.61 1.61 0 0 0-.26-.93.93.93 0 0 0-.78-.42.89.89 0 0 0-.77.38 1.55 1.55 0 0 0-.27.93 1.5 1.5 0 0 0 .27.92m-.34-2.03a1.49 1.49 0 0 1 2.23 0 1.88 1.88 0 0 1 .35 1.14 1.89 1.89 0 0 1-.35 1.14 1.48 1.48 0 0 1-2.23 0A1.86 1.86 0 0 1 95 6.35a1.85 1.85 0 0 1 .36-1.14m4.34 2.45a.79.79 0 0 0 .49-.15.48.48 0 0 0 .2-.41.53.53 0 0 0-.23-.44 2.73 2.73 0 0 0-.52-.28l-.27-.14-.25-.17a.86.86 0 0 1-.12-.22.59.59 0 0 1-.07-.29.73.73 0 0 1 .27-.66 1.29 1.29 0 0 1 .7-.19h.35a2.28 2.28 0 0 1 .42.12v.34a1.88 1.88 0 0 0-.72-.17.9.9 0 0 0-.48.11.37.37 0 0 0-.14.15.53.53 0 0 0-.06.26.29.29 0 0 0 .07.18.73.73 0 0 0 .18.15l.25.15.23.16a1.77 1.77 0 0 1 .53.34.89.89 0 0 1 .14 1 .88.88 0 0 1-.26.28 1.42 1.42 0 0 1-.73.2 2.67 2.67 0 0 1-.88-.15v-.38a1.76 1.76 0 0 0 .82.2m2.95.01a.79.79 0 0 0 .49-.15.49.49 0 0 0 .2-.41.53.53 0 0 0-.26-.44 2.72 2.72 0 0 0-.52-.28l-.27-.14-.21-.16a.86.86 0 0 1-.17-.23.59.59 0 0 1-.07-.29.74.74 0 0 1 .32-.66 1.29 1.29 0 0 1 .7-.19h.35a2.27 2.27 0 0 1 .42.12v.34a1.87 1.87 0 0 0-.73-.17.89.89 0 0 0-.48.11.37.37 0 0 0-.14.15.53.53 0 0 0-.06.26.29.29 0 0 0 .07.18.73.73 0 0 0 .18.15l.25.15.28.14a1.78 1.78 0 0 1 .54.34.8.8 0 0 1 .23.6.79.79 0 0 1-.1.41.87.87 0 0 1-.26.28 1.43 1.43 0 0 1-.73.2 2.66 2.66 0 0 1-.88-.15v-.38a1.76 1.76 0 0 0 .82.2m4.24-1.51a1.52 1.52 0 0 0-.18-.75.69.69 0 0 0-.6-.38.82.82 0 0 0-.67.35 1.19 1.19 0 0 0-.25.74h1.72zm.22 1.69a2.66 2.66 0 0 1-.91.17 1.29 1.29 0 0 1-1.1-.47 1.89 1.89 0 0 1-.33-1.17 1.88 1.88 0 0 1 .34-1.19 1.16 1.16 0 0 1 1-.46 1.1 1.1 0 0 1 1 .46 2 2 0 0 1 .29 1.09v.2h-2.15a1.31 1.31 0 0 0 .26.84.91.91 0 0 0 .77.36 1.6 1.6 0 0 0 .48-.08 1.62 1.62 0 0 0 .4-.15v.4zm1.42-2.3v-.74h.38v.56a2.23 2.23 0 0 1 .13-.22 1 1 0 0 1 .18-.2.84.84 0 0 1 .29-.15 1.35 1.35 0 0 1 .41-.05 1 1 0 0 1 .83.34 1.43 1.43 0 0 1 .24.86v2h-.39V6a1.32 1.32 0 0 0-.17-.71.67.67 0 0 0-.58-.29.8.8 0 0 0-.73.37 1.06 1.06 0 0 0-.15.36 1.74 1.74 0 0 0 0 .41v1.78h-.39v-2.4zm4.48 2.14a.79.79 0 0 0 .49-.15.48.48 0 0 0 .2-.41.53.53 0 0 0-.23-.44 2.73 2.73 0 0 0-.52-.28l-.27-.14-.25-.17a.86.86 0 0 1-.17-.23.59.59 0 0 1-.07-.29.73.73 0 0 1 .32-.66 1.29 1.29 0 0 1 .7-.19h.35a2.31 2.31 0 0 1 .42.12v.34a1.88 1.88 0 0 0-.72-.16.9.9 0 0 0-.48.11.37.37 0 0 0-.14.15.53.53 0 0 0-.06.26.29.29 0 0 0 .07.18.73.73 0 0 0 .18.15L113 6l.28.14a1.77 1.77 0 0 1 .53.34.89.89 0 0 1 .14 1 .88.88 0 0 1-.26.28 1.42 1.42 0 0 1-.73.2 2.67 2.67 0 0 1-.96-.12v-.38a1.76 1.76 0 0 0 .82.2m4.42-2.46a1.66 1.66 0 0 0-.67-.2 1.09 1.09 0 0 0-.87.36 1.4 1.4 0 0 0-.31.95 1.38 1.38 0 0 0 .31.92 1 1 0 0 0 .83.39 1.85 1.85 0 0 0 .71-.14v.36a2.6 2.6 0 0 1-.81.11 1.35 1.35 0 0 1-1.13-.5 1.78 1.78 0 0 1-.3-1.1 1.67 1.67 0 0 1 .43-1.19 1.48 1.48 0 0 1 1.12-.45 2.22 2.22 0 0 1 .48 0h.27zm1.17-1.9h.39v2a1.12 1.12 0 0 1 .38-.44 1.14 1.14 0 0 1 .6-.17.94.94 0 0 1 .86.37 1.83 1.83 0 0 1 .21 1v1.86h-.39V6a3.24 3.24 0 0 0 0-.39.85.85 0 0 0-.1-.31.63.63 0 0 0-.62-.3.79.79 0 0 0-.72.39 1.56 1.56 0 0 0-.21.81v1.72h-.39V3.3zm5.66 3.04h-.61a1.84 1.84 0 0 0-.48.1.77.77 0 0 0-.35.23.59.59 0 0 0-.14.41.47.47 0 0 0 .2.43.74.74 0 0 0 .46.14.93.93 0 0 0 .54-.14.81.81 0 0 0 .31-.29 1 1 0 0 0 .11-.38v-.5zm0 1.08a.94.94 0 0 1-.41.42 1.27 1.27 0 0 1-1.11 0 .79.79 0 0 1-.32-.23 1 1 0 0 1-.19-.55.94.94 0 0 1 .19-.62 1 1 0 0 1 .47-.33 2.52 2.52 0 0 1 .66-.11h.71v-.16a.66.66 0 0 0-.71-.84 1.72 1.72 0 0 0-.92.26v-.34a2.32 2.32 0 0 1 .92-.22 1 1 0 0 1 1.1 1.17v1.39a4.71 4.71 0 0 0 0 .66h-.38v-.51zm2.06-2.31h-.63v-.33h.63v-.72a1.22 1.22 0 0 1 .09-.42.66.66 0 0 1 .25-.3.83.83 0 0 1 .53-.11h.2a.43.43 0 0 1 .16.06v.33a.71.71 0 0 0-.36-.06.43.43 0 0 0-.29.09.51.51 0 0 0-.14.24 1.22 1.22 0 0 0 0 .3v.59h.71v.33h-.71v2.81h-.39V5.11zm3.62 0H129v2a.64.64 0 0 0 .1.36.34.34 0 0 0 .32.15.79.79 0 0 0 .36-.07v.32l-.14.13a1.2 1.2 0 0 1-.28 0 .8.8 0 0 1-.4-.09.57.57 0 0 1-.22-.23 1.15 1.15 0 0 1-.08-.33 3.82 3.82 0 0 1 0-.4V5.11H128v-.33h.61V4l.39-.11v.89h.71v.33zM29 12.44h-.5a1.66 1.66 0 0 0-1.29.52 1.92 1.92 0 0 0-.46 1.33 1.92 1.92 0 0 0 .45 1.33 1.63 1.63 0 0 0 1.29.52 3.24 3.24 0 0 0 .5 0 1.31 1.31 0 0 0 .46-.14v.37a1.56 1.56 0 0 1-.47.14 3.6 3.6 0 0 1-.51 0 2.11 2.11 0 0 1-1.59-.61 2.21 2.21 0 0 1-.58-1.61 2.26 2.26 0 0 1 .58-1.61 2.11 2.11 0 0 1 1.63-.68h.51a1.43 1.43 0 0 1 .47.13v.39a1.54 1.54 0 0 0-.49-.08m2.36 3.32a.88.88 0 0 0 .77.39.91.91 0 0 0 .78-.39 1.55 1.55 0 0 0 .26-.92 1.61 1.61 0 0 0-.26-.93.93.93 0 0 0-.78-.37.89.89 0 0 0-.77.38 1.55 1.55 0 0 0-.27.93 1.5 1.5 0 0 0 .27.92M31 13.69a1.31 1.31 0 0 1 1.11-.5 1.33 1.33 0 0 1 1.12.5 2.06 2.06 0 0 1 0 2.28 1.32 1.32 0 0 1-1.12.51A1.3 1.3 0 0 1 31 16a2 2 0 0 1 0-2.28m3.81.28v-.74h.38v.56l.13-.22a.93.93 0 0 1 .19-.2.84.84 0 0 1 .29-.15 1.35 1.35 0 0 1 .41-.05 1 1 0 0 1 .83.34 1.44 1.44 0 0 1 .24.86v2h-.41v-1.9a1.33 1.33 0 0 0-.17-.71.67.67 0 0 0-.58-.26.79.79 0 0 0-.73.37 1.06 1.06 0 0 0-.15.36 1.74 1.74 0 0 0 0 .41v1.74h-.43V14zm4.19-.4h-.66v-.33H39v-.76a1.24 1.24 0 0 1 .09-.42.65.65 0 0 1 .25-.3.82.82 0 0 1 .46-.11h.2a.44.44 0 0 1 .16.06v.33a.71.71 0 0 0-.33-.07.42.42 0 0 0-.29.09.49.49 0 0 0-.14.24 1.17 1.17 0 0 0 0 .3v.59h.71v.38h-.75v2.8H39v-2.8zm3.52-1.6H43l-.78.89H42zm.63 2.58a1.52 1.52 0 0 0-.15-.72.69.69 0 0 0-.62-.34.82.82 0 0 0-.67.35 1.2 1.2 0 0 0-.25.74h1.72zm.19 1.69a2.66 2.66 0 0 1-.91.17 1.29 1.29 0 0 1-1.1-.47 1.89 1.89 0 0 1-.33-1.13 1.87 1.87 0 0 1 .37-1.19 1.16 1.16 0 0 1 1-.46 1.1 1.1 0 0 1 1 .46 2 2 0 0 1 .29 1.09v.2h-2.23a1.31 1.31 0 0 0 .26.84.91.91 0 0 0 .77.36 1.6 1.6 0 0 0 .48-.08 1.66 1.66 0 0 0 .4-.15v.39zm1.74-.99a1.78 1.78 0 0 0 .15.43.91.91 0 0 0 .29.3.73.73 0 0 0 .45.13.75.75 0 0 0 .43-.14.91.91 0 0 0 .28-.31 1.86 1.86 0 0 0 .2-.87 2.5 2.5 0 0 0 0-.46 1.53 1.53 0 0 0-.19-.36 1 1 0 0 0-.28-.32.81.81 0 0 0-.41-.16.79.79 0 0 0-.45.12.83.83 0 0 0-.29.31 1.56 1.56 0 0 0-.15.42 2.55 2.55 0 0 0 0 .47 2.39 2.39 0 0 0 0 .45m2.2 1.12h-.42v-.5a1 1 0 0 1-1 .57 1.12 1.12 0 0 1-1-.47 2 2 0 0 1-.33-1.17 2 2 0 0 1 .3-1.18 1.12 1.12 0 0 1 1-.46 1.09 1.09 0 0 1 .41.07.92.92 0 0 1 .3.17.85.85 0 0 1 .28.36v-2h.39v4.6zM50 12h.49l-.78.89h-.3zm.63 2.58a1.52 1.52 0 0 0-.18-.75.69.69 0 0 0-.62-.34.82.82 0 0 0-.67.35 1.2 1.2 0 0 0-.25.74h1.72zm.19 1.69a2.66 2.66 0 0 1-.91.17 1.29 1.29 0 0 1-1.1-.47 1.89 1.89 0 0 1-.33-1.17 1.88 1.88 0 0 1 .37-1.19 1.16 1.16 0 0 1 1-.46 1.1 1.1 0 0 1 1 .46 2 2 0 0 1 .15 1.14v.2h-2.12a1.31 1.31 0 0 0 .26.84.91.91 0 0 0 .77.36 1.6 1.6 0 0 0 .48-.08 1.66 1.66 0 0 0 .4-.15v.39zM52.25 14v-.7h.39v.6a1.35 1.35 0 0 1 .31-.47.69.69 0 0 1 .49-.2 1.23 1.23 0 0 1 .27 0v.41a1 1 0 0 0-.28 0 .66.66 0 0 0-.37.11.79.79 0 0 0-.24.3 1.55 1.55 0 0 0-.12.4 2.36 2.36 0 0 0 0 .44v1.51h-.45V14zm4.3.82h-.62a1.82 1.82 0 0 0-.48.1.76.76 0 0 0-.35.23.59.59 0 0 0-.14.41.47.47 0 0 0 .2.43.74.74 0 0 0 .45.14.93.93 0 0 0 .54-.13.79.79 0 0 0 .28-.31 1 1 0 0 0 .1-.38v-.49zm0 1.08a.93.93 0 0 1-.41.42 1.27 1.27 0 0 1-1.11 0 .79.79 0 0 1-.32-.23 1 1 0 0 1-.19-.55.93.93 0 0 1 .21-.54 1 1 0 0 1 .47-.33 2.56 2.56 0 0 1 .63-.14h.71v-.2a.66.66 0 0 0-.71-.81 1.71 1.71 0 0 0-.92.26v-.37a2.31 2.31 0 0 1 .92-.22 1 1 0 0 1 1.1 1.17v1.38a4.72 4.72 0 0 0 0 .66h-.35v-.5zm3.14-2.3H59v2a.64.64 0 0 0 .1.36.34.34 0 0 0 .32.15.8.8 0 0 0 .36-.07v.32l-.19.06a1.21 1.21 0 0 1-.28 0 .8.8 0 0 1-.4-.09.58.58 0 0 1-.22-.23 1.15 1.15 0 0 1-.08-.33V13.6H58v-.33h.62v-.76l.38-.14v.89h.71v.34zm1.17 2.8h.39v-3.13h-.39v3.13zm0-4h.39v-.49h-.39v.52zm2.31 3.36a.88.88 0 0 0 .77.39.91.91 0 0 0 .78-.39 1.55 1.55 0 0 0 .28-.92 1.61 1.61 0 0 0-.26-.93.93.93 0 0 0-.78-.37.89.89 0 0 0-.77.38 1.55 1.55 0 0 0-.27.93 1.5 1.5 0 0 0 .27.92m-.34-2.07a1.31 1.31 0 0 1 1.11-.5 1.33 1.33 0 0 1 1.12.5 2.06 2.06 0 0 1 0 2.28 1.32 1.32 0 0 1-1.12.51 1.3 1.3 0 0 1-1.13-.49 2 2 0 0 1 0-2.28m3.78.28v-.74H67v.56l.13-.22a.93.93 0 0 1 .18-.2.84.84 0 0 1 .29-.15 1.35 1.35 0 0 1 .4-.06 1 1 0 0 1 .83.34 1.44 1.44 0 0 1 .24.86v2h-.4V14.5a1.33 1.33 0 0 0-.17-.71.67.67 0 0 0-.58-.26.79.79 0 0 0-.73.37 1.06 1.06 0 0 0-.15.36 1.74 1.74 0 0 0 0 .41v1.74h-.43V14zm6.61 2.15a.79.79 0 0 0 .49-.15.48.48 0 0 0 .2-.41.53.53 0 0 0-.23-.44 2.76 2.76 0 0 0-.52-.28l-.27-.14-.25-.17a.88.88 0 0 1-.17-.23.59.59 0 0 1-.06-.33.74.74 0 0 1 .32-.66 1.28 1.28 0 0 1 .7-.19h.35a2.3 2.3 0 0 1 .42.12v.34a1.87 1.87 0 0 0-.69-.15.9.9 0 0 0-.48.11.36.36 0 0 0-.14.15.53.53 0 0 0-.06.26.29.29 0 0 0 .07.18.74.74 0 0 0 .18.15l.25.13.28.14a1.77 1.77 0 0 1 .53.34.81.81 0 0 1 .23.6.79.79 0 0 1-.1.41.87.87 0 0 1-.26.28 1.42 1.42 0 0 1-.73.2 2.66 2.66 0 0 1-.88-.15v-.38a1.76 1.76 0 0 0 .82.2m4.78-.41v.74h-.39v-.56a1.07 1.07 0 0 1-.12.21 1 1 0 0 1-.19.21.89.89 0 0 1-.29.15 1.13 1.13 0 0 1-.42.07 1 1 0 0 1-.82-.34 1.36 1.36 0 0 1-.25-.86v-2h.38v1.91a1.2 1.2 0 0 0 .18.7.62.62 0 0 0 .57.27.86.86 0 0 0 .45-.17.74.74 0 0 0 .28-.27 1.11 1.11 0 0 0 .16-.37 1.88 1.88 0 0 0 0-.39v-1.7H78v2.4zm1.42.73h.38v-3.13h-.38v3.13zm0-4h.38v-.49h-.38v.52zm2.42 3.75a.79.79 0 0 0 .49-.15.48.48 0 0 0 .2-.41.53.53 0 0 0-.23-.44 2.76 2.76 0 0 0-.52-.28l-.27-.14-.25-.17a.88.88 0 0 1-.17-.23A.59.59 0 0 1 81 14a.74.74 0 0 1 .32-.66 1.28 1.28 0 0 1 .7-.19h.35a2.3 2.3 0 0 1 .42.12v.34a1.87 1.87 0 0 0-.69-.15.9.9 0 0 0-.48.11.36.36 0 0 0-.14.15.53.53 0 0 0-.06.26.29.29 0 0 0 .07.18.74.74 0 0 0 .18.15l.25.13.28.14a1.77 1.77 0 0 1 .53.34.81.81 0 0 1 .23.6.79.79 0 0 1-.1.41.87.87 0 0 1-.26.28 1.42 1.42 0 0 1-.73.2 2.66 2.66 0 0 1-.87-.08v-.38a1.76 1.76 0 0 0 .82.2m2.89 0a.79.79 0 0 0 .5-.15.48.48 0 0 0 .2-.41.53.53 0 0 0-.23-.44 2.72 2.72 0 0 0-.52-.28l-.27-.14-.25-.17a.86.86 0 0 1-.14-.22.59.59 0 0 1-.1-.34.74.74 0 0 1 .32-.66 1.29 1.29 0 0 1 .7-.19h.35a2.27 2.27 0 0 1 .42.12v.34a1.87 1.87 0 0 0-.69-.08.9.9 0 0 0-.48.11.36.36 0 0 0-.14.15.52.52 0 0 0-.06.26.29.29 0 0 0 .07.18.73.73 0 0 0 .18.15l.25.13.28.14a1.77 1.77 0 0 1 .53.34.81.81 0 0 1 .23.6.79.79 0 0 1-.1.41.87.87 0 0 1-.26.28 1.43 1.43 0 0 1-.73.2 2.66 2.66 0 0 1-.88-.15v-.38a1.76 1.76 0 0 0 .82.2m4.21-1.54a1.52 1.52 0 0 0-.18-.75.69.69 0 0 0-.62-.34.82.82 0 0 0-.67.35 1.2 1.2 0 0 0-.25.74h1.72zm.19 1.69a2.67 2.67 0 0 1-.91.17 1.29 1.29 0 0 1-1.1-.47 1.89 1.89 0 0 1-.33-1.17 1.88 1.88 0 0 1 .37-1.19 1.16 1.16 0 0 1 1-.46 1.1 1.1 0 0 1 1 .46 2 2 0 0 1 .29 1.09v.2H87.2a1.31 1.31 0 0 0 .26.84.91.91 0 0 0 .77.36 1.6 1.6 0 0 0 .48-.08 1.63 1.63 0 0 0 .4-.15v.39zM29 20.92h-.5a1.66 1.66 0 0 0-1.29.52 2.18 2.18 0 0 0 0 2.66 1.63 1.63 0 0 0 1.29.52 3.24 3.24 0 0 0 .5 0 1.31 1.31 0 0 0 .46-.14v.37a1.53 1.53 0 0 1-.47.14 3.6 3.6 0 0 1-.51 0 2.11 2.11 0 0 1-1.59-.61 2.21 2.21 0 0 1-.58-1.61 2.26 2.26 0 0 1 .58-1.61 2.11 2.11 0 0 1 1.58-.61h.51a1.43 1.43 0 0 1 .47.13v.39a1.54 1.54 0 0 0-.45-.15m2.36 3.33a.88.88 0 0 0 .77.39.91.91 0 0 0 .78-.39 1.55 1.55 0 0 0 .26-.92 1.61 1.61 0 0 0-.26-.93.93.93 0 0 0-.78-.4.89.89 0 0 0-.77.38 1.55 1.55 0 0 0-.27.93 1.5 1.5 0 0 0 .27.92M31 22.18a1.31 1.31 0 0 1 1.11-.5 1.33 1.33 0 0 1 1.12.5 2.06 2.06 0 0 1 0 2.28 1.32 1.32 0 0 1-1.12.51 1.3 1.3 0 0 1-1.11-.51 2 2 0 0 1 0-2.28m3.81.31v-.74h.38v.56l.13-.22a.93.93 0 0 1 .19-.2.84.84 0 0 1 .29-.15 1.35 1.35 0 0 1 .41-.05A1 1 0 0 1 37 22a1.44 1.44 0 0 1 .24.86v2h-.37V23a1.33 1.33 0 0 0-.17-.71.67.67 0 0 0-.58-.29.79.79 0 0 0-.73.37 1.06 1.06 0 0 0-.15.36 1.74 1.74 0 0 0 0 .41v1.74h-.43v-2.4zm4.19-.4h-.66v-.34H39v-.71a1.24 1.24 0 0 1 .09-.42.65.65 0 0 1 .25-.3.82.82 0 0 1 .46-.11h.2a.44.44 0 0 1 .16.06v.33a.71.71 0 0 0-.31-.06.42.42 0 0 0-.29.09.49.49 0 0 0-.14.24 1.17 1.17 0 0 0 0 .3v.59h.71v.33h-.77v2.81H39v-2.81zm4.15 1.01a1.52 1.52 0 0 0-.15-.75.69.69 0 0 0-.65-.35.82.82 0 0 0-.67.35 1.19 1.19 0 0 0-.25.74h1.72zm.19 1.69a2.67 2.67 0 0 1-.91.17 1.29 1.29 0 0 1-1.1-.47 2.17 2.17 0 0 1 0-2.36 1.16 1.16 0 0 1 1-.46 1.1 1.1 0 0 1 1 .46 2 2 0 0 1 .29 1.09v.2h-2.19a1.31 1.31 0 0 0 .26.84.91.91 0 0 0 .77.36 1.6 1.6 0 0 0 .48-.08 1.65 1.65 0 0 0 .4-.15v.39zm1.74-1.02a1.78 1.78 0 0 0 .15.43.91.91 0 0 0 .29.3.73.73 0 0 0 .45.13.75.75 0 0 0 .44-.13.91.91 0 0 0 .28-.31 1.86 1.86 0 0 0 .2-.87 2.5 2.5 0 0 0 0-.46 1.53 1.53 0 0 0-.16-.42 1 1 0 0 0-.28-.32A.81.81 0 0 0 46 22a.79.79 0 0 0-.45.12.83.83 0 0 0-.29.31 1.56 1.56 0 0 0-.15.42 2.55 2.55 0 0 0 0 .47 2.39 2.39 0 0 0 0 .45m2.2 1.12h-.42v-.5a1 1 0 0 1-1 .57 1.12 1.12 0 0 1-1-.47 2 2 0 0 1-.33-1.17 2 2 0 0 1 .3-1.18 1.12 1.12 0 0 1 1-.46 1.09 1.09 0 0 1 .41.07.92.92 0 0 1 .3.17.85.85 0 0 1 .28.36v-2h.39v4.61zm3.3-1.79a1.52 1.52 0 0 0-.18-.75.69.69 0 0 0-.62-.35.82.82 0 0 0-.67.35 1.19 1.19 0 0 0-.25.74h1.72zm.19 1.69a2.67 2.67 0 0 1-.91.17 1.29 1.29 0 0 1-1.1-.47 2.17 2.17 0 0 1 0-2.36 1.16 1.16 0 0 1 1-.46 1.1 1.1 0 0 1 1 .46 2 2 0 0 1 .21 1.11v.2h-2.12a1.31 1.31 0 0 0 .26.84.91.91 0 0 0 .77.36 1.6 1.6 0 0 0 .48-.08 1.65 1.65 0 0 0 .4-.15v.39zm1.45-2.33v-.7h.39v.6a1.35 1.35 0 0 1 .31-.47.69.69 0 0 1 .49-.2 1.23 1.23 0 0 1 .27 0v.41a1 1 0 0 0-.28 0 .66.66 0 0 0-.37.11.79.79 0 0 0-.24.3 1.55 1.55 0 0 0-.12.4 2.36 2.36 0 0 0 0 .44v1.55h-.45v-2.44zm4.3.85h-.62a1.82 1.82 0 0 0-.48.1.76.76 0 0 0-.35.23.59.59 0 0 0-.14.41.47.47 0 0 0 .2.43.74.74 0 0 0 .45.14.93.93 0 0 0 .53-.14.8.8 0 0 0 .28-.31 1 1 0 0 0 .1-.38v-.48zm0 1.08a.93.93 0 0 1-.41.42 1.29 1.29 0 0 1-.58.15 1.26 1.26 0 0 1-.53-.1.79.79 0 0 1-.32-.23 1 1 0 0 1-.19-.55.93.93 0 0 1 .19-.62 1 1 0 0 1 .47-.33 2.56 2.56 0 0 1 .65-.13h.71v-.18a.66.66 0 0 0-.71-.82 1.71 1.71 0 0 0-.92.26v-.36a2.31 2.31 0 0 1 .92-.22 1 1 0 0 1 1.1 1.17v1.38a4.72 4.72 0 0 0 0 .66h-.35v-.5z" transform="translate(-1.92 -2.01)"/><path class="cls-1" d="M56.13 22.56l1.88-2.48H56.2v-.34h2.26v.34l-1.89 2.47h1.89v.33h-2.33v-.32z"/><path class="cls-1" d="M61.55 24.89h.39v-3.14h-.39v3.14zm0-4h.39v-.49h-.39v.52zm2.3 3.36a.88.88 0 0 0 .77.39.91.91 0 0 0 .78-.39 1.55 1.55 0 0 0 .26-.92 1.61 1.61 0 0 0-.26-.93.93.93 0 0 0-.78-.4.89.89 0 0 0-.77.38 1.55 1.55 0 0 0-.27.93 1.5 1.5 0 0 0 .27.92m-.34-2.07a1.31 1.31 0 0 1 1.11-.5 1.33 1.33 0 0 1 1.12.5 2.06 2.06 0 0 1 0 2.28 1.32 1.32 0 0 1-1.12.51 1.3 1.3 0 0 1-1.11-.51 2 2 0 0 1 0-2.28m3.78.33v-.74h.38v.56l.13-.22a.93.93 0 0 1 .18-.2.84.84 0 0 1 .29-.15 1.35 1.35 0 0 1 .41-.05 1 1 0 0 1 .83.34 1.44 1.44 0 0 1 .24.86v2h-.4V23a1.33 1.33 0 0 0-.17-.71.67.67 0 0 0-.57-.29.79.79 0 0 0-.73.37 1.06 1.06 0 0 0-.15.36 1.74 1.74 0 0 0 0 .41v1.74h-.44v-2.4zm5.82.61a1.52 1.52 0 0 0-.18-.75.69.69 0 0 0-.62-.35.82.82 0 0 0-.67.35 1.19 1.19 0 0 0-.25.74h1.72zm.19 1.69a2.67 2.67 0 0 1-.91.17 1.29 1.29 0 0 1-1.1-.47 2.17 2.17 0 0 1 0-2.36 1.16 1.16 0 0 1 1-.46 1.1 1.1 0 0 1 1 .46 2 2 0 0 1 .29 1.09v.2h-2.19a1.31 1.31 0 0 0 .26.84.91.91 0 0 0 .77.36 1.6 1.6 0 0 0 .48-.08 1.65 1.65 0 0 0 .4-.15v.39zm4.45-.19a1.09 1.09 0 0 0 .69-.21.81.81 0 0 0 .28-.67.65.65 0 0 0-.31-.53 2.14 2.14 0 0 0-.31-.19l-.36-.2-.36-.22a2 2 0 0 1-.32-.25.87.87 0 0 1-.31-.67 1 1 0 0 1 .4-.83 1.57 1.57 0 0 1 1-.29h.39a2.58 2.58 0 0 1 .45.12l-.07.39a1.7 1.7 0 0 0-.78-.16 1.68 1.68 0 0 0-.33 0 .93.93 0 0 0-.3.13.65.65 0 0 0-.22.22.69.69 0 0 0-.09.36.49.49 0 0 0 .09.28.87.87 0 0 0 .22.23 2.33 2.33 0 0 0 .32.2l.36.2a2.49 2.49 0 0 1 .68.47 1.13 1.13 0 0 1-.14 1.67 1.71 1.71 0 0 1-1 .28 2.32 2.32 0 0 1-1-.18v-.44a1.62 1.62 0 0 0 .95.25" transform="translate(-1.92 -2.01)"/><path class="cls-1" d="M79.61 22.88h-.46l-1.06-3.14h.42l.87 2.72h.01l.91-2.72h.41l-1.1 3.14z"/><path class="cls-1" d="M83.65 24.89H84v-3.14h-.35v3.14zm0-4H84v-.49h-.35v.52z" transform="translate(-1.92 -2.01)"/><path class="cls-1" d="M83.28 22.56l1.89-2.48h-1.81v-.34h2.26v.34l-1.89 2.47h1.89v.33h-2.34v-.32zm3.22 0l1.89-2.48h-1.82v-.34h2.26v.34l-1.88 2.47h1.88v.33H86.5v-.32z"/><path class="cls-1" d="M93.83 23.1a1.52 1.52 0 0 0-.18-.75A.69.69 0 0 0 93 22a.82.82 0 0 0-.67.35 1.19 1.19 0 0 0-.25.74h1.72zm.17 1.69a2.67 2.67 0 0 1-.91.17 1.29 1.29 0 0 1-1.1-.47 2.17 2.17 0 0 1 0-2.36 1.16 1.16 0 0 1 1-.46 1.1 1.1 0 0 1 1 .46 2 2 0 0 1 .29 1.09v.2h-2.17a1.31 1.31 0 0 0 .26.84.91.91 0 0 0 .77.36 1.6 1.6 0 0 0 .48-.08 1.63 1.63 0 0 0 .38-.14v.39zm1.47-2.33v-.7h.39v.6a1.32 1.32 0 0 1 .31-.47.69.69 0 0 1 .49-.2 1.23 1.23 0 0 1 .27 0v.41a1 1 0 0 0-.28 0 .66.66 0 0 0-.37.11.8.8 0 0 0-.24.3 1.59 1.59 0 0 0-.12.4 2.45 2.45 0 0 0 0 .44v1.55h-.45v-2.44zm4.3.85h-.62a1.84 1.84 0 0 0-.48.1.76.76 0 0 0-.34.23.59.59 0 0 0-.14.41.47.47 0 0 0 .2.43.74.74 0 0 0 .46.14.93.93 0 0 0 .53-.14.81.81 0 0 0 .28-.31 1 1 0 0 0 .1-.38v-.48zm0 1.08a.94.94 0 0 1-.41.42 1.28 1.28 0 0 1-.58.15 1.26 1.26 0 0 1-.53-.1.8.8 0 0 1-.32-.23 1 1 0 0 1-.19-.55.93.93 0 0 1 .26-.62 1 1 0 0 1 .47-.33 2.54 2.54 0 0 1 .59-.13h.71v-.18a.66.66 0 0 0-.71-.82 1.71 1.71 0 0 0-.92.26v-.36a2.31 2.31 0 0 1 .92-.22 1 1 0 0 1 1.1 1.17v1.38a4.71 4.71 0 0 0 0 .66h-.35v-.5zM29 29.41a4.21 4.21 0 0 0-.5 0 1.66 1.66 0 0 0-1.29.52 2.18 2.18 0 0 0 0 2.66 1.63 1.63 0 0 0 1.29.52 3.24 3.24 0 0 0 .5 0 1.31 1.31 0 0 0 .46-.14v.37a1.54 1.54 0 0 1-.47.14 3.48 3.48 0 0 1-.51 0 2.11 2.11 0 0 1-1.59-.61 2.21 2.21 0 0 1-.58-1.61 2.26 2.26 0 0 1 .58-1.61 2.11 2.11 0 0 1 1.62-.65H29a1.4 1.4 0 0 1 .47.13v.39a1.54 1.54 0 0 0-.47-.11m2.36 3.32a.88.88 0 0 0 .77.39.91.91 0 0 0 .78-.39 1.55 1.55 0 0 0 .26-.92 1.61 1.61 0 0 0-.26-.93.93.93 0 0 0-.78-.37.89.89 0 0 0-.77.38 1.55 1.55 0 0 0-.27.93 1.5 1.5 0 0 0 .27.92M31 30.67a1.31 1.31 0 0 1 1.11-.5 1.33 1.33 0 0 1 1.12.5 2.06 2.06 0 0 1 0 2.28 1.32 1.32 0 0 1-1.12.5 1.3 1.3 0 0 1-1.11-.5 2 2 0 0 1 0-2.28m3.81.33v-.74h.38v.54l.13-.22a.93.93 0 0 1 .19-.2.84.84 0 0 1 .29-.15 1.35 1.35 0 0 1 .41-.05 1 1 0 0 1 .83.34 1.44 1.44 0 0 1 .24.86v2h-.41v-1.91a1.33 1.33 0 0 0-.17-.71.67.67 0 0 0-.58-.26.79.79 0 0 0-.73.37 1.06 1.06 0 0 0-.15.36 1.74 1.74 0 0 0 0 .41v1.74h-.43V31zm4.19-.43h-.66v-.33H39v-.73a1.24 1.24 0 0 1 .09-.42.65.65 0 0 1 .25-.3.82.82 0 0 1 .46-.11h.2a.44.44 0 0 1 .16.06v.33a.71.71 0 0 0-.33-.07.42.42 0 0 0-.29.09.5.5 0 0 0-.14.24 1.17 1.17 0 0 0 0 .3v.59h.71v.33h-.75v2.81H39v-2.79zm4.15 1.02a1.52 1.52 0 0 0-.15-.75.69.69 0 0 0-.62-.34.82.82 0 0 0-.67.34 1.19 1.19 0 0 0-.25.74h1.72zm.19 1.69a2.67 2.67 0 0 1-.91.17 1.29 1.29 0 0 1-1.1-.47 2.17 2.17 0 0 1 0-2.36 1.16 1.16 0 0 1 1-.45 1.1 1.1 0 0 1 1 .46 2 2 0 0 1 .29 1.09v.2h-2.19a1.31 1.31 0 0 0 .26.84.91.91 0 0 0 .77.36 1.6 1.6 0 0 0 .48-.12 1.65 1.65 0 0 0 .4-.15v.39zm1.74-1.02a1.78 1.78 0 0 0 .15.43.91.91 0 0 0 .29.3.73.73 0 0 0 .45.13.75.75 0 0 0 .43-.12.91.91 0 0 0 .28-.31 1.86 1.86 0 0 0 .2-.87 2.48 2.48 0 0 0 0-.45 1.52 1.52 0 0 0-.16-.42 1 1 0 0 0-.28-.32.81.81 0 0 0-.44-.13.79.79 0 0 0-.45.12.83.83 0 0 0-.29.31 1.56 1.56 0 0 0-.15.42 2.55 2.55 0 0 0 0 .47 2.39 2.39 0 0 0 0 .45m2.2 1.12h-.42v-.5a1 1 0 0 1-1 .57 1.12 1.12 0 0 1-1-.47 2 2 0 0 1-.33-1.17 2 2 0 0 1 .3-1.18 1.12 1.12 0 0 1 1-.46 1.09 1.09 0 0 1 .41.07.92.92 0 0 1 .3.17.85.85 0 0 1 .28.36v-2h.39v4.61zm3.3-1.8a1.52 1.52 0 0 0-.18-.75.69.69 0 0 0-.62-.34.82.82 0 0 0-.67.34 1.19 1.19 0 0 0-.25.74h1.72zm.19 1.69a2.67 2.67 0 0 1-.91.17 1.29 1.29 0 0 1-1.1-.47 2.17 2.17 0 0 1 0-2.36 1.16 1.16 0 0 1 1-.45 1.1 1.1 0 0 1 1 .46 2 2 0 0 1 .21 1.09v.2h-2.12a1.31 1.31 0 0 0 .26.84.91.91 0 0 0 .77.36 1.6 1.6 0 0 0 .49-.12 1.65 1.65 0 0 0 .4-.15v.39zm1.45-2.34v-.7h.39v.6a1.35 1.35 0 0 1 .31-.47.69.69 0 0 1 .49-.2 1.23 1.23 0 0 1 .27 0v.41a1 1 0 0 0-.28 0 .66.66 0 0 0-.37.11.79.79 0 0 0-.24.3 1.55 1.55 0 0 0-.12.4 2.36 2.36 0 0 0 0 .44v1.55h-.45v-2.44zm4.3.86h-.62a1.82 1.82 0 0 0-.48.1.76.76 0 0 0-.35.23.59.59 0 0 0-.14.41.47.47 0 0 0 .2.43.74.74 0 0 0 .45.14.93.93 0 0 0 .54-.11.79.79 0 0 0 .28-.31 1 1 0 0 0 .1-.38v-.51zm0 1.08a.93.93 0 0 1-.41.42 1.27 1.27 0 0 1-1.11 0 .79.79 0 0 1-.32-.23 1 1 0 0 1-.19-.55.93.93 0 0 1 .19-.62 1 1 0 0 1 .47-.33 2.56 2.56 0 0 1 .63-.14h.71v-.12a.66.66 0 0 0-.71-.81 1.71 1.71 0 0 0-.92.26v-.38a2.31 2.31 0 0 1 .92-.22 1 1 0 0 1 1.1 1.17v1.39a4.72 4.72 0 0 0 0 .66h-.33v-.5z" transform="translate(-1.92 -2.01)"/><path class="cls-1" d="M56.13 31.04l1.88-2.48H56.2v-.33h2.26v.33l-1.89 2.48h1.89v.33h-2.33v-.33z"/><path class="cls-1" d="M61.55 33.38h.39v-3.14h-.39v3.14zm0-4h.39v-.49h-.39v.51zm4.29 3.26v.74h-.35v-.56a1.07 1.07 0 0 1-.12.21 1 1 0 0 1-.19.21.89.89 0 0 1-.29.15 1.13 1.13 0 0 1-.42.07 1 1 0 0 1-.83-.34 1.36 1.36 0 0 1-.25-.86v-2h.39v1.91a1.2 1.2 0 0 0 .18.7.62.62 0 0 0 .57.27A.86.86 0 0 0 65 33a.74.74 0 0 0 .28-.27 1.09 1.09 0 0 0 .16-.37 1.88 1.88 0 0 0 0-.39v-1.73h.39v2.4zM67.29 31v-.74h.38v.54l.13-.22a.93.93 0 0 1 .18-.2.84.84 0 0 1 .29-.15 1.35 1.35 0 0 1 .41-.05 1 1 0 0 1 .83.34 1.44 1.44 0 0 1 .24.86v2h-.4v-1.91a1.33 1.33 0 0 0-.17-.71.67.67 0 0 0-.58-.26.79.79 0 0 0-.73.37 1.06 1.06 0 0 0-.15.36 1.74 1.74 0 0 0 0 .41v1.74h-.43V31zm6.61 2.12a.79.79 0 0 0 .49-.12.48.48 0 0 0 .2-.41.53.53 0 0 0-.23-.44 2.7 2.7 0 0 0-.52-.28l-.27-.14-.25-.17a.88.88 0 0 1-.17-.23.59.59 0 0 1-.06-.33.73.73 0 0 1 .32-.66 1.28 1.28 0 0 1 .7-.19h.35a2.3 2.3 0 0 1 .42.12v.34a1.87 1.87 0 0 0-.69-.15.89.89 0 0 0-.48.11.36.36 0 0 0-.14.15.53.53 0 0 0-.06.26.29.29 0 0 0 .07.18.74.74 0 0 0 .18.15l.24.17.28.14a1.76 1.76 0 0 1 .53.34.81.81 0 0 1 .23.6.79.79 0 0 1-.1.41.87.87 0 0 1-.26.28 1.42 1.42 0 0 1-.73.2 2.66 2.66 0 0 1-.95-.14v-.38a1.76 1.76 0 0 0 .82.2" transform="translate(-1.92 -2.01)"/><path class="cls-1" d="M75.37 31.37h-.46l-1.06-3.14h.42l.87 2.71h.01l.91-2.71h.41l-1.1 3.14z"/><path class="cls-1" d="M79.41 33.38h.39v-3.14h-.39v3.14zm0-4h.39v-.49h-.39v.51z" transform="translate(-1.92 -2.01)"/><path class="cls-1" d="M79.05 31.04l1.88-2.48h-1.81v-.33h2.26v.33l-1.89 2.48h1.89v.33h-2.33v-.33z"/><path class="cls-1" d="M84.47 30.94v-.7h.39v.6a1.34 1.34 0 0 1 .31-.47.69.69 0 0 1 .49-.2 1.24 1.24 0 0 1 .27 0v.41a1 1 0 0 0-.28 0 .66.66 0 0 0-.37.11.81.81 0 0 0-.28.31 1.59 1.59 0 0 0-.12.4 2.45 2.45 0 0 0 0 .44v1.55h-.41v-2.45zm4.29.86h-.61a1.84 1.84 0 0 0-.48.1.76.76 0 0 0-.34.23.59.59 0 0 0-.14.41.48.48 0 0 0 .2.43.74.74 0 0 0 .46.14.93.93 0 0 0 .52-.11.79.79 0 0 0 .28-.31 1 1 0 0 0 .1-.38v-.51zm0 1.08a.94.94 0 0 1-.41.42 1.27 1.27 0 0 1-1.11 0 .8.8 0 0 1-.32-.23 1 1 0 0 1-.19-.55.93.93 0 0 1 .19-.62 1 1 0 0 1 .47-.33 2.54 2.54 0 0 1 .61-.09h.71v-.17a.66.66 0 0 0-.71-.81 1.71 1.71 0 0 0-.92.26v-.38a2.31 2.31 0 0 1 .92-.21 1 1 0 0 1 1.1 1.17v1.39a4.71 4.71 0 0 0 0 .66h-.3v-.5z" transform="translate(-1.92 -2.01)"/><path class="cls-2" d="M19.36 3.44A23.54 23.54 0 0 0 10.66 2 23.55 23.55 0 0 0 2 3.44s-.29 6.31.94 9.88a13.19 13.19 0 0 0 7.76 8 13.2 13.2 0 0 0 7.76-8c1.24-3.57.94-9.88.94-9.88" transform="translate(-1.92 -2.01)"/><path class="cls-1" d="M14.52 6.87v3.47h-4.06v4.06H6.98v-4.06H2.93V6.87h4.05V2.81h3.48v4.06h4.06z"/></svg>