<svg id="Ebene_1" data-name="Ebene 1" xmlns="http://www.w3.org/2000/svg" viewBox="0 0 595.28 841.89"><defs><style>.cls-1{fill:#1d1d1b}.cls-2{fill:#fff}.cls-3{fill:#e2231a}</style></defs><title>sust_logo</title><path class="cls-1" d="M0 0h595.28v841.89H0z"/><path class="cls-2" d="M269.75 448.8h.39v-1.62l1.56 1.62h.54l-1.73-1.8 1.54-1.4h-.5l-1.41 1.3v-2.78h-.39v4.65zm-1-4.53h-.39v.52h.39v-.52zm-.39 4.53h.39v-3.16h-.39v3.16zm-.7-3.16H267v-.9l-.39.14v.76h-.62v.36h.62v1.85c0 .58 0 1.05.72 1.05a1.44 1.44 0 0 0 .48-.09v-.32a.91.91 0 0 1-.36.07.43.43 0 0 1-.45-.56v-2h.72v-.33zM265 447.4a1 1 0 0 1-.94 1.14.56.56 0 0 1-.66-.57c0-.69.81-.76 1.48-.76h.12v.19zm0 1.4h.38a4.49 4.49 0 0 1 0-.66v-1.4a1 1 0 0 0-1.11-1.18 2.49 2.49 0 0 0-.93.22v.38a1.68 1.68 0 0 1 .93-.26.66.66 0 0 1 .72.81v.16h-.07c-.82 0-1.95 0-1.95 1.11a.89.89 0 0 0 1 .89 1.11 1.11 0 0 0 1-.58v.51zm-2.8-4.53h-.39v.52h.39v-.52zm-.39 4.53h.39v-3.16h-.39v3.16zm-.55-3.16h-.41l-.85 2.73-.87-2.73h-.43l1.07 3.16h.46zm-3.72 1.63h-1.88l.94-2.39zm-2.92 1.53h.42l.47-1.16h2.18l.47 1.16h.45l-1.72-4.33h-.48zm-4.76 0h.39v-1.69a1 1 0 0 1 .94-1.21c.65 0 .75.47.75 1v1.88h.39v-1.89c0-.78-.23-1.34-1.08-1.34a1.07 1.07 0 0 0-1 .61v-2h-.39v4.65zm-.66-3.11a2.37 2.37 0 0 0-.76-.12 1.53 1.53 0 0 0-1.56 1.66 1.5 1.5 0 0 0 1.51 1.65 2.34 2.34 0 0 0 .81-.11v-.36a2 2 0 0 1-.71.14 1.2 1.2 0 0 1-1.15-1.32 1.18 1.18 0 0 1 1.19-1.32 1.8 1.8 0 0 1 .68.16zm-3.08-1.41h-.39v.52h.39v-.52zm-.39 4.53h.39v-3.16h-.39v3.16zm-2.91-1.8a1 1 0 0 1 .93-1.1.92.92 0 0 1 .81 1.1h-1.74zm1.93 1.31a2 2 0 0 1-.89.23 1.07 1.07 0 0 1-1-1.21H245v-.2a1.33 1.33 0 0 0-1.26-1.57 1.45 1.45 0 0 0-1.33 1.66 1.4 1.4 0 0 0 1.44 1.65 2.58 2.58 0 0 0 .92-.17v-.4zm-4.07.49h.39v-1.56a1 1 0 0 1 .79-1.26 1 1 0 0 1 .29 0v-.39a1.13 1.13 0 0 0-.27 0 .94.94 0 0 0-.81.68v-.61h-.39a5.62 5.62 0 0 1 0 .71v2.45zm-2.91-1.8a1 1 0 0 1 .93-1.1.92.92 0 0 1 .81 1.1h-1.74zm1.93 1.31a2 2 0 0 1-.89.23 1.07 1.07 0 0 1-1-1.21H240v-.2a1.33 1.33 0 0 0-1.26-1.57 1.45 1.45 0 0 0-1.33 1.66 1.4 1.4 0 0 0 1.44 1.65 2.58 2.58 0 0 0 .92-.17v-.4zm-5.12-3.46h.59a.78.78 0 0 1 .94.71.87.87 0 0 1-1.05.81h-.46v-1.52zm0 1.89h.42c.63 0 1.3.08 1.3.85a1 1 0 0 1-1.23.84h-.45v-1.69zm-.43 2.06h.85c.9 0 1.67-.29 1.67-1.23a1 1 0 0 0-.92-1 .89.89 0 0 0 .79-1 1.13 1.13 0 0 0-1.37-1.07h-1v4.33zm149.96-11.09h-1.24V437h3.35v.68H385v3.65h-.87v-3.65zm-2.79-.07h-.22a.63.63 0 0 0-.22.09.49.49 0 0 0-.17.19.59.59 0 0 0-.07.3.32.32 0 0 0 .09.23.9.9 0 0 0 .22.17l.31.14.34.14a2.67 2.67 0 0 1 .35.16 1.27 1.27 0 0 1 .3.24 1.17 1.17 0 0 1 .22.33 1.35 1.35 0 0 1 .07.48 1.14 1.14 0 0 1-.48 1 2.06 2.06 0 0 1-1.15.3 2.73 2.73 0 0 1-.56 0l-.55-.12.08-.78a2 2 0 0 0 1 .27 1.05 1.05 0 0 0 .51-.14.46.46 0 0 0 .25-.42.47.47 0 0 0-.07-.27.71.71 0 0 0-.22-.19 5.8 5.8 0 0 0-.65-.28 2.43 2.43 0 0 1-.34-.17 1.61 1.61 0 0 1-.31-.22 1.17 1.17 0 0 1-.22-.33 1.09 1.09 0 0 1-.09-.45 1.17 1.17 0 0 1 .48-1 1.86 1.86 0 0 1 1-.29 3.34 3.34 0 0 1 1 .15l-.08.71a2.27 2.27 0 0 0-.88-.19m-6-.61h.87v2.5a1.56 1.56 0 0 0 .2.88.88.88 0 0 0 1.4 0 1.67 1.67 0 0 0 .2-.88V437h.87v2.77a1.77 1.77 0 0 1-3.53 0V437zm-2 .61h-.22a.64.64 0 0 0-.22.09.48.48 0 0 0-.17.19.58.58 0 0 0-.07.3.33.33 0 0 0 .09.23.9.9 0 0 0 .22.17l.31.14.34.14a2.8 2.8 0 0 1 .35.16 1.29 1.29 0 0 1 .3.24 1.19 1.19 0 0 1 .22.33 1.37 1.37 0 0 1 .07.48 1.14 1.14 0 0 1-.48 1 2.06 2.06 0 0 1-1.15.3 2.73 2.73 0 0 1-.57 0l-.54-.12.08-.78a2 2 0 0 0 1 .27 1 1 0 0 0 .51-.14.49.49 0 0 0 .18-.69.71.71 0 0 0-.22-.19 5.8 5.8 0 0 0-.65-.28 2.48 2.48 0 0 1-.34-.17 1.65 1.65 0 0 1-.31-.22 1.19 1.19 0 0 1-.22-.33 1.09 1.09 0 0 1-.09-.45 1.17 1.17 0 0 1 .48-1 1.85 1.85 0 0 1 1-.29 3.35 3.35 0 0 1 1 .15l-.08.71a2.26 2.26 0 0 0-.88-.19m-4.13 3.55a2.21 2.21 0 0 1-1.1.25 1.49 1.49 0 0 1-1.67-1.66 1.91 1.91 0 0 1 .37-1.2 1.35 1.35 0 0 1 1.11-.49 1.33 1.33 0 0 1 1.21.54 2.66 2.66 0 0 1 .31 1.39h-2a.81.81 0 0 0 .28.59.92.92 0 0 0 .63.22 1.63 1.63 0 0 0 .57-.1 2.53 2.53 0 0 0 .49-.22v.68zm-.56-1.74a.94.94 0 0 0-.17-.53.61.61 0 0 0-.51-.22.69.69 0 0 0-.53.21.89.89 0 0 0-.21.54h1.41zm-3.51-2.85h.83v4.65H365v-4.65zm-1.72 0h.83v4.65h-.83v-4.65zm-.9 4.48a2.2 2.2 0 0 1-1.1.25 1.49 1.49 0 0 1-1.67-1.66 1.91 1.91 0 0 1 .37-1.2 1.35 1.35 0 0 1 1.11-.49 1.33 1.33 0 0 1 1.21.54 2.66 2.66 0 0 1 .31 1.39h-2.21a.81.81 0 0 0 .28.59.92.92 0 0 0 .63.22 1.62 1.62 0 0 0 .57-.1 2.5 2.5 0 0 0 .49-.22v.68zm-.56-1.74a.93.93 0 0 0-.17-.53.61.61 0 0 0-.51-.22.7.7 0 0 0-.53.21.89.89 0 0 0-.21.54h1.41zm-4.14-.68h-.61v-.61h.61v-.64l.83-.27v.9h.74v.61h-.75v1.49a.66.66 0 0 0 .08.36.32.32 0 0 0 .31.17.72.72 0 0 0 .38-.09v.66a2.15 2.15 0 0 1-.61.07.92.92 0 0 1-1-1v-1.62zm-1.13.06l-.35-.11a2.27 2.27 0 0 0-.4 0 .77.77 0 0 0-.32.07.3.3 0 0 0-.17.29.28.28 0 0 0 .23.25l.24.08.26.09a1.55 1.55 0 0 1 .27.11 1.15 1.15 0 0 1 .22.17.78.78 0 0 1 .17.26 1.1 1.1 0 0 1 .06.38.9.9 0 0 1-.41.8 1.76 1.76 0 0 1-.93.24 3.64 3.64 0 0 1-.94-.14v-.68a1.7 1.7 0 0 0 .82.21.81.81 0 0 0 .35-.09.31.31 0 0 0 .19-.3.34.34 0 0 0-.06-.2.42.42 0 0 0-.17-.12 4.26 4.26 0 0 0-.5-.16l-.26-.11a.91.91 0 0 1-.24-.16.65.65 0 0 1-.16-.25.81.81 0 0 1-.07-.35.83.83 0 0 1 .39-.76 1.54 1.54 0 0 1 .86-.24 3.58 3.58 0 0 1 .51 0l.4.09zm-2.75 0l-.35-.11a2.26 2.26 0 0 0-.4 0 .77.77 0 0 0-.32.07.3.3 0 0 0-.17.29.28.28 0 0 0 .23.25l.24.08.26.09a1.55 1.55 0 0 1 .27.11 1.12 1.12 0 0 1 .22.17.8.8 0 0 1 .17.26 1.13 1.13 0 0 1 .06.38.9.9 0 0 1-.41.8 1.75 1.75 0 0 1-.93.24 3.64 3.64 0 0 1-.94-.14v-.68a1.7 1.7 0 0 0 .82.21.81.81 0 0 0 .35-.09.31.31 0 0 0 .19-.3.35.35 0 0 0-.06-.2.43.43 0 0 0-.17-.12 4.26 4.26 0 0 0-.5-.16l-.26-.11a.91.91 0 0 1-.24-.16.65.65 0 0 1-.16-.25.81.81 0 0 1-.07-.35.83.83 0 0 1 .39-.76 1.54 1.54 0 0 1 .86-.24 3.61 3.61 0 0 1 .51 0l.4.09zm-2.75-.67v3.2a2.47 2.47 0 0 1-.06.31 1.43 1.43 0 0 1-.27.54 1.2 1.2 0 0 1-.51.37 2.16 2.16 0 0 1-.83.15 3.08 3.08 0 0 1-1.1-.22l.07-.71a2.89 2.89 0 0 0 .46.19 1.72 1.72 0 0 0 .46.09 1.21 1.21 0 0 0 .55-.12.76.76 0 0 0 .29-.3 1.21 1.21 0 0 0 .12-.4v-.42a.94.94 0 0 1-.37.35 1.2 1.2 0 0 1-.62.16 1.11 1.11 0 0 1-1-.49 1.93 1.93 0 0 1-.3-1.12 2 2 0 0 1 .32-1.12 1.16 1.16 0 0 1 1-.53 1.1 1.1 0 0 1 1 .51v-.43h.74zm-1 2.25a1.32 1.32 0 0 0 .17-.69 1.39 1.39 0 0 0-.22-.72.6.6 0 0 0-.53-.29.62.62 0 0 0-.58.32 1.33 1.33 0 0 0-.17.69 1.23 1.23 0 0 0 .18.64.79.79 0 0 0 .22.23.51.51 0 0 0 .3.09.62.62 0 0 0 .57-.3m-5.72-2.25h.79v.43a1.24 1.24 0 0 1 1-.51 1 1 0 0 1 .83.35 1.49 1.49 0 0 1 .25.9v2h-.83v-2.02a.82.82 0 0 0-.06-.29.45.45 0 0 0-.15-.23.55.55 0 0 0-.32-.08.57.57 0 0 0-.36.11.83.83 0 0 0-.22.27 1.24 1.24 0 0 0-.11.34 1.76 1.76 0 0 0 0 .35v1.56h-.83v-3.19zm-.85 3.19h-.79v-.43a1.3 1.3 0 0 1-1 .51 1 1 0 0 1-.82-.36 1.42 1.42 0 0 1-.27-.89v-2h.83v1.7a.9.9 0 0 0 0 .14v.16a1.45 1.45 0 0 0 .06.3.56.56 0 0 0 .16.22.46.46 0 0 0 .3.09.59.59 0 0 0 .38-.12.67.67 0 0 0 .22-.27 1 1 0 0 0 .11-.34 2.55 2.55 0 0 0 0-.33v-1.56h.83v3.19zm-6.72-4.65h.83v1.89a1.16 1.16 0 0 1 1-.51 1 1 0 0 1 .83.35 1.48 1.48 0 0 1 .25.9v2h-.83v-2.02a.8.8 0 0 0-.06-.29.44.44 0 0 0-.15-.23.55.55 0 0 0-.32-.08.57.57 0 0 0-.36.11.83.83 0 0 0-.22.27 1.24 1.24 0 0 0-.11.34 1.76 1.76 0 0 0 0 .35v1.56h-.83v-4.65zm-.68 2.14a1 1 0 0 0-.24-.09 1.54 1.54 0 0 0-.33 0 .77.77 0 0 0-.61.27 1.09 1.09 0 0 0-.24.74 1.2 1.2 0 0 0 .22.74.75.75 0 0 0 .64.3 1.22 1.22 0 0 0 .36-.06l.28-.09v.69a1.74 1.74 0 0 1-.37.07 3 3 0 0 1-.46 0 1.44 1.44 0 0 1-1.17-.48 1.77 1.77 0 0 1-.4-1.2 1.73 1.73 0 0 1 .4-1.18 1.42 1.42 0 0 1 1.14-.48 2.64 2.64 0 0 1 .81.11zm-2.93 2.51h-.79v-.43a1.3 1.3 0 0 1-1 .51 1 1 0 0 1-.82-.36 1.42 1.42 0 0 1-.27-.89v-2h.79v1.7a.9.9 0 0 0 0 .14v.16a1.45 1.45 0 0 0 .06.3.56.56 0 0 0 .16.22.46.46 0 0 0 .3.09.59.59 0 0 0 .38-.12.67.67 0 0 0 .22-.27 1 1 0 0 0 .11-.34 2.55 2.55 0 0 0 0-.33v-1.56h.83v3.19zm-3.79-2.52l-.35-.11a2.27 2.27 0 0 0-.4 0 .77.77 0 0 0-.32.07.3.3 0 0 0-.17.29.28.28 0 0 0 .23.25l.24.08.26.09a1.55 1.55 0 0 1 .27.11 1.12 1.12 0 0 1 .22.17.78.78 0 0 1 .17.26 1.1 1.1 0 0 1 .06.38.9.9 0 0 1-.41.8 1.75 1.75 0 0 1-.93.24 3.64 3.64 0 0 1-.94-.14v-.68a1.7 1.7 0 0 0 .82.21.81.81 0 0 0 .35-.09.31.31 0 0 0 .19-.3.34.34 0 0 0-.06-.2.42.42 0 0 0-.17-.12 4.26 4.26 0 0 0-.36-.11l-.26-.11a.91.91 0 0 1-.24-.16.65.65 0 0 1-.16-.25.81.81 0 0 1-.07-.35.83.83 0 0 1 .39-.76 1.54 1.54 0 0 1 .86-.24 3.58 3.58 0 0 1 .51 0l.4.09zm-4.29-.67h.74v.73a1 1 0 0 1 .27-.51.78.78 0 0 1 .6-.29h.25v.94a.83.83 0 0 0-.37-.07.52.52 0 0 0-.39.14.79.79 0 0 0-.2.34 1.72 1.72 0 0 0-.07.42v1.57h-.83v-3.19zm-.9 3a2.2 2.2 0 0 1-1.1.25 1.49 1.49 0 0 1-1.67-1.66 1.91 1.91 0 0 1 .37-1.2 1.35 1.35 0 0 1 1.11-.49 1.33 1.33 0 0 1 1.21.54 2.67 2.67 0 0 1 .31 1.39h-2.21a.81.81 0 0 0 .28.59.93.93 0 0 0 .63.22 1.63 1.63 0 0 0 .57-.1 2.5 2.5 0 0 0 .49-.22v.68zm-.56-1.74a.93.93 0 0 0-.17-.53.61.61 0 0 0-.51-.22.7.7 0 0 0-.53.21.89.89 0 0 0-.21.54h1.41zm-4.14-.68h-.61v-.61h.61v-.64l.83-.27v.9h.76v.61h-.74v1.49a.66.66 0 0 0 .08.36.32.32 0 0 0 .31.17.72.72 0 0 0 .38-.09v.66a2.16 2.16 0 0 1-.61.07.92.92 0 0 1-1-1v-1.62zm-4.06-.61h.79v.43a1.24 1.24 0 0 1 1-.51 1 1 0 0 1 .83.35 1.49 1.49 0 0 1 .25.9v2h-.83v-2.02a.82.82 0 0 0-.06-.29.45.45 0 0 0-.16-.23.55.55 0 0 0-.32-.08.57.57 0 0 0-.36.11.83.83 0 0 0-.22.27 1.24 1.24 0 0 0-.11.34 1.84 1.84 0 0 0 0 .35v1.56h-.83v-3.19zm-.85 3.19h-.79v-.43a1.3 1.3 0 0 1-1 .51 1 1 0 0 1-.82-.36 1.42 1.42 0 0 1-.27-.89v-2h.83v1.7a.8.8 0 0 0 0 .14v.16a1.39 1.39 0 0 0 .06.3.55.55 0 0 0 .16.22.46.46 0 0 0 .3.09.59.59 0 0 0 .38-.12.68.68 0 0 0 .22-.27 1 1 0 0 0 .11-.34 2.39 2.39 0 0 0 0-.33v-1.56h.83v3.19zm-3.79-2.52l-.35-.11a2.28 2.28 0 0 0-.4 0 .78.78 0 0 0-.32.07.3.3 0 0 0-.17.29.28.28 0 0 0 .23.25l.24.08.26.09a1.55 1.55 0 0 1 .27.11 1.12 1.12 0 0 1 .22.17.78.78 0 0 1 .17.26 1.12 1.12 0 0 1 .06.38.9.9 0 0 1-.41.8 1.75 1.75 0 0 1-.93.24 3.64 3.64 0 0 1-.94-.14v-.68a1.69 1.69 0 0 0 .82.21.81.81 0 0 0 .35-.09.31.31 0 0 0 .19-.3.35.35 0 0 0-.06-.2.42.42 0 0 0-.17-.12 4.2 4.2 0 0 0-.5-.16l-.26-.11a.92.92 0 0 1-.24-.16.65.65 0 0 1-.16-.25.82.82 0 0 1-.07-.35.83.83 0 0 1 .39-.76 1.54 1.54 0 0 1 .86-.24 3.6 3.6 0 0 1 .51 0l.4.09zm-4-.06h-.61v-.61h.61v-.64l.83-.27v.9h.74v.61h-.74v1.49a.66.66 0 0 0 .08.36.32.32 0 0 0 .31.17.72.72 0 0 0 .38-.09v.66a2.15 2.15 0 0 1-.61.07.92.92 0 0 1-1-1v-1.62zm-2-2h.83v.79h-.83v-.79zm0 1.38h.83v3.19h-.83v-3.19zm-.9 3a2.21 2.21 0 0 1-1.1.25 1.49 1.49 0 0 1-1.67-1.66 1.91 1.91 0 0 1 .37-1.2 1.35 1.35 0 0 1 1.11-.49 1.33 1.33 0 0 1 1.21.54 2.66 2.66 0 0 1 .31 1.39h-2.21a.81.81 0 0 0 .28.59.92.92 0 0 0 .63.22 1.63 1.63 0 0 0 .57-.1 2.5 2.5 0 0 0 .49-.22v.68zm-.56-1.74a.93.93 0 0 0-.17-.53.61.61 0 0 0-.51-.22.7.7 0 0 0-.53.21.89.89 0 0 0-.21.54h1.41zm-5.79-2.74h.83v1.89a1.16 1.16 0 0 1 1-.51 1 1 0 0 1 .83.35 1.48 1.48 0 0 1 .26.9v2h-.83v-2.02a.84.84 0 0 0-.06-.29.45.45 0 0 0-.15-.23.55.55 0 0 0-.32-.08.57.57 0 0 0-.36.11.82.82 0 0 0-.22.27 1.24 1.24 0 0 0-.11.34 1.76 1.76 0 0 0 0 .35v1.56h-.83v-4.65zm-2.39 1.46h.74v.73a1 1 0 0 1 .27-.51.78.78 0 0 1 .6-.29h.25v1a.82.82 0 0 0-.37-.07.52.52 0 0 0-.38.14.8.8 0 0 0-.2.34 1.72 1.72 0 0 0-.07.42v1.57h-.83v-3.19zm-.91 3a2.21 2.21 0 0 1-1.1.25 1.49 1.49 0 0 1-1.67-1.66 1.91 1.91 0 0 1 .37-1.2 1.35 1.35 0 0 1 1.11-.49 1.33 1.33 0 0 1 1.21.54 2.66 2.66 0 0 1 .31 1.39h-2.21a.81.81 0 0 0 .28.59.92.92 0 0 0 .63.22 1.63 1.63 0 0 0 .57-.1 2.53 2.53 0 0 0 .49-.22v.68zm-.56-1.74a.94.94 0 0 0-.17-.53.61.61 0 0 0-.51-.22.69.69 0 0 0-.53.21.89.89 0 0 0-.21.54h1.41zm-5.79-2.74h.83v1.89a1.16 1.16 0 0 1 1-.51 1 1 0 0 1 .83.35 1.48 1.48 0 0 1 .25.9v2h-.83v-2.02a.8.8 0 0 0-.06-.29.44.44 0 0 0-.16-.23.55.55 0 0 0-.32-.08.57.57 0 0 0-.36.11.83.83 0 0 0-.22.27 1.27 1.27 0 0 0-.11.34 1.76 1.76 0 0 0 0 .35v1.56h-.83v-4.65zm-.68 2.14a1 1 0 0 0-.24-.09 1.54 1.54 0 0 0-.33 0 .77.77 0 0 0-.61.27 1.09 1.09 0 0 0-.24.74 1.2 1.2 0 0 0 .22.74.75.75 0 0 0 .64.3 1.22 1.22 0 0 0 .36-.06l.28-.09v.69a1.74 1.74 0 0 1-.37.07 3 3 0 0 1-.46 0 1.44 1.44 0 0 1-1.17-.48 1.77 1.77 0 0 1-.4-1.2 1.73 1.73 0 0 1 .4-1.18 1.42 1.42 0 0 1 1.14-.48 2.64 2.64 0 0 1 .81.11zm-3.78-2.06h.83v.79h-.83v-.79zm0 1.38h.83v3.19h-.83v-3.19zm-1.95-.53h-.22a.64.64 0 0 0-.22.09.48.48 0 0 0-.17.19.58.58 0 0 0-.07.3.32.32 0 0 0 .09.23.9.9 0 0 0 .22.17l.31.14.34.14a2.67 2.67 0 0 1 .35.16 1.27 1.27 0 0 1 .3.24 1.17 1.17 0 0 1 .22.33 1.35 1.35 0 0 1 .08.48 1.14 1.14 0 0 1-.48 1 2.06 2.06 0 0 1-1.15.3 2.73 2.73 0 0 1-.56 0l-.55-.12.08-.78a2 2 0 0 0 1 .27 1.05 1.05 0 0 0 .51-.14.49.49 0 0 0 .18-.69.71.71 0 0 0-.22-.19 5.8 5.8 0 0 0-.65-.28 2.43 2.43 0 0 1-.34-.17 1.61 1.61 0 0 1-.31-.22 1.17 1.17 0 0 1-.22-.33 1.09 1.09 0 0 1-.09-.45 1.17 1.17 0 0 1 .48-1 1.85 1.85 0 0 1 1-.29 3.34 3.34 0 0 1 1 .15l-.08.71a2.27 2.27 0 0 0-.88-.19m-4.13 3.55a2.2 2.2 0 0 1-1.1.25 1.49 1.49 0 0 1-1.67-1.66 1.91 1.91 0 0 1 .37-1.2 1.35 1.35 0 0 1 1.11-.49 1.33 1.33 0 0 1 1.21.54 2.66 2.66 0 0 1 .31 1.39h-2.21a.81.81 0 0 0 .28.59.92.92 0 0 0 .63.22 1.62 1.62 0 0 0 .57-.1 2.5 2.5 0 0 0 .49-.22v.68zm-.56-1.74a.93.93 0 0 0-.17-.53.61.61 0 0 0-.51-.22.7.7 0 0 0-.53.21.89.89 0 0 0-.21.54h1.41zm-5.79-2.74h.83v1.89a1.16 1.16 0 0 1 1-.51 1 1 0 0 1 .83.35 1.49 1.49 0 0 1 .25.9v2h-.83v-2.02a.82.82 0 0 0 .05-.25.45.45 0 0 0-.16-.23.55.55 0 0 0-.32-.08.57.57 0 0 0-.36.11.83.83 0 0 0-.22.27 1.24 1.24 0 0 0-.11.34 1.84 1.84 0 0 0 0 .35v1.56H271v-4.65zm-.68 2.14a1 1 0 0 0-.24-.09 1.55 1.55 0 0 0-.33 0 .77.77 0 0 0-.61.27 1.09 1.09 0 0 0-.24.74 1.2 1.2 0 0 0 .22.74.75.75 0 0 0 .65.3 1.22 1.22 0 0 0 .36-.06l.28-.09v.69a1.74 1.74 0 0 1-.37.07 3 3 0 0 1-.46 0 1.44 1.44 0 0 1-1.17-.48 1.77 1.77 0 0 1-.4-1.2 1.73 1.73 0 0 1 .4-1.18 1.43 1.43 0 0 1 1.14-.48 2.64 2.64 0 0 1 .81.11zm-2.93 0l-.35-.11a2.28 2.28 0 0 0-.4 0 .77.77 0 0 0-.32.07.3.3 0 0 0-.17.29.28.28 0 0 0 .23.25l.24.08.26.09a1.55 1.55 0 0 1 .27.11 1.15 1.15 0 0 1 .22.17.78.78 0 0 1 .17.26 1.12 1.12 0 0 1 .06.38.9.9 0 0 1-.41.8 1.76 1.76 0 0 1-.93.24 3.65 3.65 0 0 1-.94-.14v-.68a1.69 1.69 0 0 0 .82.21.81.81 0 0 0 .35-.09.31.31 0 0 0 .19-.3.35.35 0 0 0-.06-.2.42.42 0 0 0-.17-.12 4.26 4.26 0 0 0-.32-.09l-.26-.11a.92.92 0 0 1-.24-.16.65.65 0 0 1-.16-.25.81.81 0 0 1-.07-.35.84.84 0 0 1 .39-.76 1.54 1.54 0 0 1 .86-.24 3.58 3.58 0 0 1 .51 0l.4.09zm-3.6-2h.83v.79h-.83v-.79zm0 1.38h.83v3.19h-.83v-3.19zm-2.41 0h.74v.73a1 1 0 0 1 .27-.51.78.78 0 0 1 .6-.29h.25v.91a.83.83 0 0 0-.37-.07.52.52 0 0 0-.38.14.79.79 0 0 0-.21.34 1.72 1.72 0 0 0-.07.42v1.57h-.83v-3.19zm-.9 3a2.2 2.2 0 0 1-1.1.25 1.49 1.49 0 0 1-1.67-1.66 1.91 1.91 0 0 1 .37-1.2 1.35 1.35 0 0 1 1.11-.49 1.33 1.33 0 0 1 1.21.54 2.66 2.66 0 0 1 .31 1.39h-2.21a.81.81 0 0 0 .28.59.92.92 0 0 0 .63.22 1.62 1.62 0 0 0 .57-.1 2.5 2.5 0 0 0 .49-.22v.68zm-.56-1.74a.93.93 0 0 0-.17-.53.61.61 0 0 0-.51-.22.7.7 0 0 0-.53.21.89.89 0 0 0-.21.54h1.41zm-5.24-1.28h2.53v.68l-1.59 1.87h1.64v.64h-2.65v-.68l1.62-1.87h-1.55v-.65zm-1.57-1.38h.83v.79h-.83v-.79zm0 1.38h.83v3.19h-.83v-3.19zm-.91 3a2.2 2.2 0 0 1-1.1.25 1.49 1.49 0 0 1-1.67-1.66 1.91 1.91 0 0 1 .37-1.2 1.35 1.35 0 0 1 1.11-.49 1.33 1.33 0 0 1 1.21.54 2.66 2.66 0 0 1 .31 1.39h-2.21a.81.81 0 0 0 .28.59.92.92 0 0 0 .63.22 1.63 1.63 0 0 0 .57-.1 2.52 2.52 0 0 0 .49-.22v.68zm-.56-1.74a.93.93 0 0 0-.17-.53.61.61 0 0 0-.51-.22.69.69 0 0 0-.53.21.89.89 0 0 0-.21.54h1.41zm-7.87-1.28h.87l.72 2.36.65-2.36h1l.69 2.36.66-2.36h.79l-1 3.19h-1l-.69-2.44-.68 2.44h-.85zm-3.43-1.46h.83v1.89a1.16 1.16 0 0 1 1-.51 1 1 0 0 1 .83.35 1.48 1.48 0 0 1 .25.9v2h-.83v-2.02a.8.8 0 0 0-.06-.29.44.44 0 0 0-.15-.23.55.55 0 0 0-.32-.08.57.57 0 0 0-.36.11.83.83 0 0 0-.22.27 1.27 1.27 0 0 0-.11.34 1.76 1.76 0 0 0 0 .35v1.56h-.83v-4.65zm-.68 2.14a1 1 0 0 0-.24-.09 1.54 1.54 0 0 0-.33 0 .77.77 0 0 0-.61.27 1.09 1.09 0 0 0-.24.74 1.2 1.2 0 0 0 .22.74.75.75 0 0 0 .64.3 1.22 1.22 0 0 0 .36-.06l.28-.09v.69a1.74 1.74 0 0 1-.37.07 3 3 0 0 1-.46 0 1.44 1.44 0 0 1-1.17-.48 1.77 1.77 0 0 1-.4-1.2 1.73 1.73 0 0 1 .4-1.18 1.42 1.42 0 0 1 1.14-.48 2.64 2.64 0 0 1 .81.11zm-4-1.22h-.22a.63.63 0 0 0-.22.09.49.49 0 0 0-.17.19.59.59 0 0 0-.07.3.32.32 0 0 0 .09.23.9.9 0 0 0 .22.17l.31.14.34.14a2.73 2.73 0 0 1 .35.16 1.27 1.27 0 0 1 .3.24 1.17 1.17 0 0 1 .22.33 1.37 1.37 0 0 1 .07.48 1.14 1.14 0 0 1-.48 1 2.06 2.06 0 0 1-1.15.3 2.72 2.72 0 0 1-.56 0l-.55-.12.08-.78a2 2 0 0 0 1 .27 1.06 1.06 0 0 0 .52-.14.46.46 0 0 0 .25-.42.47.47 0 0 0-.07-.27.72.72 0 0 0-.22-.19 6 6 0 0 0-.65-.28 2.43 2.43 0 0 1-.34-.17 1.61 1.61 0 0 1-.31-.22 1.15 1.15 0 0 1-.22-.33 1.09 1.09 0 0 1-.09-.45 1.17 1.17 0 0 1 .48-1 1.86 1.86 0 0 1 1-.29 3.34 3.34 0 0 1 1 .15l-.08.71a2.26 2.26 0 0 0-.88-.19m-.94-39a1.09 1.09 0 0 0 .69-.21.81.81 0 0 0 .28-.67.65.65 0 0 0-.31-.53 2.14 2.14 0 0 0-.31-.21l-.36-.2-.36-.22a2 2 0 0 1-.32-.25.87.87 0 0 1-.31-.67 1 1 0 0 1 .4-.83 1.57 1.57 0 0 1 1-.29h.39a2.58 2.58 0 0 1 .45.12l-.07.39a1.7 1.7 0 0 0-.78-.16 1.68 1.68 0 0 0-.33 0 .9.9 0 0 0-.3.13.65.65 0 0 0-.22.22.69.69 0 0 0-.09.36.49.49 0 0 0 .09.28.88.88 0 0 0 .22.23 2.33 2.33 0 0 0 .32.2l.36.2a2.49 2.49 0 0 1 .68.47 1.13 1.13 0 0 1-.14 1.67 1.71 1.71 0 0 1-1 .28 2.34 2.34 0 0 1-1-.18v-.44a1.63 1.63 0 0 0 .95.25m4.8-2.37a1.66 1.66 0 0 0-.67-.16 1.09 1.09 0 0 0-.87.36 1.4 1.4 0 0 0-.31.95 1.38 1.38 0 0 0 .31.92 1 1 0 0 0 .83.39 1.86 1.86 0 0 0 .71-.14v.36a2.61 2.61 0 0 1-.81.11 1.35 1.35 0 0 1-1.13-.5 1.78 1.78 0 0 1-.38-1.14 1.67 1.67 0 0 1 .43-1.19 1.48 1.48 0 0 1 1.12-.45 2.21 2.21 0 0 1 .48 0h.27zm1.16-1.89h.39v2a1.11 1.11 0 0 1 .38-.44 1.13 1.13 0 0 1 .6-.17.94.94 0 0 1 .86.37 1.83 1.83 0 0 1 .22 1v1.88h-.38v-1.87a3.05 3.05 0 0 0 0-.39.83.83 0 0 0-.1-.31.63.63 0 0 0-.62-.3.79.79 0 0 0-.72.39 1.55 1.55 0 0 0-.21.81v1.68h-.39v-4.62zm7.13 4.61h-.47l-.85-2.71h-.02l-.85 2.71h-.47l-1.01-3.13h.43l.82 2.71h.01l.88-2.71h.47l.83 2.71h.01l.87-2.71h.38l-1.03 3.13zm3.96-1.79a1.52 1.52 0 0 0-.18-.75.69.69 0 0 0-.62-.34.82.82 0 0 0-.67.35 1.19 1.19 0 0 0-.25.74h1.72zm.19 1.69a2.67 2.67 0 0 1-.91.17 1.29 1.29 0 0 1-1.1-.47 2.17 2.17 0 0 1 0-2.36 1.16 1.16 0 0 1 1-.46 1.1 1.1 0 0 1 1 .46 2 2 0 0 1 .29 1.09v.2h-2.15a1.31 1.31 0 0 0 .26.84.91.91 0 0 0 .77.36 1.6 1.6 0 0 0 .48-.08 1.65 1.65 0 0 0 .4-.15v.39zm1.45.1h.39v-3.14h-.39v3.14zm0-4h.39v-.52h-.39v.52zm1.56 3.68l1.89-2.48h-1.82v-.33h2.26v.33l-1.89 2.47h1.89v.33h-2.33v-.32zm5.41-1.47a1.52 1.52 0 0 0-.18-.75.69.69 0 0 0-.62-.34.82.82 0 0 0-.67.35 1.19 1.19 0 0 0-.25.74h1.72zm.19 1.69a2.67 2.67 0 0 1-.91.17 1.29 1.29 0 0 1-1.1-.47 2.17 2.17 0 0 1 0-2.36 1.16 1.16 0 0 1 1-.46 1.1 1.1 0 0 1 1 .46 2 2 0 0 1 .29 1.09v.2h-2.15a1.31 1.31 0 0 0 .26.84.91.91 0 0 0 .77.36 1.6 1.6 0 0 0 .48-.08 1.65 1.65 0 0 0 .4-.15v.39zm1.45-2.33v-.7h.39v.6a1.35 1.35 0 0 1 .31-.47.69.69 0 0 1 .49-.2 1.23 1.23 0 0 1 .27 0v.41a1 1 0 0 0-.28 0 .66.66 0 0 0-.37.11.79.79 0 0 0-.24.3 1.52 1.52 0 0 0-.12.4 2.36 2.36 0 0 0 0 .44v1.55h-.39v-2.44zm2.53 2.43h.39v-3.14h-.39v3.14zm0-4h.39v-.52h-.39v.52zm2.43 3.74a.79.79 0 0 0 .49-.15.48.48 0 0 0 .2-.41.53.53 0 0 0-.23-.44 2.76 2.76 0 0 0-.52-.28l-.27-.14-.25-.17a.88.88 0 0 1-.17-.23.59.59 0 0 1-.07-.29.73.73 0 0 1 .32-.66 1.28 1.28 0 0 1 .7-.19h.35a2.3 2.3 0 0 1 .42.12v.34a1.87 1.87 0 0 0-.7-.16.89.89 0 0 0-.48.11.36.36 0 0 0-.14.15.53.53 0 0 0-.06.26.29.29 0 0 0 .07.18.75.75 0 0 0 .18.15l.23.15.28.14a1.77 1.77 0 0 1 .53.34.81.81 0 0 1 .23.6.79.79 0 0 1-.1.41.87.87 0 0 1-.26.28 1.42 1.42 0 0 1-.73.2 2.66 2.66 0 0 1-.88-.15v-.38a1.76 1.76 0 0 0 .82.2m4.37-2.44a1.66 1.66 0 0 0-.67-.16 1.09 1.09 0 0 0-.87.36 1.4 1.4 0 0 0-.31.95 1.38 1.38 0 0 0 .31.92 1 1 0 0 0 .83.39 1.86 1.86 0 0 0 .71-.14v.36a2.61 2.61 0 0 1-.81.11 1.35 1.35 0 0 1-1.13-.5 1.78 1.78 0 0 1-.38-1.14 1.67 1.67 0 0 1 .43-1.19 1.48 1.48 0 0 1 1.12-.45 2.21 2.21 0 0 1 .48 0h.27zm1.17-1.89h.39v2a1.11 1.11 0 0 1 .38-.44 1.13 1.13 0 0 1 .6-.17.94.94 0 0 1 .86.37 1.83 1.83 0 0 1 .21 1v1.88h-.39v-1.87a3.05 3.05 0 0 0 0-.39.83.83 0 0 0-.11-.31.63.63 0 0 0-.61-.3.79.79 0 0 0-.72.39 1.56 1.56 0 0 0-.21.81v1.68h-.39v-4.62zm5.77 2.82a1.52 1.52 0 0 0-.18-.75.69.69 0 0 0-.62-.34.82.82 0 0 0-.67.35 1.19 1.19 0 0 0-.25.74H278zm.19 1.69a2.67 2.67 0 0 1-.91.17 1.29 1.29 0 0 1-1.1-.47 2.17 2.17 0 0 1 0-2.36 1.16 1.16 0 0 1 1-.46 1.1 1.1 0 0 1 1 .46 2 2 0 0 1 .29 1.09v.2h-2.15a1.31 1.31 0 0 0 .26.84.91.91 0 0 0 .77.36 1.6 1.6 0 0 0 .48-.08 1.65 1.65 0 0 0 .4-.15v.39zm3.55-4.19h2.1v.37h-1.68v1.53h1.6v.37h-1.6v1.65h1.76v.37h-2.18v-4.29zm3.51 4.29h.39v-3.14h-.39v3.14zm0-4h.39v-.52h-.39v.52zm2.13 2.88a1.78 1.78 0 0 0 .15.43.91.91 0 0 0 .29.3.73.73 0 0 0 .45.13.75.75 0 0 0 .44-.13.91.91 0 0 0 .28-.31 1.86 1.86 0 0 0 .2-.87 2.48 2.48 0 0 0 0-.46 1.52 1.52 0 0 0-.16-.42 1 1 0 0 0-.28-.32.81.81 0 0 0-.44-.12.79.79 0 0 0-.45.12.83.83 0 0 0-.29.31 1.56 1.56 0 0 0-.15.42 2.55 2.55 0 0 0 0 .47 2.39 2.39 0 0 0 0 .45m2.2 1.12h-.42v-.5a1 1 0 0 1-1 .57 1.12 1.12 0 0 1-1-.47 2 2 0 0 1-.33-1.17 2 2 0 0 1 .3-1.18 1.12 1.12 0 0 1 1-.46 1.09 1.09 0 0 1 .41.07.92.92 0 0 1 .3.17.85.85 0 0 1 .28.36v-2h.39v4.61zm1.83-.72a.75.75 0 0 0 .69.39.81.81 0 0 0 .75-.41 1.71 1.71 0 0 0 .21-.83 2 2 0 0 0-.2-.94.91.91 0 0 0-1.18-.25.84.84 0 0 0-.29.31 1.56 1.56 0 0 0-.15.42 2.55 2.55 0 0 0 0 .47 1.58 1.58 0 0 0 .21.84m2 .47a1.86 1.86 0 0 1-.33 1.12 1.36 1.36 0 0 1-1.14.47 2.67 2.67 0 0 1-.57-.07l-.38-.1v-.39a2 2 0 0 0 .92.22 1.19 1.19 0 0 0 .59-.14.76.76 0 0 0 .33-.34 1.47 1.47 0 0 0 .14-.51v-.62a1 1 0 0 1-1 .62 1.13 1.13 0 0 1-1-.53 1.52 1.52 0 0 1-.22-.5 2.29 2.29 0 0 1 .23-1.72 1.12 1.12 0 0 1 1-.46 1.93 1.93 0 0 1 .54.07 1 1 0 0 1 .44.36v-.36h.39v2.88zm3.32-1.54a1.52 1.52 0 0 0-.18-.75.69.69 0 0 0-.63-.38.82.82 0 0 0-.67.35 1.2 1.2 0 0 0-.25.74h1.72zm.19 1.69a2.67 2.67 0 0 1-.91.17 1.29 1.29 0 0 1-1.1-.47 2.17 2.17 0 0 1 0-2.36 1.16 1.16 0 0 1 1-.46 1.1 1.1 0 0 1 1 .46 2 2 0 0 1 .29 1.09v.2h-2.15a1.31 1.31 0 0 0 .26.84.91.91 0 0 0 .77.36 1.6 1.6 0 0 0 .48-.08 1.63 1.63 0 0 0 .4-.15v.39zm1.46-2.3v-.74h.38v.56l.13-.22a.93.93 0 0 1 .18-.2.83.83 0 0 1 .29-.15 1.36 1.36 0 0 1 .41-.05 1 1 0 0 1 .83.34 1.44 1.44 0 0 1 .24.86v2h-.39V397a1.33 1.33 0 0 0-.17-.71.67.67 0 0 0-.58-.26.8.8 0 0 0-.73.37 1.08 1.08 0 0 0-.15.36 1.74 1.74 0 0 0 0 .41v1.74h-.39v-2.4zm4.35 1.76a.88.88 0 0 0 .77.39.92.92 0 0 0 .78-.39 1.55 1.55 0 0 0 .26-.92 1.61 1.61 0 0 0-.26-.93.93.93 0 0 0-.78-.37.89.89 0 0 0-.77.38 1.55 1.55 0 0 0-.27.93 1.5 1.5 0 0 0 .27.92m-.34-2.07a1.49 1.49 0 0 1 2.23 0 2.05 2.05 0 0 1 0 2.28 1.48 1.48 0 0 1-2.23 0 2 2 0 0 1 0-2.28m4.37 2.44a.79.79 0 0 0 .49-.15.48.48 0 0 0 .2-.41.53.53 0 0 0-.23-.44 2.73 2.73 0 0 0-.52-.28l-.27-.14-.25-.17a.86.86 0 0 1-.17-.23.59.59 0 0 1-.07-.29.73.73 0 0 1 .32-.66 1.29 1.29 0 0 1 .7-.19h.35a2.28 2.28 0 0 1 .42.12v.34a1.88 1.88 0 0 0-.69-.15.9.9 0 0 0-.48.11.37.37 0 0 0-.14.15.53.53 0 0 0-.06.26.29.29 0 0 0 .07.18.73.73 0 0 0 .18.15l.25.13.28.14a1.77 1.77 0 0 1 .53.34.89.89 0 0 1 .14 1 .88.88 0 0 1-.26.28 1.42 1.42 0 0 1-.73.2 2.67 2.67 0 0 1-.88-.15v-.38a1.76 1.76 0 0 0 .82.2m2.87.04a.79.79 0 0 0 .49-.15.49.49 0 0 0 .2-.41.53.53 0 0 0-.23-.44 2.72 2.72 0 0 0-.52-.28l-.27-.14-.25-.17a.86.86 0 0 1-.17-.23.59.59 0 0 1-.07-.29.74.74 0 0 1 .32-.66 1.29 1.29 0 0 1 .7-.19h.35a2.27 2.27 0 0 1 .42.12v.34a1.87 1.87 0 0 0-.68-.16.89.89 0 0 0-.48.11.37.37 0 0 0-.14.15.53.53 0 0 0-.06.26.29.29 0 0 0 .07.18.73.73 0 0 0 .18.15l.25.13.28.14a1.78 1.78 0 0 1 .54.34.8.8 0 0 1 .23.6.79.79 0 0 1-.1.41.87.87 0 0 1-.26.28 1.43 1.43 0 0 1-.73.2 2.66 2.66 0 0 1-.88-.15v-.38a1.76 1.76 0 0 0 .82.2m4.2-1.49a1.52 1.52 0 0 0-.18-.75.69.69 0 0 0-.62-.34.82.82 0 0 0-.67.35 1.19 1.19 0 0 0-.25.74h1.72zm.19 1.69a2.66 2.66 0 0 1-.91.17 1.29 1.29 0 0 1-1.1-.47 2.17 2.17 0 0 1 0-2.36 1.16 1.16 0 0 1 1-.46 1.1 1.1 0 0 1 1 .46 2 2 0 0 1 .29 1.09v.2h-2.19a1.31 1.31 0 0 0 .26.84.91.91 0 0 0 .77.36 1.6 1.6 0 0 0 .48-.08 1.62 1.62 0 0 0 .4-.15v.39zm1.45-2.3v-.74h.38v.56a2.23 2.23 0 0 1 .13-.22 1 1 0 0 1 .18-.2.84.84 0 0 1 .29-.15 1.35 1.35 0 0 1 .41-.05 1 1 0 0 1 .83.34 1.43 1.43 0 0 1 .24.86v2h-.39V397a1.32 1.32 0 0 0-.17-.71.67.67 0 0 0-.58-.26.8.8 0 0 0-.73.37 1.06 1.06 0 0 0-.15.36 1.74 1.74 0 0 0 0 .41v1.74h-.39v-2.4zm4.44 2.14a.79.79 0 0 0 .49-.15.48.48 0 0 0 .2-.41.53.53 0 0 0-.23-.44 2.73 2.73 0 0 0-.52-.28l-.27-.14-.25-.17a.86.86 0 0 1-.17-.23.59.59 0 0 1-.07-.29.73.73 0 0 1 .32-.66 1.29 1.29 0 0 1 .7-.19h.35a2.31 2.31 0 0 1 .42.12v.34a1.88 1.88 0 0 0-.69-.15.9.9 0 0 0-.48.11.37.37 0 0 0-.14.15.53.53 0 0 0-.06.26.29.29 0 0 0 .07.18.73.73 0 0 0 .18.15l.25.13.28.14a1.77 1.77 0 0 1 .53.34.89.89 0 0 1 .14 1 .88.88 0 0 1-.26.28 1.42 1.42 0 0 1-.73.2 2.67 2.67 0 0 1-.88-.15v-.38a1.76 1.76 0 0 0 .82.2m4.38-2.42a1.66 1.66 0 0 0-.67-.16 1.09 1.09 0 0 0-.87.36 1.4 1.4 0 0 0-.31.95 1.38 1.38 0 0 0 .31.92 1 1 0 0 0 .83.39 1.85 1.85 0 0 0 .71-.14v.36a2.6 2.6 0 0 1-.81.11 1.35 1.35 0 0 1-1.13-.5 1.78 1.78 0 0 1-.38-1.14 1.67 1.67 0 0 1 .43-1.19 1.48 1.48 0 0 1 1.12-.45 2.22 2.22 0 0 1 .48 0h.27zm1.17-1.89h.39v2a1.12 1.12 0 0 1 .38-.44 1.14 1.14 0 0 1 .6-.17.94.94 0 0 1 .86.37 1.83 1.83 0 0 1 .21 1v1.88h-.39v-1.87a3.24 3.24 0 0 0 0-.39.85.85 0 0 0-.1-.31.63.63 0 0 0-.62-.3.79.79 0 0 0-.72.39 1.56 1.56 0 0 0-.21.81v1.68h-.39v-4.62zm5.67 3.03h-.62a1.84 1.84 0 0 0-.48.1.77.77 0 0 0-.35.23.59.59 0 0 0-.14.41.47.47 0 0 0 .2.43.74.74 0 0 0 .46.14.93.93 0 0 0 .54-.14.81.81 0 0 0 .28-.31 1 1 0 0 0 .11-.38v-.5zm0 1.08a.94.94 0 0 1-.41.42 1.27 1.27 0 0 1-1.11 0 .79.79 0 0 1-.32-.23 1 1 0 0 1-.19-.55.94.94 0 0 1 .19-.62 1 1 0 0 1 .47-.33 2.52 2.52 0 0 1 .63-.14h.71v-.16a.66.66 0 0 0-.71-.81 1.72 1.72 0 0 0-.92.26v-.37a2.32 2.32 0 0 1 .92-.22 1 1 0 0 1 1.1 1.17v1.38a4.71 4.71 0 0 0 0 .66h-.38v-.5zm2.05-2.3h-.63v-.33h.63v-.72a1.22 1.22 0 0 1 .09-.42.66.66 0 0 1 .25-.3.83.83 0 0 1 .46-.11h.2a.43.43 0 0 1 .16.06v.33a.71.71 0 0 0-.31-.06.43.43 0 0 0-.29.09.51.51 0 0 0-.14.24 1.22 1.22 0 0 0 0 .3v.59h.71v.33h-.71v2.81h-.39v-2.81zm3.62 0h-.71v2a.64.64 0 0 0 .1.36.34.34 0 0 0 .32.15.79.79 0 0 0 .36-.07v.32l-.19.06a1.2 1.2 0 0 1-.28 0 .8.8 0 0 1-.4-.09.57.57 0 0 1-.22-.23 1.15 1.15 0 0 1-.08-.33 3.82 3.82 0 0 1 0-.4v-1.83h-.61v-.33h.61V395l.39-.14v.89h.71v.33zm-100.74 7.32h-.5a1.66 1.66 0 0 0-1.29.52 2.18 2.18 0 0 0 0 2.66 1.63 1.63 0 0 0 1.29.52 3.24 3.24 0 0 0 .5 0 1.31 1.31 0 0 0 .46-.14v.37a1.56 1.56 0 0 1-.47.14 3.6 3.6 0 0 1-.51 0 2.11 2.11 0 0 1-1.59-.61 2.21 2.21 0 0 1-.58-1.61 2.26 2.26 0 0 1 .58-1.61 2.11 2.11 0 0 1 1.58-.61h.51a1.43 1.43 0 0 1 .47.13v.39a1.54 1.54 0 0 0-.46-.15m2.36 3.32a.88.88 0 0 0 .77.39.91.91 0 0 0 .78-.39 1.55 1.55 0 0 0 .26-.92 1.61 1.61 0 0 0-.26-.93.93.93 0 0 0-.78-.37.89.89 0 0 0-.77.38 1.55 1.55 0 0 0-.27.93 1.5 1.5 0 0 0 .27.92m-.34-2.07a1.31 1.31 0 0 1 1.11-.5 1.33 1.33 0 0 1 1.12.5 2.06 2.06 0 0 1 0 2.28 1.32 1.32 0 0 1-1.12.51 1.3 1.3 0 0 1-1.11-.51 2 2 0 0 1 0-2.28m3.79.3v-.74h.38v.56l.13-.22a.93.93 0 0 1 .19-.2.84.84 0 0 1 .29-.15 1.35 1.35 0 0 1 .41-.05 1 1 0 0 1 .83.34 1.44 1.44 0 0 1 .24.86v2H244v-1.9a1.33 1.33 0 0 0-.17-.71.67.67 0 0 0-.58-.26.79.79 0 0 0-.73.37 1.06 1.06 0 0 0-.15.36 1.74 1.74 0 0 0 0 .41v1.74h-.39V405zm4.16-.4h-.63v-.33h.63v-.76a1.24 1.24 0 0 1 .09-.42.65.65 0 0 1 .25-.3.82.82 0 0 1 .46-.11h.2a.44.44 0 0 1 .16.06v.33a.71.71 0 0 0-.31-.06.42.42 0 0 0-.29.09.49.49 0 0 0-.14.24 1.17 1.17 0 0 0 0 .3v.59h.71v.33h-.74v2.81h-.39v-2.77zm3.55-1.6h.49l-.78.89h-.28zm.63 2.58a1.52 1.52 0 0 0-.18-.75.69.69 0 0 0-.62-.34.82.82 0 0 0-.67.35 1.2 1.2 0 0 0-.25.74h1.72zm.19 1.69a2.66 2.66 0 0 1-.91.17 1.29 1.29 0 0 1-1.1-.47 1.89 1.89 0 0 1-.33-1.17 1.87 1.87 0 0 1 .37-1.19 1.16 1.16 0 0 1 1-.46 1.1 1.1 0 0 1 1 .46 2 2 0 0 1 .29 1.09v.3h-2.15a1.31 1.31 0 0 0 .26.84.91.91 0 0 0 .77.36 1.6 1.6 0 0 0 .48-.08 1.66 1.66 0 0 0 .4-.15v.39zm1.74-.98a1.78 1.78 0 0 0 .15.43.91.91 0 0 0 .29.3.73.73 0 0 0 .45.13.75.75 0 0 0 .44-.13.91.91 0 0 0 .28-.31 1.86 1.86 0 0 0 .2-.87 2.5 2.5 0 0 0 0-.46 1.53 1.53 0 0 0-.16-.42 1 1 0 0 0-.28-.32.81.81 0 0 0-.44-.12.79.79 0 0 0-.45.12.83.83 0 0 0-.29.31 1.56 1.56 0 0 0-.15.42 2.55 2.55 0 0 0 0 .47 2.39 2.39 0 0 0 0 .45m2.2 1.12H254v-.5a1 1 0 0 1-1 .57 1.12 1.12 0 0 1-1-.47 2 2 0 0 1-.33-1.17 2 2 0 0 1 .3-1.18 1.12 1.12 0 0 1 1-.46 1.09 1.09 0 0 1 .41.07.92.92 0 0 1 .3.17.85.85 0 0 1 .28.36v-2h.39v4.61zm2.66-4.41h.49l-.78.89h-.28zm.63 2.58a1.52 1.52 0 0 0-.18-.75.69.69 0 0 0-.62-.34.82.82 0 0 0-.67.35 1.2 1.2 0 0 0-.25.74h1.72zm.19 1.69a2.66 2.66 0 0 1-.91.17 1.29 1.29 0 0 1-1.1-.47 2.17 2.17 0 0 1 0-2.36 1.16 1.16 0 0 1 1-.46 1.1 1.1 0 0 1 1 .46 2 2 0 0 1 .29 1.09v.3H256a1.31 1.31 0 0 0 .26.84.91.91 0 0 0 .77.36 1.6 1.6 0 0 0 .48-.08 1.66 1.66 0 0 0 .4-.15v.39zm1.45-2.27v-.7h.39v.6a1.35 1.35 0 0 1 .31-.47.69.69 0 0 1 .49-.2 1.23 1.23 0 0 1 .27 0v.41a1 1 0 0 0-.28 0 .66.66 0 0 0-.37.11.79.79 0 0 0-.24.3 1.55 1.55 0 0 0-.12.4 2.36 2.36 0 0 0 0 .44v1.55h-.39V405zm4.3.83h-.61a1.82 1.82 0 0 0-.48.1.76.76 0 0 0-.35.23.59.59 0 0 0-.14.41.47.47 0 0 0 .2.43.74.74 0 0 0 .45.14.93.93 0 0 0 .53-.14.79.79 0 0 0 .28-.31 1 1 0 0 0 .1-.38v-.5zm0 1.08a.93.93 0 0 1-.41.42 1.27 1.27 0 0 1-1.11 0 .79.79 0 0 1-.32-.23 1 1 0 0 1-.19-.55.93.93 0 0 1 .19-.62 1 1 0 0 1 .47-.33 2.56 2.56 0 0 1 .63-.14h.71v-.16a.66.66 0 0 0-.71-.81 1.71 1.71 0 0 0-.92.26v-.37a2.31 2.31 0 0 1 .92-.22 1 1 0 0 1 1.1 1.17v1.38a4.72 4.72 0 0 0 0 .66h-.38v-.5zm3.14-2.31h-.71v2a.64.64 0 0 0 .1.36.34.34 0 0 0 .32.15.8.8 0 0 0 .36-.07v.32l-.19.06a1.21 1.21 0 0 1-.28 0 .8.8 0 0 1-.4-.09.58.58 0 0 1-.22-.23 1.15 1.15 0 0 1-.08-.33v-2.17h-.62v-.33h.62v-.76l.39-.14v.89h.71v.33zm1.17 2.81h.39v-3.14H268v3.14zm0-4h.39v-.52H268v.52zm2.31 3.35a.88.88 0 0 0 .77.39.91.91 0 0 0 .78-.39 1.55 1.55 0 0 0 .26-.92 1.61 1.61 0 0 0-.26-.93.93.93 0 0 0-.78-.37.89.89 0 0 0-.77.38 1.55 1.55 0 0 0-.27.93 1.5 1.5 0 0 0 .27.92m-.31-2.07a1.31 1.31 0 0 1 1.11-.5 1.33 1.33 0 0 1 1.12.5 2.06 2.06 0 0 1 0 2.28 1.32 1.32 0 0 1-1.12.51A1.3 1.3 0 0 1 270 407a2 2 0 0 1 0-2.28m3.75.28v-.74h.38v.56l.13-.22a.93.93 0 0 1 .18-.2.84.84 0 0 1 .29-.15 1.35 1.35 0 0 1 .41-.05 1 1 0 0 1 .83.34 1.44 1.44 0 0 1 .24.86v2h-.39v-1.9a1.33 1.33 0 0 0-.17-.71.67.67 0 0 0-.58-.26.79.79 0 0 0-.73.37 1.06 1.06 0 0 0-.15.36 1.74 1.74 0 0 0 0 .41v1.74h-.39V405zm6.61 2.15a.79.79 0 0 0 .49-.15.48.48 0 0 0 .2-.41.53.53 0 0 0-.23-.44 2.76 2.76 0 0 0-.52-.28l-.27-.14-.25-.17a.88.88 0 0 1-.17-.23.59.59 0 0 1-.07-.29.74.74 0 0 1 .32-.66 1.28 1.28 0 0 1 .7-.19h.35a2.3 2.3 0 0 1 .42.12v.34a1.87 1.87 0 0 0-.69-.15.9.9 0 0 0-.48.11.36.36 0 0 0-.14.15.53.53 0 0 0-.06.26.29.29 0 0 0 .07.18.74.74 0 0 0 .18.15l.25.13.28.14a1.77 1.77 0 0 1 .53.34.81.81 0 0 1 .23.6.79.79 0 0 1-.1.41.87.87 0 0 1-.26.28 1.42 1.42 0 0 1-.73.2 2.66 2.66 0 0 1-.88-.15v-.38a1.76 1.76 0 0 0 .82.2m4.75-.45v.74h-.38v-.56a1.07 1.07 0 0 1-.12.21 1 1 0 0 1-.19.21.89.89 0 0 1-.29.15 1.13 1.13 0 0 1-.42.07 1 1 0 0 1-.82-.34 1.36 1.36 0 0 1-.25-.86v-2h.37v1.91a1.2 1.2 0 0 0 .18.7.62.62 0 0 0 .57.27.86.86 0 0 0 .45-.11.74.74 0 0 0 .28-.27 1.11 1.11 0 0 0 .16-.37 1.88 1.88 0 0 0 0-.39v-1.74h.39v2.4zm1.46.74h.39v-3.14h-.39v3.14zm0-4h.39v-.52h-.39v.52zm2.44 3.74a.79.79 0 0 0 .49-.15.48.48 0 0 0 .2-.41.53.53 0 0 0-.23-.44 2.76 2.76 0 0 0-.52-.28l-.27-.14-.25-.17a.88.88 0 0 1-.17-.23.59.59 0 0 1-.07-.29.74.74 0 0 1 .32-.66 1.28 1.28 0 0 1 .7-.19h.35a2.3 2.3 0 0 1 .42.12v.34a1.87 1.87 0 0 0-.69-.15.9.9 0 0 0-.48.11.36.36 0 0 0-.14.15.53.53 0 0 0-.06.26.29.29 0 0 0 .07.18.74.74 0 0 0 .18.15l.25.13.28.14a1.77 1.77 0 0 1 .53.34.81.81 0 0 1 .23.6.79.79 0 0 1-.1.41.87.87 0 0 1-.26.28 1.42 1.42 0 0 1-.73.2 2.66 2.66 0 0 1-.88-.15v-.38a1.76 1.76 0 0 0 .82.2m2.87.03a.79.79 0 0 0 .49-.15.48.48 0 0 0 .2-.41.53.53 0 0 0-.23-.44 2.72 2.72 0 0 0-.52-.28l-.27-.14-.25-.17a.86.86 0 0 1-.17-.23.59.59 0 0 1-.07-.29.74.74 0 0 1 .32-.66 1.29 1.29 0 0 1 .7-.19h.35a2.27 2.27 0 0 1 .42.12v.34a1.87 1.87 0 0 0-.69-.15.9.9 0 0 0-.48.11.36.36 0 0 0-.14.15.52.52 0 0 0-.06.26.29.29 0 0 0 .07.18.73.73 0 0 0 .18.15l.25.13.28.14a1.77 1.77 0 0 1 .53.34.81.81 0 0 1 .23.6.79.79 0 0 1-.1.41.87.87 0 0 1-.26.28 1.43 1.43 0 0 1-.73.2 2.66 2.66 0 0 1-.88-.15v-.38a1.76 1.76 0 0 0 .82.2m4.21-1.5a1.52 1.52 0 0 0-.18-.75.69.69 0 0 0-.62-.34.82.82 0 0 0-.67.35 1.2 1.2 0 0 0-.25.74h1.72zm.19 1.69a2.67 2.67 0 0 1-.91.17 1.29 1.29 0 0 1-1.1-.47 2.17 2.17 0 0 1 0-2.36 1.16 1.16 0 0 1 1-.46 1.1 1.1 0 0 1 1 .46 2 2 0 0 1 .29 1.09v.26h-2.15a1.31 1.31 0 0 0 .26.84.91.91 0 0 0 .77.36 1.6 1.6 0 0 0 .48-.08 1.63 1.63 0 0 0 .4-.15v.39zm-60.1 4.62h-.5a1.66 1.66 0 0 0-1.29.52 2.18 2.18 0 0 0 0 2.66 1.63 1.63 0 0 0 1.29.52 3.24 3.24 0 0 0 .5 0 1.31 1.31 0 0 0 .46-.14v.37a1.53 1.53 0 0 1-.47.14 3.6 3.6 0 0 1-.51 0 2.11 2.11 0 0 1-1.59-.61 2.21 2.21 0 0 1-.58-1.61 2.26 2.26 0 0 1 .58-1.61 2.11 2.11 0 0 1 1.58-.61h.51a1.43 1.43 0 0 1 .47.13v.39a1.54 1.54 0 0 0-.46-.15m2.36 3.32a.88.88 0 0 0 .77.39.91.91 0 0 0 .78-.39 1.55 1.55 0 0 0 .26-.92 1.61 1.61 0 0 0-.26-.93.93.93 0 0 0-.78-.37.89.89 0 0 0-.77.38 1.55 1.55 0 0 0-.27.93 1.5 1.5 0 0 0 .27.92m-.34-2.07a1.31 1.31 0 0 1 1.11-.5 1.33 1.33 0 0 1 1.12.5 2.06 2.06 0 0 1 0 2.28 1.32 1.32 0 0 1-1.12.51 1.3 1.3 0 0 1-1.11-.51 2 2 0 0 1 0-2.28m3.79.31v-.74h.38v.56l.13-.22a.93.93 0 0 1 .19-.2.84.84 0 0 1 .29-.15 1.35 1.35 0 0 1 .41-.05 1 1 0 0 1 .83.34 1.44 1.44 0 0 1 .24.86v2H244V414a1.33 1.33 0 0 0-.17-.71.67.67 0 0 0-.58-.26.79.79 0 0 0-.73.37 1.06 1.06 0 0 0-.15.36 1.74 1.74 0 0 0 0 .41v1.74h-.39v-2.4zm4.16-.41h-.63v-.33h.63v-.72a1.24 1.24 0 0 1 .09-.42.65.65 0 0 1 .25-.3.82.82 0 0 1 .46-.11h.2a.44.44 0 0 1 .16.06v.33a.71.71 0 0 0-.31-.06.42.42 0 0 0-.29.09.49.49 0 0 0-.14.24 1.17 1.17 0 0 0 0 .3v.59h.71v.33h-.74v2.81h-.39v-2.81zm4.18 1.02a1.52 1.52 0 0 0-.18-.75.69.69 0 0 0-.62-.34.82.82 0 0 0-.67.35 1.19 1.19 0 0 0-.25.74h1.72zm.19 1.69a2.67 2.67 0 0 1-.91.17 1.29 1.29 0 0 1-1.1-.47 2.17 2.17 0 0 1 0-2.36 1.16 1.16 0 0 1 1-.46 1.1 1.1 0 0 1 1 .46 2 2 0 0 1 .29 1.09v.2h-2.15a1.31 1.31 0 0 0 .26.84.91.91 0 0 0 .77.36 1.6 1.6 0 0 0 .48-.08 1.65 1.65 0 0 0 .4-.15v.39zm1.74-1.02a1.78 1.78 0 0 0 .15.43.91.91 0 0 0 .29.3.73.73 0 0 0 .45.13.75.75 0 0 0 .44-.13.91.91 0 0 0 .28-.31 1.86 1.86 0 0 0 .2-.87 2.5 2.5 0 0 0 0-.46 1.53 1.53 0 0 0-.16-.42 1 1 0 0 0-.28-.32.81.81 0 0 0-.44-.12.79.79 0 0 0-.45.12.83.83 0 0 0-.29.31 1.56 1.56 0 0 0-.15.42 2.55 2.55 0 0 0 0 .47 2.39 2.39 0 0 0 0 .45m2.2 1.12H254v-.5a1 1 0 0 1-1 .57 1.12 1.12 0 0 1-1-.47 2 2 0 0 1-.33-1.17 2 2 0 0 1 .3-1.18 1.12 1.12 0 0 1 1-.46 1.09 1.09 0 0 1 .41.07.92.92 0 0 1 .3.17.85.85 0 0 1 .28.36v-2h.39v4.61zm3.29-1.79a1.52 1.52 0 0 0-.18-.75.69.69 0 0 0-.62-.34.82.82 0 0 0-.67.35 1.19 1.19 0 0 0-.25.74h1.72zm.19 1.69a2.67 2.67 0 0 1-.91.17 1.29 1.29 0 0 1-1.1-.47 2.17 2.17 0 0 1 0-2.36 1.16 1.16 0 0 1 1-.46 1.1 1.1 0 0 1 1 .46 2 2 0 0 1 .29 1.09v.2H256a1.31 1.31 0 0 0 .26.84.91.91 0 0 0 .77.36 1.6 1.6 0 0 0 .48-.08 1.65 1.65 0 0 0 .4-.15v.39zm1.45-2.34v-.7h.39v.6a1.35 1.35 0 0 1 .31-.47.69.69 0 0 1 .49-.2 1.23 1.23 0 0 1 .27 0v.41a1 1 0 0 0-.28 0 .66.66 0 0 0-.37.11.79.79 0 0 0-.24.3 1.55 1.55 0 0 0-.12.4 2.36 2.36 0 0 0 0 .44v1.55h-.39v-2.44zm4.3.86h-.61a1.82 1.82 0 0 0-.48.1.76.76 0 0 0-.35.23.59.59 0 0 0-.14.41.47.47 0 0 0 .2.43.74.74 0 0 0 .45.14.93.93 0 0 0 .53-.14.8.8 0 0 0 .28-.31 1 1 0 0 0 .1-.38v-.5zm0 1.08a.93.93 0 0 1-.41.42 1.29 1.29 0 0 1-.58.15 1.26 1.26 0 0 1-.53-.1.79.79 0 0 1-.32-.23 1 1 0 0 1-.19-.55.93.93 0 0 1 .19-.62 1 1 0 0 1 .47-.33 2.56 2.56 0 0 1 .68-.14h.71v-.16a.66.66 0 0 0-.71-.84 1.71 1.71 0 0 0-.92.26v-.36a2.31 2.31 0 0 1 .92-.22 1 1 0 0 1 1.1 1.17v1.38a4.72 4.72 0 0 0 0 .66h-.38v-.5zm1.5.17l1.89-2.48h-1.82v-.33h2.27v.33l-1.89 2.47h1.89v.34h-2.34v-.33zm3.5.33h.39v-3.14h-.39v3.14zm0-4h.39v-.5h-.39v.52zm2.31 3.35a.88.88 0 0 0 .77.39.91.91 0 0 0 .78-.39 1.55 1.55 0 0 0 .26-.92 1.61 1.61 0 0 0-.26-.93.93.93 0 0 0-.78-.37.89.89 0 0 0-.77.38 1.55 1.55 0 0 0-.27.93 1.5 1.5 0 0 0 .27.92m-.34-2.07a1.31 1.31 0 0 1 1.11-.5 1.33 1.33 0 0 1 1.12.5 2.06 2.06 0 0 1 0 2.28 1.32 1.32 0 0 1-1.12.51 1.3 1.3 0 0 1-1.11-.51 2 2 0 0 1 0-2.28m3.78.31v-.74h.38v.56l.13-.22a.93.93 0 0 1 .18-.2.84.84 0 0 1 .29-.15 1.35 1.35 0 0 1 .41-.05 1 1 0 0 1 .83.34 1.44 1.44 0 0 1 .24.86v2h-.4V414a1.33 1.33 0 0 0-.17-.71.67.67 0 0 0-.58-.26.79.79 0 0 0-.73.37 1.06 1.06 0 0 0-.15.36 1.74 1.74 0 0 0 0 .41v1.74h-.39v-2.4zm5.81.61a1.52 1.52 0 0 0-.18-.75.69.69 0 0 0-.62-.34.82.82 0 0 0-.67.35 1.19 1.19 0 0 0-.25.74h1.72zm.19 1.69a2.67 2.67 0 0 1-.91.17 1.29 1.29 0 0 1-1.1-.47 2.17 2.17 0 0 1 0-2.36 1.16 1.16 0 0 1 1-.46 1.1 1.1 0 0 1 1 .46 2 2 0 0 1 .29 1.09v.2h-2.15a1.31 1.31 0 0 0 .26.84.91.91 0 0 0 .77.36 1.6 1.6 0 0 0 .48-.08 1.65 1.65 0 0 0 .4-.15v.39zm4.46-.2a1.09 1.09 0 0 0 .69-.21.81.81 0 0 0 .28-.67.65.65 0 0 0-.31-.53 2.14 2.14 0 0 0-.31-.21l-.36-.2-.36-.22a2 2 0 0 1-.32-.25.87.87 0 0 1-.31-.67 1 1 0 0 1 .4-.83 1.57 1.57 0 0 1 1-.29h.39a2.58 2.58 0 0 1 .45.12l-.07.39a1.7 1.7 0 0 0-.78-.16 1.68 1.68 0 0 0-.33 0 .93.93 0 0 0-.3.13.65.65 0 0 0-.22.22.69.69 0 0 0-.09.36.49.49 0 0 0 .09.28.87.87 0 0 0 .22.23 2.33 2.33 0 0 0 .32.2l.36.2a2.49 2.49 0 0 1 .68.47 1.13 1.13 0 0 1-.14 1.67 1.71 1.71 0 0 1-1 .28 2.32 2.32 0 0 1-1-.18v-.44a1.62 1.62 0 0 0 .95.25m3.84.36h-.46l-1.06-3.14h.42l.87 2.71h.01l.91-2.71h.41l-1.1 3.14zm2.12 0h.39v-3.14h-.39v3.14zm0-4h.39v-.5h-.39v.52zm1.56 3.67l1.89-2.48h-1.82v-.33h2.27v.33l-1.89 2.47h1.89v.34h-2.34v-.33zm3.21 0l1.89-2.48h-1.82v-.33h2.27v.33l-1.89 2.47h1.89v.34h-2.34v-.33zm5.44-1.46a1.52 1.52 0 0 0-.18-.75.69.69 0 0 0-.62-.34.82.82 0 0 0-.67.35 1.19 1.19 0 0 0-.25.74H301zm.19 1.69a2.67 2.67 0 0 1-.91.17 1.29 1.29 0 0 1-1.1-.47 2.17 2.17 0 0 1 0-2.36 1.16 1.16 0 0 1 1-.46 1.1 1.1 0 0 1 1 .46 2 2 0 0 1 .29 1.09v.2h-2.15a1.31 1.31 0 0 0 .26.84.91.91 0 0 0 .77.36 1.6 1.6 0 0 0 .48-.08 1.63 1.63 0 0 0 .4-.15v.39zm1.43-2.34v-.7h.38v.6a1.32 1.32 0 0 1 .31-.47.69.69 0 0 1 .49-.2 1.23 1.23 0 0 1 .27 0v.41a1 1 0 0 0-.28 0 .66.66 0 0 0-.37.11.8.8 0 0 0-.24.3 1.59 1.59 0 0 0-.12.4 2.45 2.45 0 0 0 0 .44v1.55h-.39v-2.44zm4.29.86h-.61a1.84 1.84 0 0 0-.48.1.76.76 0 0 0-.34.23.59.59 0 0 0-.14.41.47.47 0 0 0 .2.43.74.74 0 0 0 .46.14.93.93 0 0 0 .53-.14.81.81 0 0 0 .28-.31 1 1 0 0 0 .1-.38v-.5zm0 1.08a.94.94 0 0 1-.41.42 1.28 1.28 0 0 1-.58.15 1.26 1.26 0 0 1-.53-.1.8.8 0 0 1-.32-.23 1 1 0 0 1-.19-.55.93.93 0 0 1 .19-.62 1 1 0 0 1 .47-.33 2.54 2.54 0 0 1 .63-.14h.71v-.16a.66.66 0 0 0-.71-.81 1.71 1.71 0 0 0-.92.26v-.39a2.31 2.31 0 0 1 .92-.22 1 1 0 0 1 1.1 1.17v1.38a4.71 4.71 0 0 0 0 .66h-.38v-.5zm-70.76 5.02a4.21 4.21 0 0 0-.5 0 1.66 1.66 0 0 0-1.29.52 2.18 2.18 0 0 0 0 2.66 1.63 1.63 0 0 0 1.29.52 3.24 3.24 0 0 0 .5 0 1.31 1.31 0 0 0 .46-.14v.37a1.54 1.54 0 0 1-.47.14 3.48 3.48 0 0 1-.51 0 2.11 2.11 0 0 1-1.59-.61 2.21 2.21 0 0 1-.58-1.61 2.26 2.26 0 0 1 .58-1.61 2.11 2.11 0 0 1 1.58-.61h.51a1.4 1.4 0 0 1 .47.13v.39a1.54 1.54 0 0 0-.46-.15m2.36 3.32a.88.88 0 0 0 .77.39.91.91 0 0 0 .78-.39 1.55 1.55 0 0 0 .26-.92 1.61 1.61 0 0 0-.26-.93.93.93 0 0 0-.78-.37.89.89 0 0 0-.77.38 1.55 1.55 0 0 0-.27.93 1.5 1.5 0 0 0 .27.92m-.34-2.07a1.31 1.31 0 0 1 1.11-.5 1.33 1.33 0 0 1 1.12.5 2.06 2.06 0 0 1 0 2.28 1.32 1.32 0 0 1-1.12.5 1.3 1.3 0 0 1-1.11-.5 2 2 0 0 1 0-2.28m3.79.32v-.74h.38v.56l.13-.22a.93.93 0 0 1 .19-.2.84.84 0 0 1 .29-.15 1.35 1.35 0 0 1 .41-.05 1 1 0 0 1 .83.34 1.44 1.44 0 0 1 .24.86v2H244v-1.91a1.33 1.33 0 0 0-.17-.71.67.67 0 0 0-.58-.26.79.79 0 0 0-.73.37 1.06 1.06 0 0 0-.15.36 1.74 1.74 0 0 0 0 .41v1.74h-.39V422zm4.16-.42h-.63v-.33h.63v-.74a1.24 1.24 0 0 1 .09-.42.65.65 0 0 1 .25-.3.82.82 0 0 1 .46-.11h.2a.44.44 0 0 1 .16.06v.33a.71.71 0 0 0-.27-.07.42.42 0 0 0-.29.09.5.5 0 0 0-.14.24 1.17 1.17 0 0 0 0 .3v.59h.71v.33h-.78v2.81h-.39v-2.81zm4.18 1.01a1.52 1.52 0 0 0-.18-.75.69.69 0 0 0-.62-.34.82.82 0 0 0-.67.34 1.19 1.19 0 0 0-.25.74h1.72zm.19 1.69a2.67 2.67 0 0 1-.91.17 1.29 1.29 0 0 1-1.1-.47 2.17 2.17 0 0 1 0-2.36 1.16 1.16 0 0 1 1-.45 1.1 1.1 0 0 1 1 .46 2 2 0 0 1 .29 1.09v.2h-2.15a1.31 1.31 0 0 0 .26.84.91.91 0 0 0 .77.36 1.6 1.6 0 0 0 .48-.08 1.65 1.65 0 0 0 .4-.15v.39zm1.74-1.02a1.78 1.78 0 0 0 .15.43.91.91 0 0 0 .29.3.73.73 0 0 0 .45.13.75.75 0 0 0 .44-.13.91.91 0 0 0 .28-.31 1.86 1.86 0 0 0 .2-.87 2.48 2.48 0 0 0 0-.45 1.52 1.52 0 0 0-.16-.42 1 1 0 0 0-.28-.32.81.81 0 0 0-.44-.12.79.79 0 0 0-.45.12.83.83 0 0 0-.29.31 1.56 1.56 0 0 0-.15.42 2.55 2.55 0 0 0 0 .47 2.39 2.39 0 0 0 0 .45m2.2 1.12H254v-.5a1 1 0 0 1-1 .57 1.12 1.12 0 0 1-1-.47 2 2 0 0 1-.33-1.17 2 2 0 0 1 .3-1.18 1.12 1.12 0 0 1 1-.46 1.09 1.09 0 0 1 .41.07.92.92 0 0 1 .3.17.85.85 0 0 1 .28.36v-2h.39v4.61zm3.29-1.8a1.52 1.52 0 0 0-.18-.75.69.69 0 0 0-.62-.34.82.82 0 0 0-.67.34 1.19 1.19 0 0 0-.25.74h1.72zm.19 1.69a2.67 2.67 0 0 1-.91.17 1.29 1.29 0 0 1-1.1-.47 2.17 2.17 0 0 1 0-2.36 1.16 1.16 0 0 1 1-.45 1.1 1.1 0 0 1 1 .46 2 2 0 0 1 .29 1.09v.2H256a1.31 1.31 0 0 0 .26.84.91.91 0 0 0 .77.36 1.6 1.6 0 0 0 .48-.08 1.65 1.65 0 0 0 .4-.15v.39zm1.45-2.33v-.7h.39v.6a1.35 1.35 0 0 1 .31-.47.69.69 0 0 1 .49-.2 1.23 1.23 0 0 1 .27 0v.41a1 1 0 0 0-.28 0 .66.66 0 0 0-.37.11.79.79 0 0 0-.24.3 1.55 1.55 0 0 0-.12.4 2.36 2.36 0 0 0 0 .44v1.55h-.39v-2.44zm4.3.85h-.61a1.82 1.82 0 0 0-.48.1.76.76 0 0 0-.35.23.59.59 0 0 0-.14.41.47.47 0 0 0 .2.43.74.74 0 0 0 .45.14.93.93 0 0 0 .53-.14.79.79 0 0 0 .28-.31 1 1 0 0 0 .1-.38v-.48zm0 1.08a.93.93 0 0 1-.41.42 1.27 1.27 0 0 1-1.11 0 .79.79 0 0 1-.32-.23 1 1 0 0 1-.19-.55.93.93 0 0 1 .19-.62 1 1 0 0 1 .47-.33 2.56 2.56 0 0 1 .63-.14h.71v-.16a.66.66 0 0 0-.71-.81 1.71 1.71 0 0 0-.92.26v-.37a2.31 2.31 0 0 1 .92-.22 1 1 0 0 1 1.1 1.17v1.39a4.72 4.72 0 0 0 0 .66h-.38v-.5zm1.5.18l1.89-2.48h-1.82v-.33h2.27v.33l-1.89 2.47h1.89v.33h-2.34v-.32zm3.5.32h.39v-3.14h-.39v3.14zm0-4h.39v-.52h-.39v.52zm4.31 3.27v.74h-.38v-.56a1.07 1.07 0 0 1-.12.21 1 1 0 0 1-.19.21.89.89 0 0 1-.29.15 1.13 1.13 0 0 1-.42.07 1 1 0 0 1-.83-.34 1.36 1.36 0 0 1-.25-.86v-2h.39v1.91a1.2 1.2 0 0 0 .18.7.62.62 0 0 0 .57.27.86.86 0 0 0 .45-.11.74.74 0 0 0 .28-.27 1.09 1.09 0 0 0 .16-.37 1.88 1.88 0 0 0 0-.39v-1.74h.45v2.4zm1.44-1.65v-.74h.38v.56l.13-.22a.93.93 0 0 1 .18-.2.84.84 0 0 1 .29-.15 1.35 1.35 0 0 1 .41-.05 1 1 0 0 1 .83.34 1.44 1.44 0 0 1 .24.86v2h-.4v-1.91a1.33 1.33 0 0 0-.17-.71.67.67 0 0 0-.58-.26.79.79 0 0 0-.73.37 1.06 1.06 0 0 0-.15.36 1.74 1.74 0 0 0 0 .41v1.74h-.39V422zm6.56 2.13a.79.79 0 0 0 .49-.15.48.48 0 0 0 .2-.41.53.53 0 0 0-.23-.44 2.7 2.7 0 0 0-.52-.28l-.27-.14-.25-.17a.88.88 0 0 1-.17-.23.59.59 0 0 1-.07-.29.73.73 0 0 1 .32-.66 1.28 1.28 0 0 1 .7-.19h.35a2.3 2.3 0 0 1 .42.12v.34a1.87 1.87 0 0 0-.69-.15.89.89 0 0 0-.48.11.36.36 0 0 0-.14.15.53.53 0 0 0-.06.26.29.29 0 0 0 .07.18.74.74 0 0 0 .18.15l.25.13.28.14a1.76 1.76 0 0 1 .53.34.81.81 0 0 1 .23.6.79.79 0 0 1-.1.41.87.87 0 0 1-.26.28 1.42 1.42 0 0 1-.73.2 2.66 2.66 0 0 1-.88-.15v-.38a1.76 1.76 0 0 0 .82.2m3.44.28h-.46l-1.06-3.13h.42l.87 2.71h.01l.91-2.71h.41l-1.1 3.13zm2.12 0h.39v-3.14h-.39v3.14zm0-4h.39v-.52h-.39v.52zm1.56 3.68l1.89-2.48h-1.82v-.33h2.27v.33l-1.89 2.47h1.89v.33h-2.34v-.32zm3.5-2.11v-.7h.39v.6a1.34 1.34 0 0 1 .31-.47.69.69 0 0 1 .49-.2 1.24 1.24 0 0 1 .27 0v.41a1 1 0 0 0-.28 0 .66.66 0 0 0-.37.11.81.81 0 0 0-.24.3 1.59 1.59 0 0 0-.12.4 2.45 2.45 0 0 0 0 .44v1.55h-.39v-2.44zm4.29.85h-.61a1.84 1.84 0 0 0-.48.1.76.76 0 0 0-.34.23.59.59 0 0 0-.14.41.48.48 0 0 0 .2.43.74.74 0 0 0 .46.14.93.93 0 0 0 .53-.14.79.79 0 0 0 .28-.31 1 1 0 0 0 .1-.38v-.48zm0 1.08a.94.94 0 0 1-.41.42 1.27 1.27 0 0 1-1.11 0 .8.8 0 0 1-.32-.23 1 1 0 0 1-.19-.55.93.93 0 0 1 .19-.62 1 1 0 0 1 .47-.33 2.54 2.54 0 0 1 .63-.14h.71v-.16a.66.66 0 0 0-.71-.81 1.71 1.71 0 0 0-.92.26v-.37a2.31 2.31 0 0 1 .92-.22 1 1 0 0 1 1.1 1.17v1.39a4.71 4.71 0 0 0 0 .66h-.38v-.5z"/><path class="cls-3" d="M226.5 394.44a23.54 23.54 0 0 0-8.7-1.42 23.55 23.55 0 0 0-8.7 1.42s-.29 6.31.94 9.88a13.19 13.19 0 0 0 7.76 8 13.2 13.2 0 0 0 7.76-8c1.24-3.57.94-9.88.94-9.88"/><path class="cls-2" d="M223.58 399.88v3.48h-4.06v4.06h-3.47v-4.06h-4.06v-3.48h4.06v-4.06h3.47v4.06h4.06z"/></svg>